<svg width="59" height="284" viewBox="0 0 59 284" fill="none" xmlns="http://www.w3.org/2000/svg">
<path d="M15 284C6.71573 284 -2.93554e-07 277.284 -6.55671e-07 269L-1.17584e-05 15C-1.21205e-05 6.71574 6.71572 -2.93554e-07 15 -6.55671e-07L59 -2.57897e-06L59 284L15 284Z" fill="#3457A2"/>
<path d="M26 201.841L26 203.955C25.392 204.08 24.858 204.298 24.3977 204.611C23.9375 204.918 23.5511 205.293 23.2386 205.736C22.9205 206.173 22.6818 206.659 22.5227 207.193C22.3636 207.727 22.2841 208.284 22.2841 208.864C22.2841 209.92 22.5511 210.878 23.0852 211.736C23.6193 212.588 24.4062 213.267 25.446 213.773C26.4858 214.273 27.7614 214.523 29.2727 214.523C30.7841 214.523 32.0597 214.273 33.0994 213.773C34.1392 213.267 34.9261 212.588 35.4602 211.736C35.9943 210.878 36.2614 209.92 36.2614 208.864C36.2614 208.284 36.1818 207.727 36.0227 207.193C35.8636 206.659 35.6278 206.173 35.3153 205.736C34.9972 205.293 34.608 204.918 34.1477 204.611C33.6818 204.298 33.1477 204.08 32.5455 203.955L32.5455 201.841C33.4375 202 34.2358 202.29 34.9403 202.71C35.6449 203.131 36.2443 203.653 36.7386 204.278C37.2273 204.903 37.5994 205.605 37.8551 206.384C38.1108 207.156 38.2386 207.983 38.2386 208.864C38.2386 210.352 37.875 211.676 37.1477 212.835C36.4205 213.994 35.3864 214.906 34.0455 215.571C32.7045 216.236 31.1136 216.568 29.2727 216.568C27.4318 216.568 25.8409 216.236 24.5 215.571C23.1591 214.906 22.125 213.994 21.3977 212.835C20.6705 211.676 20.3068 210.352 20.3068 208.864C20.3068 207.983 20.4347 207.156 20.6903 206.384C20.946 205.605 21.321 204.903 21.8153 204.278C22.304 203.653 22.9006 203.131 23.6051 202.71C24.304 202.29 25.1023 202 26 201.841ZM38 198.698L24.9091 198.698L24.9091 193.346C24.9091 191.937 25.2273 190.817 25.8636 189.988C26.5 189.158 27.3409 188.744 28.3864 188.744C29.1818 188.744 29.7983 188.979 30.2358 189.451C30.6676 189.923 30.9602 190.528 31.1136 191.266C31.1818 190.783 31.3523 190.315 31.625 189.86C31.8977 189.4 32.2727 189.019 32.75 188.718C33.2216 188.417 33.8011 188.266 34.4886 188.266C35.1591 188.266 35.7585 188.437 36.2869 188.778C36.8153 189.119 37.233 189.607 37.5398 190.244C37.8466 190.88 38 191.641 38 192.528L38 198.698ZM36.1591 196.789L36.1591 192.528C36.1591 191.835 35.9943 191.292 35.6648 190.9C35.3352 190.508 34.8864 190.312 34.3182 190.312C33.642 190.312 33.1108 190.508 32.7244 190.9C32.3324 191.292 32.1364 191.835 32.1364 192.528L32.1364 196.789L36.1591 196.789ZM30.3977 196.789L30.3977 193.346C30.3977 192.806 30.3239 192.343 30.1761 191.957C30.0227 191.57 29.8068 191.275 29.5284 191.07C29.2443 190.86 28.9091 190.755 28.5227 190.755C27.9716 190.755 27.5398 190.985 27.2273 191.445C26.9091 191.906 26.75 192.539 26.75 193.346L26.75 196.789L30.3977 196.789ZM38 177.347L26.75 177.347L26.75 180.824C26.75 181.608 26.9318 182.224 27.2955 182.673C27.6591 183.122 28.1591 183.347 28.7955 183.347C29.4205 183.347 29.9119 183.145 30.2699 182.741C30.6278 182.332 30.8068 181.773 30.8068 181.062L30.8068 176.835L32.6818 176.835L32.6818 181.062C32.6818 181.949 32.5256 182.713 32.2131 183.355C31.9006 183.997 31.4545 184.491 30.875 184.838C30.2898 185.185 29.5966 185.358 28.7955 185.358C27.9886 185.358 27.2955 185.176 26.7159 184.812C26.1364 184.449 25.6903 183.929 25.3778 183.253C25.0653 182.571 24.9091 181.761 24.9091 180.824L24.9091 175.437L38 175.437L38 177.347ZM38 186.074L31.4886 182.358L31.4886 180.176L38 183.892L38 186.074ZM34.6591 172.563L34.6591 170.415C35.25 170.37 35.6989 170.103 36.0057 169.614C36.3125 169.12 36.4659 168.478 36.4659 167.688C36.4659 166.881 36.3011 166.191 35.9716 165.617C35.6364 165.043 35.0966 164.756 34.3523 164.756C33.9148 164.756 33.5341 164.864 33.2102 165.08C32.8807 165.296 32.625 165.6 32.4432 165.992C32.2614 166.384 32.1705 166.847 32.1705 167.381L32.1705 169.631L30.3636 169.631L30.3636 167.381C30.3636 166.58 30.1818 165.989 29.8182 165.609C29.4545 165.222 29 165.029 28.4545 165.029C27.8693 165.029 27.4006 165.237 27.0483 165.651C26.6903 166.066 26.5114 166.654 26.5114 167.415C26.5114 168.183 26.6847 168.822 27.0312 169.333C27.3722 169.844 27.8125 170.114 28.3523 170.143L28.3523 172.256C27.6477 172.234 27.0256 172.018 26.4858 171.609C25.9403 171.2 25.5142 170.643 25.2074 169.938C24.8949 169.234 24.7386 168.427 24.7386 167.518C24.7386 166.597 24.9006 165.799 25.2244 165.123C25.5426 164.441 25.9773 163.915 26.5284 163.546C27.0739 163.171 27.6932 162.984 28.3864 162.984C29.125 162.984 29.7216 163.191 30.1761 163.606C30.6307 164.021 30.9545 164.54 31.1477 165.165L31.2841 165.165C31.3182 164.671 31.4773 164.242 31.7614 163.879C32.0398 163.509 32.4062 163.222 32.8608 163.018C33.3097 162.813 33.8068 162.711 34.3523 162.711C35.1477 162.711 35.8409 162.924 36.4318 163.35C37.017 163.776 37.4716 164.362 37.7955 165.106C38.1136 165.85 38.2727 166.7 38.2727 167.654C38.2727 168.58 38.1222 169.41 37.821 170.143C37.5142 170.876 37.0909 171.458 36.5511 171.89C36.0057 172.316 35.375 172.54 34.6591 172.563ZM38.3068 156.033C38.3068 156.863 38.1506 157.616 37.8381 158.292C37.5199 158.968 37.0625 159.505 36.4659 159.903C35.8636 160.3 35.1364 160.499 34.2841 160.499C33.5341 160.499 32.9261 160.352 32.4602 160.056C31.9886 159.761 31.6193 159.366 31.3523 158.871C31.0852 158.377 30.8864 157.832 30.7557 157.235C30.6193 156.633 30.5114 156.028 30.4318 155.42C30.3295 154.624 30.2528 153.979 30.2017 153.485C30.1449 152.985 30.0511 152.621 29.9205 152.394C29.7898 152.161 29.5625 152.045 29.2386 152.045L29.1705 152.045C28.3295 152.045 27.6761 152.275 27.2102 152.735C26.7443 153.19 26.5114 153.88 26.5114 154.806C26.5114 155.766 26.7216 156.519 27.142 157.065C27.5625 157.61 28.0114 157.994 28.4886 158.215L27.8068 160.124C27.0114 159.783 26.392 159.329 25.9489 158.761C25.5 158.187 25.1875 157.562 25.0114 156.886C24.8295 156.204 24.7386 155.533 24.7386 154.874C24.7386 154.454 24.7898 153.971 24.892 153.425C24.9886 152.874 25.1903 152.343 25.4972 151.832C25.804 151.315 26.267 150.886 26.8864 150.545C27.5057 150.204 28.3352 150.033 29.375 150.033L38 150.033L38 152.045L36.2273 152.045L36.2273 152.147C36.5114 152.283 36.8153 152.511 37.1392 152.829C37.4631 153.147 37.7386 153.57 37.9659 154.099C38.1932 154.627 38.3068 155.272 38.3068 156.033ZM36.5 155.727C36.5 154.931 36.3437 154.261 36.0312 153.715C35.7187 153.164 35.3153 152.749 34.821 152.471C34.3267 152.187 33.8068 152.045 33.2614 152.045L31.4205 152.045C31.5227 152.13 31.6165 152.317 31.7017 152.607C31.7812 152.891 31.8523 153.221 31.9148 153.596C31.9716 153.965 32.0227 154.326 32.0682 154.678C32.108 155.025 32.142 155.306 32.1705 155.522C32.2386 156.045 32.3494 156.533 32.5028 156.988C32.6506 157.437 32.875 157.8 33.1761 158.079C33.4716 158.352 33.875 158.488 34.3864 158.488C35.0852 158.488 35.6136 158.229 35.9716 157.712C36.3239 157.19 36.5 156.528 36.5 155.727ZM26.7841 148.143L24.9091 148.143L24.9091 137.507L26.7841 137.507L26.7841 141.803L38 141.803L38 143.814L26.7841 143.814L26.7841 148.143ZM29.6477 132.835L29.6477 129.085C29.6477 127.55 30.0369 126.377 30.8153 125.565C31.5937 124.752 32.5795 124.346 33.7727 124.346C34.5568 124.346 35.2699 124.528 35.9119 124.891C36.5483 125.255 37.0568 125.789 37.4375 126.494C37.8125 127.198 38 128.062 38 129.085L38 134.573L24.9091 134.573L24.9091 132.562L36.125 132.562L36.125 129.085C36.125 128.289 35.9148 127.636 35.4943 127.124C35.0739 126.613 34.5341 126.357 33.875 126.357C33.1818 126.357 32.6165 126.613 32.179 127.124C31.7415 127.636 31.5227 128.289 31.5227 129.085L31.5227 132.835L29.6477 132.835ZM38.2727 115.966C38.2727 117.193 37.983 118.25 37.4034 119.136C36.8239 120.023 36.0256 120.705 35.0085 121.182C33.9915 121.659 32.8295 121.898 31.5227 121.898C30.1932 121.898 29.0199 121.653 28.0028 121.165C26.9801 120.67 26.1818 119.983 25.6079 119.102C25.0284 118.216 24.7386 117.182 24.7386 116C24.7386 115.08 24.9091 114.25 25.25 113.511C25.5909 112.773 26.0682 112.168 26.6818 111.696C27.2954 111.224 28.0114 110.932 28.8295 110.818L28.8295 112.83C28.2329 112.983 27.7045 113.324 27.2443 113.852C26.7784 114.375 26.5454 115.08 26.5454 115.966C26.5454 116.75 26.75 117.437 27.1591 118.028C27.5625 118.614 28.1335 119.071 28.8722 119.401C29.6051 119.724 30.4659 119.886 31.4545 119.886C32.4659 119.886 33.3466 119.727 34.0966 119.409C34.8466 119.085 35.429 118.631 35.8437 118.045C36.2585 117.455 36.4659 116.761 36.4659 115.966C36.4659 115.443 36.375 114.969 36.1932 114.543C36.0114 114.116 35.75 113.756 35.4091 113.46C35.0682 113.165 34.6591 112.955 34.1818 112.83L34.1818 110.818C34.9545 110.932 35.6506 111.213 36.2699 111.662C36.8835 112.105 37.3722 112.693 37.7358 113.426C38.0937 114.153 38.2727 115 38.2727 115.966ZM38 100.003L26.75 100.003L26.75 103.48C26.75 104.264 26.9318 104.881 27.2954 105.33C27.6591 105.778 28.1591 106.003 28.7954 106.003C29.4204 106.003 29.9119 105.801 30.2699 105.398C30.6278 104.989 30.8068 104.429 30.8068 103.719L30.8068 99.4915L32.6818 99.4915L32.6818 103.719C32.6818 104.605 32.5256 105.369 32.2131 106.011C31.9006 106.653 31.4545 107.148 30.875 107.494C30.2898 107.841 29.5966 108.014 28.7954 108.014C27.9886 108.014 27.2954 107.832 26.7159 107.469C26.1364 107.105 25.6903 106.585 25.3778 105.909C25.0653 105.227 24.9091 104.418 24.9091 103.48L24.9091 98.0937L38 98.0937L38 100.003ZM38 108.73L31.4886 105.014L31.4886 102.832L38 106.548L38 108.73Z" fill="white"/>
<g clip-path="url(#clip0_2511_12)">
<path d="M30.1943 79.173C30.602 79.5807 30.602 80.2419 30.1943 80.6496C29.7866 81.0577 29.1253 81.0577 28.7175 80.6496L22.3056 74.238C22.1018 74.0342 22 73.7669 22 73.4997C22 73.2325 22.102 72.9653 22.3056 72.7616L28.7175 66.3499C29.1253 65.942 29.7866 65.942 30.1943 66.3499C30.602 66.7576 30.602 67.4187 30.1943 67.8266L24.521 73.4997L30.1943 79.173ZM31.021 73.4997L36.6943 67.8266C37.102 67.4187 37.102 66.7575 36.6943 66.3498C36.2866 65.942 35.6253 65.942 35.2174 66.3498L28.8055 72.7616C28.6018 72.9655 28.4999 73.2325 28.4999 73.4997C28.4999 73.7669 28.602 74.0342 28.8055 74.238L35.2174 80.6496C35.6253 81.0577 36.2866 81.0577 36.6943 80.6496C37.102 80.2419 37.102 79.5807 36.6943 79.173L31.021 73.4997Z" fill="white"/>
</g>
<defs>
<clipPath id="clip0_2511_12">
<rect width="15" height="15" fill="white" transform="translate(22 66)"/>
</clipPath>
</defs>
</svg>
