<svg width="50" height="50" viewBox="0 0 50 50" fill="none" xmlns="http://www.w3.org/2000/svg">
<g clip-path="url(#clip0_2485_32)">
<path d="M50 0H0V50H50V0Z" fill="#2196F3"/>
<path d="M25.4931 26.4691L10 18.7397V34.0974C10.0021 34.876 10.3124 35.622 10.8629 36.1726C11.4134 36.7231 12.1595 37.0334 12.9381 37.0355H38.0619C38.8405 37.0334 39.5866 36.7231 40.1371 36.1726C40.6877 35.622 40.9979 34.876 41 34.0974V18.9016L25.4931 26.4691Z" fill="white"/>
<path d="M25.5069 23.5664L41 16.0047V15.9381C40.9979 15.1595 40.6877 14.4134 40.1371 13.8629C39.5866 13.3124 38.8405 13.0021 38.0619 13H12.9381C12.1774 13.0015 11.4468 13.2972 10.8992 13.8251C10.3516 14.3531 10.0293 15.0724 10 15.8325L25.5069 23.5664Z" fill="white"/>
</g>
<defs>
<clipPath id="clip0_2485_32">
<rect width="50" height="50" fill="white"/>
</clipPath>
</defs>
</svg>
