<svg width="40" height="40" viewBox="0 0 40 40" fill="none" xmlns="http://www.w3.org/2000/svg">
<rect width="40" height="40" fill="#2196F3"/>
<path d="M31.6111 25.0944C29.2139 25.0944 26.9278 24.5722 24.8194 23.5417C24.4889 23.3833 24.1056 23.3583 23.7556 23.4778C23.4056 23.6 23.1194 23.8556 22.9583 24.1861L21.9583 26.2556C18.9583 24.5333 16.4694 22.0417 14.7444 19.0417L16.8167 18.0417C17.15 17.8806 17.4028 17.5944 17.525 17.2444C17.6444 16.8944 17.6222 16.5111 17.4611 16.1806C16.4278 14.075 15.9056 11.7889 15.9056 9.38889C15.9056 8.62222 15.2833 8 14.5167 8H9.38889C8.62222 8 8 8.62222 8 9.38889C8 22.4083 18.5917 33 31.6111 33C32.3778 33 33 32.3778 33 31.6111V26.4833C33 25.7167 32.3778 25.0944 31.6111 25.0944Z" fill="#FAFAFA"/>
</svg>
