<svg width="40" height="40" viewBox="0 0 40 40" fill="none" xmlns="http://www.w3.org/2000/svg">
<rect width="40" height="40" fill="white"/>
<path fill-rule="evenodd" clip-rule="evenodd" d="M0 0H40V40H0V0ZM4.74758 19.2538L31.4962 8.8302C32.5142 8.43347 33.5663 9.32452 33.3427 10.394L28.7758 32.228C28.5617 33.2525 27.3598 33.7127 26.516 33.0933L19.6207 28.032L16.1065 31.6202C15.4897 32.25 14.4242 31.9952 14.1593 31.1543L11.6226 23.1052L4.82552 21.098C3.93368 20.8347 3.8812 19.5915 4.74758 19.2538ZM28.1425 13.6757L15.718 24.6627C15.5942 24.7722 15.5153 24.9238 15.4969 25.0882L15.0186 29.3405C15.0029 29.4792 14.8089 29.4975 14.7674 29.3642L12.7993 23.0225C12.7092 22.7322 12.8267 22.4177 13.085 22.2573L27.7572 13.1577C28.0945 12.9482 28.44 13.4127 28.1425 13.6757Z" fill="#61A8DE"/>
</svg>
