<svg width="40" height="40" viewBox="0 0 40 40" fill="none" xmlns="http://www.w3.org/2000/svg">
<rect width="40" height="40" fill="white"/>
<path fill-rule="evenodd" clip-rule="evenodd" d="M40 0H0V40H40V0ZM6.01153 34.0038L7.97085 27.045C6.71088 24.9045 6.04752 22.469 6.04752 19.9672C6.04752 12.264 12.3145 5.99698 20.0178 5.99698C27.721 5.99698 33.988 12.264 33.988 19.9672C33.988 27.6705 27.721 33.9375 20.0178 33.9375C17.6175 33.9375 15.2672 33.3232 13.1879 32.1565L6.01153 34.0038ZM13.9825 29.876L13.5548 29.6148L9.40872 30.6822L10.537 26.6747L10.249 26.2263C9.05078 24.3603 8.41733 22.196 8.41733 19.9672C8.41733 13.5707 13.6213 8.3668 20.0178 8.3668C26.4143 8.3668 31.6182 13.5707 31.6182 19.9672C31.6182 26.3637 26.4143 31.5677 20.0178 31.5677C17.8823 31.5677 15.7953 30.9827 13.9825 29.876ZM15.1877 13.4154L16.0942 13.4649C16.2727 13.4746 16.4302 13.5849 16.5005 13.7493L17.8212 16.839C17.8917 17.004 17.862 17.1948 17.7447 17.3307L16.5951 18.6603C16.502 18.7683 16.4857 18.9218 16.5513 19.0483C18.0652 21.9643 20.8242 23.1198 21.6478 23.4093C21.7883 23.4587 21.9438 23.412 22.0347 23.2942L23.2373 21.735C23.3712 21.5617 23.607 21.5037 23.8058 21.5953L26.8695 23.0075C27.0692 23.0995 27.1782 23.3175 27.1322 23.5323L26.9875 24.2083C26.8242 24.9712 26.3713 25.6458 25.7142 26.0662C24.8843 26.597 23.809 26.8575 22.442 26.471C18.1998 25.2713 15.8007 22.4627 14.5134 20.7073C13.226 18.9518 12.7286 17.1965 13.0505 15.7629C13.2663 14.8014 13.969 14.0637 14.4085 13.682C14.6237 13.4951 14.903 13.3999 15.1877 13.4154Z" fill="#1BD741"/>
</svg>
