<svg xmlns="http://www.w3.org/2000/svg" viewBox="0 0 58.22168 35.27173"><defs><style>.ac71ab05-e57b-432e-bcc7-a8ff3a72e03e{fill:#f4f4f5;}.ac71ab05-e57b-432e-bcc7-a8ff3a72e03e,.fc5c6cd0-e3ed-44a8-99db-89902f67e57e{fill-rule:evenodd;}.fc5c6cd0-e3ed-44a8-99db-89902f67e57e{fill:#e3e3e3;}</style></defs><title>advantages_05</title><g id="f6039caf-121b-464e-90e2-ed2ca9112a6b" data-name="Layer 2"><g id="fbe18273-cfa4-44e7-8ad0-d3fc363b8b7a" data-name="Layer 1"><path class="ac71ab05-e57b-432e-bcc7-a8ff3a72e03e" d="M6.0069,30.34314l1.07827-.92444v1.07837H8.77948v-1.5404h1.54041V27.26245H12.0141v-1.54h1.5401V24.0282h1.69427V22.48779h1.54032V20.79346h1.6943V19.25317h1.54029V17.55884h1.6943V16.01855h1.54V14.32422H24.952v-1.54h1.5404V11.09h1.69418V9.54956h1.3862L32.0372,5.5448a75.76354,75.76354,0,0,0-6.931-4.31262C24.49,2.15625,24.02789,3.08069,23.412,4.00476L12.784,21.10168c-.616.7699-1.38611,2.15625-1.84821,2.77222-1.38611-.616-4.7746-3.54248-6.315-4.15869L0,26.49231c.616.46228,5.23679,3.5426,6.0069,3.85083"/><path class="ac71ab05-e57b-432e-bcc7-a8ff3a72e03e" d="M38.50638,6.46912c.4621.15393,18.32892.308,19.7153.15393V.15417L38.50638,0Z"/><polygon class="ac71ab05-e57b-432e-bcc7-a8ff3a72e03e" points="38.506 13.708 38.506 19.715 58.222 19.715 58.222 13.246 38.506 13.246 38.506 13.708"/><path class="ac71ab05-e57b-432e-bcc7-a8ff3a72e03e" d="M6.0069,30.34314c.15429.462,1.3865,1.078,2.00238,1.38611a10.32853,10.32853,0,0,0,2.1564,1.38623l.15421-.92407H12.0141v1.54028h-.92441c.1543.15381,0,.15381.3082.30786l2.00241,1.23218c.77008-.7699,13.70828-22.02551,16.17248-25.72217h-1.3862V11.09H26.4924v1.69421H24.952v1.54H23.25769v1.69433h-1.54v1.54029h-1.6943v1.69433H18.48309v1.54029h-1.6943v1.69433H15.24847V24.0282H13.5542v1.69421H12.0141v1.54H10.31989v1.69422H8.77948v1.5404H7.08517V29.4187Z"/><path class="ac71ab05-e57b-432e-bcc7-a8ff3a72e03e" d="M49.13409,27.10852l-.3081,1.69421h-1.3862l-.1539,1.54041H45.74557l-.154,1.69421-1.38638.15406h-1.54c0,1.3861,0,.3081-.3082.77H58.06747l.15421-6.623H49.13409Z"/><path class="ac71ab05-e57b-432e-bcc7-a8ff3a72e03e" d="M38.50638,32.96143H42.357c.3082-.46192.3082.61608.3082-.77h1.54c0-1.84827-.3078-2.00245,1.54037-1.84827-.154-1.69434,0-1.54041,1.69422-1.54041-.1539-1.84814-.1539-1.69421,1.6943-1.69421v-.77014H38.50638Z"/><path class="fc5c6cd0-e3ed-44a8-99db-89902f67e57e" d="M47.43979,28.80273H48.826l.3081-1.69421c-1.8482,0-1.8482-.15393-1.6943,1.69421"/><path class="fc5c6cd0-e3ed-44a8-99db-89902f67e57e" d="M44.2052,32.19141l1.38638-.15406.154-1.69421c-1.84817-.15418-1.54037,0-1.54037,1.84827"/><path class="ac71ab05-e57b-432e-bcc7-a8ff3a72e03e" d="M10.16568,33.11548a.151.151,0,0,0,.15421.15417v.15393h.1539c.3081.15393.3081.15393.6159.30811h.92441V32.19141H10.31989Z"/><path class="fc5c6cd0-e3ed-44a8-99db-89902f67e57e" d="M45.74557,30.34314h1.54032l.1539-1.54041c-1.69422,0-1.84821-.15393-1.69422,1.54041"/></g></g></svg>