<svg xmlns="http://www.w3.org/2000/svg" viewBox="0 0 68.80894 36.70475"><defs><style>.a64aecb3-7f5d-425f-828c-7a6641fea305{fill:#fff;fill-rule:evenodd;}</style></defs><title>advantages_06</title><g id="adb8c3e0-a201-4875-888b-945ef872e007" data-name="Layer 2"><g id="b959f017-2ca2-454e-8c2e-8439d7712110" data-name="Layer 1"><path class="a64aecb3-7f5d-425f-828c-7a6641fea305" d="M28.11141,16.09343a8.235,8.235,0,0,1-1.23019.338c-.1684.2074-.0369.10559-.3371.20776-.42831.64661-1.75241.58252-2.66711.68482-.989.11059-2.04209.18872-3.0441.26843a48.21676,48.21676,0,0,1-6.55539.02148l-1.26321-.10449c-1.6027-.12781-3.21839-.33764-4.78229-.52893a6.27143,6.27143,0,0,0-2.38761-.08288c-.9862.3059-1.01141.8728-1.4122,1.09875-.519,2.007-.404,2.83984,2.07749,3.67908,3.346,1.132,10.9584,1.0094,14.77981.87109,1.02109-.03711,2.04779-.19983,3.0473-.22363l-.0097,4.02344L24.2943,32.745c.02042.02661.583,1.63562.61542,1.7467.25168.25452.54019.65821.8393.94739.37219.3595.82318.521,1.09808.76953l1.62231.49609,1.11969-.03344,1.38581.00061h6.90442l1.38018-.00147,1.12189.03235c.9375-.63586,3.8129-.23755,3.871-5.1925.03492-2.95264.10291-6.2583-.01239-9.18653,2.02359.04737,4.01581.31556,6.0922.31263,3.18408-.00391,8.84631-.01368,11.78729-.913,2.04663-.626,2.96112-1.39014,2.2464-3.76672-.2395-.13465-.46057-.81812-1.4184-1.09668-1.14349-.33228-5.77557.76819-6.89081.51587a7.19592,7.19592,0,0,1-1.75891.20776l-3.86746.09924-4.22482-.25341c-.76078-.07056-1.48279-.15052-2.234-.22144-.7143-.06714-1.3515-.06311-1.66141-.559-.30411-.10351-.1933-.07007-.29819-.19763l-1.1798-.34033-1.631-.09217-1.25238.00025L36.43221,16.019l-1.24951.00025H33.6715l-1.2662.00085-1.49979-.00024-1.247-.00037Z"/><path class="a64aecb3-7f5d-425f-828c-7a6641fea305" d="M46.87481,32.948a7.57145,7.57145,0,0,0,.4512.816c.21939.34155.41931.43457.582.69849.30051.10437.20441.10034.48072.282.07568.04993.161.09534.22537.13867.0235.01611.09442.06372.1174.0813a.69337.69337,0,0,1,.17712.1582c.37989-.02575.8501.20728,1.33228.245.9252.07226,9.37079.03967,9.86261-.0669.50171-.10888.89691-.37841,1.28381-.43237.09162-.13013.00311-.071.19019-.21973a1.21316,1.21316,0,0,1,.37249-.206,8.64776,8.64776,0,0,0,1.00293-1.56494l.15467.235c.03119.05982.08624.199.1112.26221.08271.208.1272.32483.21369.526a4.15786,4.15786,0,0,0,1.146,1.89221c.37171.30616.63562.294.96845.51453l1.35827-.00854a8.35673,8.35673,0,0,0,1.09021-.58936c.37787-.31152.3606-.60181.69111-.97253.45349-1.77564-.45783-2.89954-1.02362-4.4159-.50428-1.35083-1.1775-2.718-1.69306-4.0946l-.53461-1.29334a23.02735,23.02735,0,0,1-1.06164-2.71252c-.2276-.21375-.0564-.07117-.30188-.17664A15.05579,15.05579,0,0,1,60.324,23.0551a58.80128,58.80128,0,0,1-9.16162.52063c-1.47989-.01661-3.14749-.1576-4.55521-.13221-.082,1.57288-.02328,3.338-.02267,4.932a16.71344,16.71344,0,0,0,.29028,4.57251"/><path class="a64aecb3-7f5d-425f-828c-7a6641fea305" d="M4.45031,22.24724c-.04929.6029-.881,2.10339-1.09781,2.86157l-.57379,1.28943c-.0799.30871-1.10211,2.776-1.2135,2.89965a2.69147,2.69147,0,0,1-.5148,1.17749c-.01529.66871-.841,1.88807-1,2.731a3.20415,3.20415,0,0,0,.10711,1.53089c.44419.52722.2829.72363.96518,1.1698a2.66081,2.66081,0,0,0,1.79151.45617l.44931-.09155c.93258-.54675,1.0137-.29456,1.5625-1.29517a12.334,12.334,0,0,0,.8645-2.10473c.2897.33728.385.79455.84048,1.222.20331.19043.2472.11731.27332.35889a1.80206,1.80206,0,0,1,.30069.16382c.24011.17.10409.06689.1806.17322a5.3479,5.3479,0,0,0,2.00379.5913c.8266.03565,1.7427-.00488,2.58581.00391,1.72571.01782,3.46649-.01184,5.19422-.01306,1.77279-.0105,3.35678-.12549,4.38717-1.65845.08332-.12366.102-.19189.16721-.29284.1542-.239-.08191.0935.0802-.11768.11279-.14685.0357-.06384.15481-.16858a8.01583,8.01583,0,0,1,.28058-1.25549V23.43266c-3.1719.17664-6.18768.16577-9.3407.05017-1.56588-.05749-7.1206-.6123-7.93158-1.36572l-.40991-.07031c-.02209.31884.0221.14624-.1069.20044"/><path class="a64aecb3-7f5d-425f-828c-7a6641fea305" d="M29.6412,1.84794a2.0091,2.0091,0,0,1-.45459.5857L28.013,4.24809c-.05642.5343-.37191,1.21045-.44812,1.92187-.0794.74488.14792,1.7566.05921,2.26539l.4989,1.3142c.14169.16419.39941.73475.5278.93238a8.88684,8.88684,0,0,0,2.43811,2.29651c.44278.12109.76929.33569,1.24609.47546.4105.12048,1.07972.21533,1.40632.303l1.26928.07507.377-.13684c.12051-.02807.273-.04358.3992-.068.2565-.04932.4841-.10974.72592-.179.5307-.15246.90228-.40869,1.3717-.54651a6.34885,6.34885,0,0,1,.862-.63171,7.75415,7.75415,0,0,0,.79538-.76855,8.84985,8.84985,0,0,0,1.24671-1.94056l.3713-1.17895A7.40462,7.40462,0,0,0,41.102,5.245a7.53581,7.53581,0,0,0-.4609-1.29285A6.36956,6.36956,0,0,1,40.0974,2.9019a5.72291,5.72291,0,0,1-.77948-.86572,3.35626,3.35626,0,0,1-.72711-.6919.80531.80531,0,0,1-.40851-.19189c-.00479-.00342-.1318-.10657-.15759-.12976A.82269.82269,0,0,1,37.8756.86271c-.37729-.00879-.92828-.47912-2.014-.70166C32.21282-.58748,30.45251,1.4965,29.6412,1.84794"/><path class="a64aecb3-7f5d-425f-828c-7a6641fea305" d="M10.301,4.904a.98523.98523,0,0,1-.29962.38269,1.17756,1.17756,0,0,1-.38977.29175A18.03281,18.03281,0,0,0,8.58971,7.377a6.09316,6.09316,0,0,0-.3804,2.41613l.14521,1.30713.3013.58533c.09381.23645.18569.40649.27838.64575.15271.13208.58471.8031.85662,1.078.267.26966.7999.65711,1.0644.91395a2.46058,2.46058,0,0,1,.4161.1842,1.1234,1.1234,0,0,1,.17749.11035c.19239.14026.0626.03931.16489.14368a9.95623,9.95623,0,0,1,1.37912.33789,6.89342,6.89342,0,0,0,1.7056.03393l.11569-.04614a5.72379,5.72379,0,0,0,4.74121-6.7229A9.30259,9.30259,0,0,1,19.2055,7.055a4.48248,4.48248,0,0,1-.7764-1.23144c-.2001-.10083-.1463-.057-.20978-.26587A4.42407,4.42407,0,0,1,17.158,4.62785a3.07461,3.07461,0,0,1-.98871-.47156,6.74191,6.74191,0,0,0-3.10418-.379,6.73367,6.73367,0,0,0-1.5372.45618A5.33018,5.33018,0,0,0,10.8767,4.59c-.29108.18677-.29449.26233-.57568.314"/><path class="a64aecb3-7f5d-425f-828c-7a6641fea305" d="M53.25582,3.898a1.45752,1.45752,0,0,1-.70981.29431l-.72479.36048a.62928.62928,0,0,1-.14511.17285l-.4621.3739A12.513,12.513,0,0,0,49.7474,6.81938L49.31091,8.1829c-.15061,1.36792-.15061,3.25867.74459,4.1388-.00109.30591.5607.93994.7302,1.124a2.94053,2.94053,0,0,0,.55282.46131c.2262.1665.4459.27478.47528.416.4386.151.74872.37415,1.1767.51477.30811.10083,1.02469.23071,1.23282.30188a6.55432,6.55432,0,0,0,1.63757-.0437,12.16943,12.16943,0,0,1,1.36634-.33826,1.54491,1.54491,0,0,1,.1726-.1427c.04248-.03076.12976-.08935.17286-.11511a2.002,2.002,0,0,1,.50463-.21777c.11341-.1803.34668-.28382.5105-.42542.2254-.19531.33222-.3175.51727-.49817.40033-.39111.64124-.9447.87793-1.178l.455-1.13757.19672-1.44079-.11231-1.308-.3872-1.38135A13.60707,13.60707,0,0,0,58.5935,5.04545a8.68062,8.68062,0,0,0-1.15-.745,9.65177,9.65177,0,0,0-1.30261-.46631l-1.84314-.08753Z"/></g></g></svg>