<svg xmlns="http://www.w3.org/2000/svg" viewBox="0 0 94.68403 43.68665"><defs><style>.b65dd8bd-c6ab-4b9e-92b1-203c12b87c43{fill:#70706f;}.a2d17fbf-c301-40cd-b92d-3ad94836ea18,.a83ea820-125c-421c-93e8-c5c2ee0eb7ba,.aad6a14a-b34d-472d-ac2b-84b315af066a,.b260ae39-6181-41bb-837c-a9c1f73937c0,.b65dd8bd-c6ab-4b9e-92b1-203c12b87c43,.e4077ccf-ba5a-4d43-8b10-6b748814155a,.e99c3edb-1491-4dd3-be23-c1bef89e4403,.f5a301d9-4710-427d-9b5e-65f3c157fd32{fill-rule:evenodd;}.f5a301d9-4710-427d-9b5e-65f3c157fd32{fill:#e8ebe9;}.a2d17fbf-c301-40cd-b92d-3ad94836ea18{fill:#fbfbfc;}.aad6a14a-b34d-472d-ac2b-84b315af066a{fill:#fff;}.e99c3edb-1491-4dd3-be23-c1bef89e4403{fill:#c0c3c5;}.e4077ccf-ba5a-4d43-8b10-6b748814155a{fill:#3c3e3d;}.b260ae39-6181-41bb-837c-a9c1f73937c0{fill:#212626;}.a83ea820-125c-421c-93e8-c5c2ee0eb7ba{fill:#505760;}</style></defs><title>advantages_04</title><g id="eac01973-c4e5-4827-aa88-de28e2c89f48" data-name="Layer 2"><g id="aad30023-f768-46b6-b353-072ad6cf48dc" data-name="Layer 1"><path class="b65dd8bd-c6ab-4b9e-92b1-203c12b87c43" d="M22.7806,23.08875c.4658.15844.324.44726.7422.93542l.3367.48694c.3183.5116-.3192-.36023.0822.1095.2733.3197.0301-.33936.2795.50366a1.79785,1.79785,0,0,0,.5071.84131c.2401.245.1018.20263.3249.569a2.67114,2.67114,0,0,1,.1511.25415.81851.81851,0,0,1-.0573.63757c-1.3051.04822-2.7683.01685-4.0864.00086a4.14993,4.14993,0,0,0-1.9273.1715c-.9646.65564-.337.34644-.6806.84363-.0984.14234-.0601.002-.25991.23584-.0485.70471-.04739,1.4104-.04419,2.11634.009,2.0194.3004.909.2505,1.826C17.0022,33.0697,1.3555,32.369,0,32.84619c.089.65332.608.4751,1.2501.47107l19.3873.035c1.2591.00671,6.1585-.1864,6.8516.15771a2.22691,2.22691,0,0,1-1.0945,1.18884l-.3282.33533a6.69957,6.69957,0,0,0-.6738,1.10669c-.1485.20715-.0692-.068-.2132.28027l-.2661.75184a4.55057,4.55057,0,0,0,.1309,2.68,6.5751,6.5751,0,0,0,1.2748,2.35791c.0612.0553.049.03125.1411.106l.4442.416c.3288.31629.214.142.5763.3429l.4742.301c.2296.16614.1945.23987.4136.28968l3.1054.02014c.5473-.02918.4337-.13745.712-.2594.4286-.18787.5848.06408.9658-.36194l.8852-.81921c.4332-.38721.3124-.19507.4471-.5293l.1899-.34436a6.61828,6.61828,0,0,0,.8172-2.79834c.0717-.67017.1355-.39624.237-.79688.0822-.32422-.0045-.60852.127-.91125.1275-.29346.2095-.19592.3291-.661.1137-.44226.7455-1.8794,1.2158-1.96387l2.065.77063c.0193.01.042.02026.0618.02954.5814.27124.1877.12988.8609.57691.2129.14172-.2999.13012.4028.17114a1.25681,1.25681,0,0,0,.0153.26843,3.4906,3.4906,0,0,0,.8447,1.4176l.3799.28406c.0116.01111.0286.02954.0399.04114s.0272.03088.0383.04309c.0116.0127.0269.03259.0385.04529a2.90316,2.90316,0,0,0,1.6552,1.07178,8.04272,8.04272,0,0,0,2.9217.072,7.11287,7.11287,0,0,0,2.1019-1.0437l1.3603-1.77381.3827-1.52392c.0757-1.62159.16889-.821.3118-1.531,0-.001-.0187-.80249.5377-.47119.1457.08642.167.17749.2846.312a1.174,1.174,0,0,0,.7628.45618,3.9911,3.9911,0,0,0,1.1665-.04676c.3778-.09753.4615-.33813.9085-.29394a1.25184,1.25184,0,0,1,.1386-.277.98949.98949,0,0,1,.1517-.19787,1.49431,1.49431,0,0,1,.3387-.24793c.4184-.17956,18.2452-.07458,18.8878-.07544,2.20559-.00256,19.63589.17713,20.1645-.08423l.0128-.45923c-1.0261-.202-9.3838-.08337-11.7113-.08068-.28441.00048-.567.00244-.851.00647-.8175.01159-.7305-.037-.7288-.819L80.943,22.1593a30.40849,30.40849,0,0,0-.0309-3.11938,9.18023,9.18023,0,0,0-2.95621.07019c-.23419.21789-.10488,5.99805-.10488,6.26611,0,2.02344.10089,4.32434-.01812,6.32044L76.72,31.68872l-.0318-7.41345c.00661-.55786.0811-.83386-.1389-.87976-.09919-.19348.14521-.07263-.2863-.13416L75.0733,23.26c-.28121-.00061-1.23641-.08826-1.41561.1156-.2724.309-.00029,6.48-.07649,7.76319a1.33138,1.33138,0,0,1-.0295.23474c-.0334.15967-.0213.19763-.2013.24634-.0212.00573-.045.01477-.0694.01989l-.56441-.004c-.7753-.16638.1582-2.49878-.41209-2.72778a9.96919,9.96919,0,0,0-2.5441-.03967c-.21181.92041.1873,2.02075-.2529,2.708-.94189.05688-.9167-.01685-1.027-.88709l-2.55369.02612c-.0763.48609-.1483.83484-.6619.822a20.3244,20.3244,0,0,0-2.6359.16931c-2.2666-.00489-5.2725.08728-7.333-.01856-.1998-.33154-.4671-1.58874.4745-1.86316.1936-.045-.0048.00745.1027-.05981a.97906.97906,0,0,1,.5677-.21057c.3062-.02722.7838.00744,1.1081.01245.9493.01562,1.1398.04309,1.6461-.43054a3.28316,3.28316,0,0,0,.6026-2.52637c-.144-.47669-.0147-.142-.20661-.3169-.91959-.83752-1.82779-2.03747-.57089-3.001.3849-.295.9071-.59863,1.0803-1.05786a3.07756,3.07756,0,0,1,.1292-.37305c.1202-.25732.159-.04395.1435-.46033l-.37-1.25183c-.0861-.2052-.108-.14709-.2103-.30847-.2735-.42993-.0023-.396-.5576-.56348a8.71491,8.71491,0,0,0-1.8592-.26355,1.24129,1.24129,0,0,1-1.1163-1.00317c-.1828-1.32043.5338-2.59949-.9867-3.30078a2.382,2.382,0,0,0-.7722-.34375c-1.3439-.17517-1.6328.43786-2.497,1.23254a1.91226,1.91226,0,0,1-1.4817.162l-.4459-.4408c-.1681-.14782-.1029-.09082-.2208-.27063a2.75255,2.75255,0,0,0-1.37-1.18261,2.30306,2.30306,0,0,0-1.4873.2832c-.4116.23157-.36881.0697-.6738.42175-.631.72827-.3277,1.51343-.5324,2.35767-.1375.56653-.0612.34241-.3846.62732-.3623.31921-.6044.70691-1.2666.5581a3.57188,3.57188,0,0,0-1.4065-.11731c-.419.08973.0332-.04748-.3388.17456-.4419.26417-.5964.10291-.95921,1.00574a3.90656,3.90656,0,0,1-.13749.37049c-.9606,1.8927,1.4899,1.81274,1.2495,3.88452-.0527.45556-.3206.59106-.5984.81982-.0453.03772-.1182.09619-.14141.11487-.42889.34912-.97939.64258-1.06329,1.2572a6.49375,6.49375,0,0,0,.0199,1.02381,3.67665,3.67665,0,0,0,.657,1.391c.6375.46252,2.3378.01245,1.4256,1.01l-1.3414,1.27441c-.2568.24805.0201.17542-.4249.25537-.2134-.48584-.0181-.59241-.0054-1.06348.0153-.573-.21-.43579-.3041-.92919a13.34486,13.34486,0,0,1-.3912-2.1941c-.3504-.12048-.22711-.01184-.3529-.34094-.0661-.17273.0073-.07324-.091-.257l-.8836-1.1394a6.0298,6.0298,0,0,0-1.2379-1.042,2.5179,2.5179,0,0,0-.6131-.22852,9.02553,9.02553,0,0,0-3.024-.17261,3.89807,3.89807,0,0,0-1.8624.81092c-.013.01135-.0292.03125-.0419.04223-.2058.17688-.3118.15113-.4162.06861-.3798-.29993-.5683-.96924-1.1701-1.86084L27.8765,17.2898c-.2543-.37329-.2197-.55774-.4873-.8628l-.3625-.5697c-.0692-.12988-.1004-.209-.1775-.33362l-1.2075-2.19214a3.66271,3.66271,0,0,0-.1432-.43225l-.6284.009a2.24962,2.24962,0,0,1-.2021.24182l-.3068.2832-.0433.04419-1.5358.93909c-.2713.11438-.0817.19629-.28241.29345-.70809.05213-.89339.216-1.36.26587a4.475,4.475,0,0,1-2.1668-.38073l-.8669-.48633a1.1943,1.1943,0,0,0-.8665-.34363.96312.96312,0,0,0,.3396.61878c.3138.34252.6715,1.2915,1.0306,1.76123.3929.51355.6656,1.19592,1.0843,1.70666.2543.31043.14.2467.31689.61231a11.46716,11.46716,0,0,0,.75231,1.10717c.1415.22888.1817.35279.3249.60669a20.38681,20.38681,0,0,1,1.0247,1.77429,11.59919,11.59919,0,0,1,.6678,1.13636"/><path class="f5a301d9-4710-427d-9b5e-65f3c157fd32" d="M41.7033,35.874l.2945.129c.2554.28626-.0527.32373.8547,1.10157a3.03337,3.03337,0,0,0,1.3379.68481,3.70563,3.70563,0,0,0,3.0637-.20776l1.3408-1.17835a.81057.81057,0,0,0,.1726-.24658,2.761,2.761,0,0,0,.5794-1.63452c.0655-.52869.1812-.614.2285-1.18689a15.51384,15.51384,0,0,1,.6937-2.27478c.11959-.43164.1465-.25818.2494-.43335.1055-.17944.0757-.32178.2092-.55591l.5394-.89831a8.46878,8.46878,0,0,1,1.6203-2.02979l.2038-.20532c.0108-.01331.0244-.0343.0352-.04785,1.08-1.36328,1.3844-1.53589,1.3827-3.3761a3.73917,3.73917,0,0,0-1.368-2.78552l-.3019-.21155c-.2228-.21033.0581-.0354-.2585-.23255a4.24175,4.24175,0,0,0-2.5237-.52282c-.3033.071-.4663.15527-.8147.21167-.5881.095-.8869.47448-1.3305.70214-.15651.08-.0366-.0028-.1653.08277l-.1681.15173c-.0102.01123-.0278.02991-.0377.04151a7.38657,7.38657,0,0,0-.8651,1.66858c-.1284.6029-.2121,1.1466-.3453,1.77587a8.18637,8.18637,0,0,1-.2089.8053,4.84783,4.84783,0,0,1-.2098.80847c-.5431,1.1095-.0567.44678-.51731,1.27222L43.9084,29.687a10.91831,10.91831,0,0,1-1.2132,1.40223c-.1979.155-.43.17663-.5519.45324-.5894,1.33655-.7379,1.205-.741,2.46839-.0031,1.24133.01809.81054.212,1.21948.0097.02075.0213.04053.0301.06323a1.57874,1.57874,0,0,1,.0589.58045"/><path class="a2d17fbf-c301-40cd-b92d-3ad94836ea18" d="M30.0345,42.20447c1.6552.00049,2.0228.064,3.3072-1.50488l.6199-1.24951c.0596-.26624.0593-.59729.1012-.91456.072-.54138.5664-2.10559.5808-2.23474a5.78484,5.78484,0,0,1,.8544-2.077c.3929-.50232.3229-.65845.8175-1.29773l1.2064-1.417a6.01725,6.01725,0,0,0,.9547-1.01062l.72-1.73414a2.525,2.525,0,0,0-.1312-1.32116,3.39239,3.39239,0,0,0-1.5001-2.3197c-.0213-.01612-.1312-.09351-.1511-.10572l-.1117-.06091a3.43132,3.43132,0,0,0-1.9346-.60779,3.00512,3.00512,0,0,0-2.1317.66272,3.41291,3.41291,0,0,0-1.4899,1.40173l-.4648,1.49927c-.18851,2.35242-.3923,1.40479-.7385,3.07923-.1527.73962-.3486.353-.7738,1.47937L28.931,33.9242c-.0119.01526-.0287.03369-.04.05017-.0119.01672-.0258.03772-.0366.05554-.2216.36133.0885.057-.3914.5238-.0131.01245-.0301.03125-.0428.04395-.3464.34643-.4439.30786-.6696.705-.1978.34815.0031.09644-.2029.28-.8757.78015-.3155.33484-.7314.88257l-.4478.74915a2.55158,2.55158,0,0,0-.1038.94494,2.76034,2.76034,0,0,0,.233,1.666c.1508.297.0811.40369.2509.68481a3.12713,3.12713,0,0,0,1.5718,1.40577c.6517.36279.7909.28625,1.7141.28857"/><path class="aad6a14a-b34d-472d-ac2b-84b315af066a" d="M33.5086,5.55982c-.2709.00879-6.2268-.11133-6.44171.08191a.555.555,0,0,0-.05809.56408c.1148.32825.1338.03858.2208.54309a9.82906,9.82906,0,0,1,.0281,2.92237c-.1279.55664-.3526.337-.2648,1.13354l6.5126-.00549c.2693.2688.2191.47168.5715.7074a1.63234,1.63234,0,0,0,1.3756.37548c.41839-.00048.8612.01734,1.2748.0055.6131-.01734.4839-.20581,1.01109-.26148.28661.05359.94371,1.00354.99521,1.06958l.984,1.21912c.2953.29346.1459-.10791.3058.37427.2024.61108.46689,1.2622,1.3408,1.08557a2.72848,2.72848,0,0,0,.76789-.42224l.80331-.47412c.2316-.1521.118-.03028.3581-.22815.1216-.1.1737-.15625.3157-.2721l3.3033-2.20654a3.33947,3.33947,0,0,0,.6409-.44324c.0119-.01257.02829-.032.0402-.0448a1.3172,1.3172,0,0,0,.5173-1.39978c-.394-.26367-.2565-.40979-.799-.45837-.764-.068-.8873.17724-1.3853.515-.1659.11231-.2736.14551-.432.247L43.48009,11.4867c-.24069.13171-.08649.1344-.37079.29651-.2194.12512-.1596.036-.394.20019l-.7827.5741a4.1817,4.1817,0,0,0-.3639.26758L38.3964,9.1388c-.3186-.34119-.197-.9657-.1967-1.4563.0006-1.99256-.1638-1.3147,1.2722-3.00879a6.39646,6.39646,0,0,1,.4606-.55383c.9666-.98023,1.2186-2.10022,1.8817-1.53333l.3676.22986c.0199.01452.0731.06189.0924.07739.3816.30811.8031.47595,1.1843.76343l.3833.29028c.5091.45154,1.1228.7052,1.6387,1.15222l.887.56043c.5553.32776.9782.32971,1.3736-.26563.0224-.03393.1256-.20239.1262-.20312a.711.711,0,0,0-.0641-.88245l-.8847-.6449a5.168,5.168,0,0,0-.4218-.3413,6.52824,6.52824,0,0,0-1.4252-.89441l-1.00461-.64307c-.01419-.01257-.03259-.03015-.04769-.04236-.0201-.01611-.0864-.0603-.108-.07471L42.7241.89551C42.1067.59046,41.3062-.27868,40.5009.08924c-.6228.2843-.3113.47509-.5746.99438a6.27853,6.27853,0,0,1-1.044,1.2251l-1.1608,1.2135c-1.1503,1.56335-1.0868.95-2.7828,1.0918-.3571.02966-.2883.06652-.5598.20678a2.13027,2.13027,0,0,0-.8703.739"/><path class="f5a301d9-4710-427d-9b5e-65f3c157fd32" d="M42.4772,20.46607c.3506.52356,1.3362,1.00146,1.3731,2.36633a2.92112,2.92112,0,0,1-1.1869,2.5553l-.1417.115c-.0961.0791-.0902.07629-.1826.14624-.1672.12707-.2432.06323-.3308.375-.07761.27759.0822.52087.19849.79712.12811.30529.65991.2257.94981.22851a5.79418,5.79418,0,0,0,.9315-.04455c.0839-.12061.0227-.01331.0967-.18677.0195-.04553.0465-.13074.0706-.19043a2.096,2.096,0,0,1,.2038-.37878c.1777-.3606.0652-.80494.1817-1.031.20579-.39844.2712.019.2843-.85938a1.99384,1.99384,0,0,1,.199-.93884c.1692-.42688.0521-.93249.3007-1.38049a5.68965,5.68965,0,0,1,.6475-1.1117,8.272,8.272,0,0,1,.5102-.6759l1.2484-1.01648c.2131-.103.1987-.11279.337-.18188.1956-.09754.2597-.078.4374-.16223.4516-.214.091-.273.8133-.32,2.815-.18372,2.11549-.08191,3.7012.71423a4.874,4.874,0,0,1,1.2526,1.05054c.7038.72632.4867.6228.9037,1.403.28.524.1122.28968.2423.88636.09129.41845.341.30078.1684.94055-.2645.97937-.0229,1.92492-.6426,2.86157-.0734.11084-.146.22217-.2356.3512l-.5666.62341c-.0624.07312-.0743.09009-.1131.13623l-.8527.93579a14.04438,14.04438,0,0,0-1.296,1.91052c-.2724.49866-.3532.158-.3189.83338.7447.5188.9051,1.35583,1.6963.90539l.4034-.22815a6.66628,6.66628,0,0,1,.2786-1.99084,5.73572,5.73572,0,0,1,.7594-1.10974c.2619-.36963.1239-.20923.5992-.39026.32059-.12256.2359-.2356.7158-.27893.6831-.06128,1.438.07593,2.1121-.0199.1471-.21887.0765-.21094.2041-.41894.5006-.816.1128-.51233-.8442-1.84229a2.1731,2.1731,0,0,1-.352-1.96887,2.39907,2.39907,0,0,1,.6477-1.20813,6.4906,6.4906,0,0,1,.9589-.82825c.0193-.01562.0791-.05591.0967-.07287a1.03668,1.03668,0,0,0,.1281-.984c-.3024-.82459-1.0669-.31458-1.9199-.56995a3.171,3.171,0,0,1-1.1593-.54883c-.019-.01648-.0757-.06408-.0939-.08166l-.0859-.08985c-.9-1.00659-.2435-.12072-.6956-1.08642-.3407-.7284.0845-1.94348-.0842-2.27515a1.81437,1.81437,0,0,0-.8773-.489.9875.9875,0,0,0-.7897.381c-.0125.01221-.0295.03088-.0417.04333l-.4635.46656c-.0402.03186-.1666.12317-.19811.14355a2.97633,2.97633,0,0,1-2.16909.27625c-2.0041-.44666-1.546-2.39661-3.0211-1.56836-.6804.38208-.3127,1.40771-.4369,2.115-.0612.34887-.0666.16406-.2225.4563l-1.2095,1.228c-.5811.46741-1.9015.00086-2.5305.13636a.71746.71746,0,0,0-.5448.5133,1.07305,1.07305,0,0,0-.0448.63355"/><path class="e99c3edb-1491-4dd3-be23-c1bef89e4403" d="M55.7705,29.825c-.9416.27442-.6743,1.53162-.4745,1.86316,2.0605.10584,5.0664.01367,7.333.01856a20.3244,20.3244,0,0,1,2.6359-.16931c.5136.01281.5856-.33594.6619-.822l2.55369-.02612c.11031.87024.08512.944,1.027.88709.4402-.68726.04109-1.7876.2529-2.708a9.96919,9.96919,0,0,1,2.5441.03967c.57029.229-.36321,2.5614.41209,2.72778l.56441.004c.0244-.00512.0482-.01416.0694-.01989.18-.04871.1679-.08667.2013-.24634a1.33138,1.33138,0,0,0,.0295-.23474c.0762-1.28321-.19591-7.45423.07649-7.76319.1792-.20386,1.1344-.11621,1.41561-.1156l1.18969.00134c.43151.06153.18711-.05932.2863.13416.22.0459.14551.3219.1389.87976l.0318,7.41345,1.1129.00794c.119-1.9961.01812-4.297.01812-6.32044,0-.26806-.12931-6.04822.10488-6.26611a9.18023,9.18023,0,0,1,2.95621-.07019,30.40849,30.40849,0,0,1,.0309,3.11938l.0006,8.72242c-.0017.782-.0887.83056.7288.819.284-.004.56659-.006.851-.00647,2.3275-.00269,10.6852-.12134,11.7113.08068l-.0128.45923c-.52861.26136-17.95891.08167-20.1645.08423-.6426.00086-18.4694-.10412-18.8878.07544a1.49431,1.49431,0,0,0-.3387.24793.98949.98949,0,0,0-.1517.19787,1.25184,1.25184,0,0,0-.1386.277c.6678.05163-.0057-.33618.8838-.413,1.1568-.09961,7.4089-.0066,8.7279-.00721l29.9693.01392.5624-.47644c.00709-1.29236-1.29061-1.00012-2.50951-.98364-3.56878.04821-7.1978.09521-10.75889-.0326a13.94846,13.94846,0,0,1-.1009-2.96277l.00139-6.18017a28.80952,28.80952,0,0,0-.02209-3.09143,14.3606,14.3606,0,0,0-3.2225-.16895,5.83442,5.83442,0,0,0-.0351-3.09143,6.30841,6.30841,0,0,0-2.08011.21765c-.02209.00574-.04309.01343-.066.01868-.69.16162-1.033.27478-.9496,1.173l.604.25684a.546.546,0,0,1,.06889.02917,1.17607,1.17607,0,0,1-.413.88709,4.74367,4.74367,0,0,0-.60091.6499l-.05809.10852c-.01.01685-.0202.03955-.0307.05652a6.10845,6.10845,0,0,1-.93789,1.02722c-.01281.01282-.0298.0315-.04281.044-.0505.0487-.08821.07934-.1389.12366-.3694.324-.4096.678-.944.74206a1.168,1.168,0,0,1-.6763.93945l-.872.66809c-.3824.22168-.18449.28174-.7146.56348l-.39169.33826a1.88707,1.88707,0,0,1-.18851.16015l-.546.54053c-.189.16162-.40051.28284-.6293.47278l-2.48,1.87537a16.782,16.782,0,0,0-2.1271,1.21582c-.62991.34362-.9913.35888-.91821,1.25659.37311.30017.53241.366,1.12621.12475.3133-.12756.199-.16272.4709-.28479.2242-.101.4068-.1029.5791-.19311l1.3912-.87537c.5018-.30322.86971-.72912,1.3561-1.02075.61689-.37024,1.1631-.95276,1.77-1.34729a4.86952,4.86952,0,0,0,1.31329-1.06079l.5672-.37549a5.73946,5.73946,0,0,0,.7724-.73645l.3972-.21179c.3172-.22363.8501-.897,1.16471-1.19446l.7384-.78808a1.97214,1.97214,0,0,0,.3167-.43873c.3143-.4635.7744-.82922,1.11509-1.25292.3566-.44336.2903-.54542.86911-.80591.49891.40185.525.25415.8014.485-.1619,2.5979.0099,7.52234.002,10.58264a3.2582,3.2582,0,0,1-.12619,1.51673l-.3982-.02332c-.2759-.79248-.00631-6.36938-.10581-7.84314-.69108-.38293-.66719-.27185-1.61229-.27771-1.7323-.01172-2.0475-.39746-2.03331,1.03943l.00171,7.28162h-.6781c-.25171-.783.0454-1.90943-.1692-2.709a6.53671,6.53671,0,0,0-2.89051.06909c-.38179.5-.08639,1.718-.15638,2.386a1.10127,1.10127,0,0,1-.76232.02881c-.00419-.87708-.27409-.70667-1.10069-.7063a8.54231,8.54231,0,0,0-1.866.08789l-.1605.61243a59.66544,59.66544,0,0,1-7.7215.02868,9.993,9.993,0,0,1-2.5456-.00109,1.22694,1.22694,0,0,1,.2223-.944,3.03127,3.03127,0,0,0,.2185-.41529"/><path class="e4077ccf-ba5a-4d43-8b10-6b748814155a" d="M25.2323,8.106c-.0051-1.3678-.0357-.65735-.3832-1.92334a5.27091,5.27091,0,0,0-1.7796-1.86841l-.57-.3562a4.20349,4.20349,0,0,0-2.0316-.29346c-1.5118.01587-1.2875.15845-1.8706.44165a2.77756,2.77756,0,0,0-.7353.37879l-.5746.60486c-.2838.24939-.3473.24011-.5516.56a4.10862,4.10862,0,0,0-.7331,2.7948,2.01532,2.01532,0,0,0,.1497,1.01416c.1352.20545.1261.08558.1984.35828.2804,1.05994.0615-.03442.3898.70874l.1386.30811a1.88578,1.88578,0,0,0,.6639.71435,3.45676,3.45676,0,0,0,2.2297,1.15393c1.2798.21656.4859.23389,1.9624-.0249a2.20477,2.20477,0,0,0,.8626-.32056c.9145-.50915.62019-.23816,1.3266-.96557A3.91436,3.91436,0,0,0,25.2323,8.106"/><path class="b260ae39-6181-41bb-837c-a9c1f73937c0" d="M78.1892,19.4502l.01329,11.09021c.00881.56787-.157.34753.0876.84875l2.4559-.00061V19.1958l-2.158.01624c-.356.08362-.10831.10034-.39881.23816"/><path class="f5a301d9-4710-427d-9b5e-65f3c157fd32" d="M19.6926,5.28858a2.35224,2.35224,0,0,0-1.6081,1.29c-.09131.13659-.1707.13574-.275.40307-.0796.2041-.074.40308-.1457.62622-.1698.52808-.1584.502.0142,1.31861.0298.14038.0998.47033.1318.55529.2106.55848.0068,0,.3926.45691.2234.2649.1157.239.4561.49951.1633.125.0686.02552.2095.18543a1.26135,1.26135,0,0,0,1.002.50171c1.8941.12134,1.3176-.0918,2.2179-.34778.356-.10156.2653-.09412.517-.46631.2117-.31323.0547-.06128.305-.256.7642-.59448.6021-1.88586.4998-2.72327A2.557,2.557,0,0,0,21.151,5.20239a4.77693,4.77693,0,0,0-1.4584.08619"/><path class="e4077ccf-ba5a-4d43-8b10-6b748814155a" d="M34.1799,25.71509c-1.1444.67041-.313-.11548-1.0622.62952a2.76581,2.76581,0,0,0-.7228,3.017c.4368.84436.3708,1.04883,1.247,1.6355a3.04257,3.04257,0,0,0,2.8471.15027l.2253-.1228c.2795-.15186.0686.01452.271-.28284l.0737-.10486a2.51248,2.51248,0,0,0,.9176-1.6311,4.26512,4.26512,0,0,0-.0575-1.35156,3.97936,3.97936,0,0,0-.4592-.98645c-.0102-.01355-.0267-.0326-.0372-.0459l-.1219-.13037c-.756-.78919-.48021-.311-1.0768-.70215-.2895-.18994-.1183-.15332-.5953-.16956a3.32549,3.32549,0,0,0-1.4488.09534"/><path class="e4077ccf-ba5a-4d43-8b10-6b748814155a" d="M30.1193,41.52893a2.81767,2.81767,0,0,0,2.8091-2.94885,2.581,2.581,0,0,0-.5309-1.60046c-.1883-.21546-.1528-.352-.5114-.59388a1.34825,1.34825,0,0,0-.22221-.12329,2.34616,2.34616,0,0,0-1.71559-.5675,3.07962,3.07962,0,0,0-2.3332,1.218c-.0294.0559-.0623.14514-.1122.22912-.0703.11878-.1417.19531-.1709.25a4.16826,4.16826,0,0,0,.0246,2.51892c.0924.11609.2064.24219.3104.36109a2.25428,2.25428,0,0,0,1.2379.96411c.5899.25732.2191.29358,1.2144.29272"/><path class="e4077ccf-ba5a-4d43-8b10-6b748814155a" d="M44.8427,31.27979c-1.336.2976-.6599.09778-1.495.79883-.0153.01293-.036.02795-.0505.04187l-.0836.09948c-.0263.03284-.0839.13147-.0983.15076l-.0358.04419c-.0102.01282-.0277.02954-.0382.04236-.0111.01294-.0298.02942-.0408.04272l-.4465.72717a2.66168,2.66168,0,0,0,.2475,2.2439,3.19236,3.19236,0,0,0,.6562.77808,2.78526,2.78526,0,0,0,2.7944.51758c.6386-.34327.2559.03967.7682-.41553.0122-.01087.0297-.02869.0425-.03919.013-.01049.0334-.02514.0468-.03564a2.67764,2.67764,0,0,0,1.0063-2.69287c-.0216-.58069-.0825-.427-.2557-.80054-.4873-1.05115-.6874-.94678-1.22431-1.24048a2.32471,2.32471,0,0,0-1.79319-.26269"/><path class="e4077ccf-ba5a-4d43-8b10-6b748814155a" d="M50.1358,21.17029a2.81529,2.81529,0,0,0-1.8791.92627,1.27787,1.27787,0,0,0-.4906.98816,4.2792,4.2792,0,0,0,.2985,2.55835,3.00582,3.00582,0,0,0,2.8479,1.207,3.49814,3.49814,0,0,1,.5298-.15576l.8955-.51282a3.30514,3.30514,0,0,0,.9734-2.5741,4.97328,4.97328,0,0,0-.6372-1.41272l-.2809-.21289c-.0119-.01159-.0278-.031-.04-.0426a2.119,2.119,0,0,0-2.2173-.76892"/><path class="b260ae39-6181-41bb-837c-a9c1f73937c0" d="M76.54929,23.39551l-2.7462.03455c-.16829.94165-.19639,7.378.1698,8.04211.4516,0,.91141.00989,1.36151.00537.6557-.00647.85129-.4198,1.0936-.00537Z"/><path class="a83ea820-125c-421c-93e8-c5c2ee0eb7ba" d="M63.3903,28.81275c.163.11792-.1581.05444.25769.08776.49611.04.63471-.25927.88561-.4143l.1099-.06128.0545-.03394c.0156-.01025.0357-.02551.0513-.036.015-.01.0343-.02612.0487-.036s.0335-.02612.0479-.03576a17.77885,17.77885,0,0,0,2.5606-1.51514c.7444-.63184,1.6687-1.16052,2.6492-1.99976l2.5549-2.1936c.88871-.878,1.4117-1.31006,2.2414-2.24561.1598-.18017.187-.20031.37379-.38574L76.2645,18.61c.41069-.44275.30269-.70508.94809-.70044.14261.33667.03751.34668.24781.67212a.69012.69012,0,0,0,.53379-.18262,2.83653,2.83653,0,0,0-.40739-2.38757,11.60017,11.60017,0,0,0-2.18691.48669c-.12669.0658-.30809.34216-.1239.53723.29511.31238,1.4933-.17187.79291.6947l-.81531,1.0625c-.1261.1698-.2395.30091-.3784.4629l-5.0916,4.88623L67.3926,25.907c-.1077.07813-.20579.11853-.3212.18848-.7855.4762-.18341.31287-1.1032.74658-.1633.07679-.3765.25367-.5672.37427l-.4335.246c-.2253.14234-.032.01453-.1522.11133-.4127.33313-1.3226.688-1.4349.85706-.2304.34692-.03741.30066.0099.38208"/><path class="f5a301d9-4710-427d-9b5e-65f3c157fd32" d="M34.7737,26.90015a2.0603,2.0603,0,0,0-.9561.65625,1.77857,1.77857,0,0,0-.18821,1.41308c.14231.52124.43541.66443.80671.90394.2095.13488.0488.01733.239.18591.10151.09.0774.11938.22171.15686a1.83651,1.83651,0,0,0,.90419-.18006,2.2927,2.2927,0,0,0,.22621-.18847l.451-.39356c1.1234-1.55151-.8603-3.04406-1.7045-2.554"/><path class="f5a301d9-4710-427d-9b5e-65f3c157fd32" d="M29.3006,37.08472a1.95783,1.95783,0,0,0-.8954,1.50354c-.0057.47534.0827.34607.2239.6333.1511.30811.3268.77917.73159.872a2.527,2.527,0,0,0,1.5075-.08789c.39991-.24207-.31349.2395.09611-.07227a1.64867,1.64867,0,0,0,.3614-2.38171,1.39807,1.39807,0,0,0-1.2903-.587,1.18073,1.18073,0,0,0-.7348.12012"/><path class="f5a301d9-4710-427d-9b5e-65f3c157fd32" d="M49.9536,22.42688a1.68144,1.68144,0,0,0-.9128.70862c-.2364.26953-.1851.0592-.2214.54089a1.57033,1.57033,0,0,0,.3546,1.27076,1.541,1.541,0,0,0,1.7535.56774,1.619,1.619,0,0,0-.9739-3.088"/><path class="f5a301d9-4710-427d-9b5e-65f3c157fd32" d="M44.9348,32.4801c-.4229.21412-.5196.02442-.9451.67041a1.54865,1.54865,0,0,0,.3714,2.19739,2.033,2.033,0,0,0,2.0347-.04419,1.46473,1.46473,0,0,0,.3725-.4657c.4317-.88269.3265-1.00939-.1046-1.71032-.2469-.40149-1.15-.94092-1.7289-.64759"/><path class="e4077ccf-ba5a-4d43-8b10-6b748814155a" d="M20.376,6.73364c-.3869.08838-.26621-.00854-.56381.20337A1.30119,1.30119,0,0,0,19.1381,8.5011a1.55065,1.55065,0,0,0,1.8397,1.20837.61362.61362,0,0,0,.2801-.06286,1.63109,1.63109,0,0,0,.6355-.5343,1.816,1.816,0,0,0,.2404-1.24878A1.77363,1.77363,0,0,0,21.0121,6.7107c-.3733-.11658-.3852-.03431-.6361.02294"/></g></g></svg>