<svg width="512" height="512" viewBox="0 0 512 512" fill="none" xmlns="http://www.w3.org/2000/svg">
<path fill-rule="evenodd" clip-rule="evenodd" d="M404.23 256.007C404.23 174.265 337.752 107.762 255.98 107.762C174.257 107.762 107.73 174.265 107.73 256.007C107.73 337.745 174.257 404.257 255.98 404.257C337.753 404.258 404.23 337.745 404.23 256.007ZM456.063 256.007C456.063 366.32 366.293 456.06 255.981 456.06C145.668 456.06 55.9478 366.32 55.9478 256.007C55.9478 145.695 145.668 55.9499 255.981 55.9499C366.293 55.9499 456.063 145.695 456.063 256.007ZM6.16475 308.579C-0.583247 302.616 -1.93225 293.125 2.81575 285.507L29.6568 242.691C35.0548 234.074 36.4538 224.347 33.7048 214.56L20.0098 165.928C17.6098 157.271 21.5588 148.554 29.7058 144.725L75.3908 123.207C84.5878 118.874 91.0358 111.446 94.0348 101.729L108.83 53.4209C111.429 44.8239 119.527 39.6449 128.423 40.8199L178.506 47.4279C188.603 48.7579 198.049 45.9879 205.797 39.4209L244.334 6.78194C251.182 0.978938 260.779 0.978938 267.626 6.78194L306.213 39.4209C313.96 45.9889 323.407 48.7579 333.504 47.4279L383.587 40.8199C392.484 39.6449 400.531 44.8279 403.181 53.4209L417.976 101.729C420.975 111.446 427.373 118.878 436.569 123.207L482.304 144.725C490.451 148.554 494.4 157.271 492.001 165.928L478.306 214.561C475.557 224.353 476.956 234.08 482.354 242.692L509.145 285.508C513.943 293.125 512.594 302.617 505.846 308.58L468.059 342.099C460.462 348.851 456.363 357.788 456.263 367.95L455.663 418.473C455.563 427.465 449.265 434.707 440.419 436.082L390.486 443.859C380.439 445.423 372.192 450.737 366.594 459.229L338.754 501.41C333.806 508.907 324.609 511.607 316.412 507.968L270.227 487.525C260.924 483.405 251.112 483.396 241.787 487.525L195.603 507.968C187.356 511.607 178.159 508.908 173.21 501.41L145.419 459.229C139.821 450.737 131.574 445.424 121.527 443.859L71.5938 436.082C62.6968 434.707 56.4488 427.465 56.3488 418.473L55.7488 367.95C55.6488 357.788 51.5508 348.851 43.9528 342.099L6.16475 308.579ZM255.98 90.6979C347.149 90.6979 421.324 164.853 421.324 256.007C421.324 347.166 347.149 421.321 255.98 421.321C164.861 421.321 90.6858 347.166 90.6858 256.007C90.6858 164.853 164.861 90.6979 255.98 90.6979ZM72.9918 256.007C72.9918 155.106 155.114 73.0189 255.98 73.0189C356.896 73.0189 438.968 155.106 438.968 256.007C438.968 356.913 356.896 438.995 255.98 438.995C155.114 438.996 72.9918 356.914 72.9918 256.007ZM342.951 209.648L238.186 314.433C234.892 317.742 229.466 317.774 226.14 314.433L169.059 257.347C165.71 254.018 165.71 248.615 169.059 245.281C172.358 241.952 177.756 241.952 181.105 245.281L232.138 296.334L330.905 197.582C334.254 194.253 339.652 194.253 342.951 197.582C346.3 200.916 346.3 206.319 342.951 209.648Z" fill="white"/>
</svg>
