<svg width="460" height="191" viewBox="0 0 460 191" fill="none" xmlns="http://www.w3.org/2000/svg">
<path d="M87.2666 135.703L80.513 136.846L76.8703 115.34L70.5651 118.403L69.6984 113.286L81.7181 106.706L82.3375 106.601L87.2666 135.703Z" fill="white"/>
<path d="M114.223 118.903C114.889 122.834 114.516 126.015 113.106 128.448C111.709 130.877 109.405 132.364 106.195 132.908C102.958 133.456 100.272 132.808 98.137 130.962C96.0018 129.117 94.6038 126.243 93.9425 122.338L93.042 117.022C92.3761 113.091 92.7417 109.911 94.1392 107.481C95.5495 105.049 97.8667 103.56 101.09 103.014C104.314 102.468 106.993 103.117 109.128 104.962C111.263 106.808 112.662 109.689 113.326 113.607L114.223 118.903ZM106.444 113.868C106.089 111.776 105.552 110.263 104.832 109.329C104.11 108.383 103.156 108.01 101.97 108.21C100.812 108.407 100.047 109.03 99.6766 110.079C99.3197 111.127 99.2859 112.626 99.5755 114.578L100.835 122.014C101.203 124.186 101.746 125.732 102.463 126.652C103.179 127.559 104.129 127.912 105.314 127.711C106.46 127.517 107.223 126.887 107.605 125.822C107.984 124.744 108.003 123.157 107.662 121.063L106.444 113.868Z" fill="white"/>
<path d="M137.921 114.889C138.587 118.82 138.215 122.002 136.804 124.434C135.407 126.863 133.103 128.35 129.893 128.894C126.656 129.442 123.97 128.794 121.835 126.949C119.7 125.103 118.302 122.229 117.641 118.324L116.74 113.008C116.074 109.077 116.44 105.897 117.837 103.467C119.248 101.035 121.565 99.546 124.788 99C128.012 98.454 130.691 99.1035 132.826 100.949C134.961 102.794 136.361 105.675 137.024 109.593L137.921 114.889ZM130.142 109.854C129.787 107.762 129.25 106.249 128.53 105.315C127.808 104.369 126.854 103.996 125.669 104.197C124.51 104.393 123.745 105.016 123.375 106.066C123.018 107.113 122.984 108.613 123.274 110.565L124.533 118C124.901 120.172 125.444 121.718 126.161 122.638C126.877 123.545 127.827 123.898 129.013 123.697C130.158 123.503 130.922 122.874 131.303 121.809C131.682 120.73 131.701 119.144 131.361 117.049L130.142 109.854Z" fill="white"/>
<path d="M139.471 102.681C139.166 100.882 139.507 99.3306 140.492 98.0259C141.476 96.7214 142.955 95.9024 144.926 95.5685C146.924 95.2301 148.596 95.5154 149.942 96.4252C151.287 97.3214 152.117 98.709 152.436 100.588L152.679 102.027C152.984 103.826 152.65 105.37 151.676 106.659C150.702 107.948 149.229 108.759 147.258 109.093C145.3 109.425 143.63 109.152 142.248 108.276C140.878 107.384 140.032 105.992 139.712 104.1L139.471 102.681ZM144.068 103.486C144.185 104.179 144.474 104.712 144.935 105.086C145.394 105.448 145.962 105.57 146.642 105.455C148.04 105.218 148.589 104.207 148.286 102.422L148.083 101.223C147.966 100.53 147.683 99.9949 147.236 99.6183C146.786 99.2285 146.222 99.0911 145.542 99.2062C144.89 99.3167 144.407 99.6244 144.096 100.13C143.781 100.621 143.688 101.241 143.814 101.987L144.068 103.486ZM156.071 116.709C155.764 114.896 156.104 113.345 157.091 112.054C158.091 110.76 159.571 109.948 161.529 109.616C163.514 109.28 165.184 109.552 166.539 110.433C167.894 111.313 168.735 112.72 169.062 114.652L169.299 116.051C169.606 117.864 169.272 119.414 168.299 120.703C167.325 121.992 165.845 122.804 163.861 123.141C161.903 123.472 160.233 123.2 158.851 122.324C157.48 121.432 156.635 120.04 156.314 118.148L156.071 116.709ZM160.647 117.517C160.753 118.143 161.06 118.66 161.567 119.067C162.073 119.461 162.632 119.607 163.245 119.503C164.537 119.284 165.132 118.553 165.031 117.309L164.703 115.247C164.583 114.54 164.294 114.007 163.835 113.646C163.375 113.272 162.811 113.141 162.145 113.254C161.506 113.362 161.028 113.655 160.711 114.134C160.393 114.599 160.279 115.18 160.37 115.878L160.647 117.517ZM150.876 122.688L147.472 121.64L157.826 96.4883L161.23 97.5359L150.876 122.688Z" fill="white"/>
<path d="M192.755 105.993L189.438 106.554L191.388 118.067L184.374 119.255L179.445 90.1533L186.459 88.9654L188.365 100.218L191.062 99.7613L194.751 87.5609L203.243 86.1226L197.525 100.908L209.171 115.055L200.879 116.459L192.755 105.993Z" fill="white"/>
<path d="M226.512 106.525L216.901 108.153L216.143 113.874L208.651 115.143L214.391 84.2343L220.985 83.1175L236.664 110.398L229.131 111.674L226.512 106.525ZM217.662 102.452L223.916 101.393L219.069 91.8308L217.662 102.452Z" fill="white"/>
<path d="M256.988 77.0191L261.917 106.12L254.924 107.305L253.103 96.5519L251.089 97.1604L248.538 97.7569C244.622 98.4202 241.481 98.0817 239.117 96.7414C236.75 95.3877 235.289 93.1543 234.734 90.0407L233.211 81.0464L240.224 79.8585L241.731 88.7531C241.999 90.3385 242.573 91.4202 243.452 91.9978C244.342 92.5599 245.732 92.6807 247.624 92.3604L248.22 92.2389C249.845 91.8812 251.169 91.5269 252.192 91.1753L249.995 78.2036L256.988 77.0191Z" fill="white"/>
<path d="M282.248 89.9911L271.219 91.8592L272.393 98.7949L285.421 96.5883L286.335 101.985L266.294 105.379L261.365 76.2778L281.446 72.8766L282.363 78.2934L269.296 80.5068L270.335 86.6426L281.365 84.7744L282.248 89.9911Z" fill="white"/>
<path d="M311.063 87.6604C311.313 89.7018 311.07 91.5863 310.335 93.3146C309.598 95.0293 308.396 96.4667 306.729 97.6264C305.075 98.7839 303.089 99.5588 300.771 99.9514C296.948 100.599 293.727 99.8627 291.107 97.7433C288.487 95.6239 286.792 92.2924 286.022 87.7484L285.779 86.3093C285.296 83.4579 285.367 80.8827 285.991 78.5837C286.627 76.2693 287.779 74.3744 289.448 72.8994C291.114 71.4109 293.172 70.4592 295.623 70.044C299.154 69.4461 302.149 69.8982 304.609 71.4003C307.067 72.8892 308.72 75.2414 309.566 78.4562L302.573 79.6407C302.219 77.8774 301.557 76.6806 300.587 76.05C299.617 75.4194 298.273 75.2492 296.554 75.5403C294.809 75.8359 293.641 76.7055 293.05 78.149C292.458 79.5925 292.385 81.7501 292.831 84.6214L293.179 86.6801C293.705 89.785 294.467 91.9382 295.466 93.1395C296.477 94.339 297.936 94.7774 299.84 94.4548C301.452 94.1817 302.62 93.5934 303.344 92.6894C304.068 91.7855 304.316 90.503 304.09 88.8416L311.063 87.6604Z" fill="white"/>
<path d="M334.273 69.5012L325.542 70.9801L329.553 94.6647L322.54 95.8526L318.529 72.168L309.957 73.6199L309.039 68.2031L333.356 64.0844L334.273 69.5012Z" fill="white"/>
<path d="M341.263 92.681L336.334 63.5796L346.784 61.8096C350.528 61.1754 353.487 61.3803 355.666 62.423C357.855 63.4641 359.172 65.2901 359.614 67.9019C359.869 69.4075 359.739 70.7524 359.227 71.9359C358.715 73.1191 357.831 74.0777 356.571 74.8115C358.157 74.9544 359.449 75.503 360.448 76.458C361.444 77.4131 362.076 78.677 362.342 80.2492C362.825 83.1006 362.283 85.3993 360.715 87.1454C359.159 88.8755 356.612 90.0541 353.072 90.6809L341.263 92.681ZM346.181 79.1211L347.362 86.0966L351.958 85.3182C353.222 85.1041 354.147 84.6529 354.729 83.9649C355.309 83.2633 355.511 82.3861 355.333 81.3335C354.922 78.9083 353.509 77.8937 351.098 78.2883L346.181 79.1211ZM345.402 74.5241L349.059 73.9047C350.587 73.6323 351.635 73.1669 352.194 72.5102C352.754 71.8534 352.942 70.9922 352.761 69.9261C352.554 68.7003 352.053 67.8803 351.257 67.4671C350.458 67.0405 349.273 66.9602 347.701 67.2264L344.265 67.8085L345.402 74.5241Z" fill="white"/>
<path d="M389.953 70.0829C390.433 72.9211 390.332 75.5221 389.648 77.8861C388.967 80.2492 387.755 82.1886 386.009 83.7041C384.279 85.2036 382.171 86.1636 379.694 86.5831C377.217 87.0027 374.921 86.8091 372.813 86.0008C370.7 85.18 368.926 83.8015 367.486 81.8658C366.062 79.9276 365.093 77.5902 364.574 74.8544L364.296 73.2156C363.813 70.3639 363.908 67.7641 364.578 65.4164C365.259 63.0533 366.474 61.1133 368.216 59.5984C369.975 58.0805 372.098 57.111 374.589 56.6891C377.052 56.2719 379.352 56.4854 381.48 57.3312C383.612 58.1765 385.392 59.5952 386.828 61.5863C388.271 63.5621 389.238 65.9479 389.726 68.7439L389.953 70.0829ZM382.612 70.0719C382.123 67.1806 381.265 65.0712 380.039 63.7436C378.824 62.4005 377.318 61.8812 375.52 62.1857C372.005 62.781 370.594 65.7339 371.288 71.0445L371.63 73.1864C372.113 76.0378 372.957 78.1498 374.16 79.5225C375.365 80.8946 376.901 81.4225 378.766 81.1065C380.537 80.8066 381.775 79.8225 382.48 78.1543C383.184 76.4861 383.304 74.2382 382.839 71.4112L382.612 70.0719Z" fill="white"/>
<path fill-rule="evenodd" clip-rule="evenodd" d="M415.495 21.6785L30.1561 86.9461C24.5061 87.9031 20.7019 93.2605 21.6592 98.9123L32.0591 160.313C33.0164 165.965 38.3726 169.771 44.0226 168.814L429.361 103.546C435.012 102.589 438.815 97.232 437.857 91.5803L427.458 30.1794C426.5 24.5276 421.145 20.7215 415.495 21.6785ZM29.0006 80.1238C19.5839 81.7187 13.2436 90.6479 14.8391 100.068L25.239 161.468C26.8344 170.888 35.7615 177.231 45.1782 175.636L430.517 110.369C439.932 108.774 446.272 99.8448 444.677 90.4252L434.277 29.0243C432.682 19.6047 423.754 13.2615 414.339 14.8562L29.0006 80.1238Z" fill="white"/>
<path fill-rule="evenodd" clip-rule="evenodd" d="M413.776 11.4427L28.4361 76.7104C17.1361 78.6244 9.52773 89.3393 11.4423 100.643L21.8422 162.044C23.7567 173.347 34.4693 180.959 45.7693 179.045L431.109 113.777C442.406 111.864 450.015 101.149 448.101 89.8453L437.701 28.4445C435.786 17.1409 425.073 9.52923 413.776 11.4427ZM27.2806 69.8881C12.2139 72.44 2.06942 86.7266 4.62218 101.798L15.0221 163.199C17.5748 178.27 31.8582 188.419 46.9248 185.867L432.264 120.6C447.329 118.048 457.473 103.761 454.92 88.6902L444.52 27.2894C441.968 12.2179 427.685 2.06871 412.62 4.6204L27.2806 69.8881Z" fill="white"/>
</svg>
