<svg xmlns="http://www.w3.org/2000/svg" viewBox="0 0 261.22339 16.38647"><defs><style>.fdcf8a6a-d384-456a-ae7c-be961677b8fc{fill:#e2000f;fill-rule:evenodd;}.b3655deb-44de-462a-893d-02274b46559e{fill:#fff;}</style></defs><title>slogan</title><g id="b169c247-6cb0-4d28-b6ba-040fe733c49b" data-name="Layer 2"><g id="ac550b3e-1be1-41c7-8fa4-16097d0652d6" data-name="Layer 1"><polygon class="fdcf8a6a-d384-456a-ae7c-be961677b8fc" points="261.223 0 6.81 0 0 16.386 254.413 16.386 261.223 0"/><path class="b3655deb-44de-462a-893d-02274b46559e" d="M8.40648,8.03706a5.52234,5.52234,0,0,1,1.3584-3.96045A4.61816,4.61816,0,0,1,13.27074,2.646a4.861,4.861,0,0,1,2.53613.67236,4.39318,4.39318,0,0,1,1.72265,1.874,6.09412,6.09412,0,0,1,.5918,2.72657,5.99535,5.99535,0,0,1-.623,2.76513,4.25783,4.25783,0,0,1-1.76757,1.84571,5.03686,5.03686,0,0,1-2.4668.62793,4.80308,4.80308,0,0,1-2.56348-.69336,4.46594,4.46594,0,0,1-1.71191-1.8916A5.73439,5.73439,0,0,1,8.40648,8.03706Zm1.38672.02051a4.07042,4.07042,0,0,0,.9873,2.89307,3.24779,3.24779,0,0,0,2.47656,1.05664,3.2409,3.2409,0,0,0,2.49805-1.06739,4.30968,4.30968,0,0,0,.98047-3.02783,5.20429,5.20429,0,0,0-.41895-2.165,3.22018,3.22018,0,0,0-1.22656-1.43457,3.327,3.327,0,0,0-1.81152-.50928,3.438,3.438,0,0,0-2.457.98047A4.38126,4.38126,0,0,0,9.7932,8.05757Z"/><path class="b3655deb-44de-462a-893d-02274b46559e" d="M25.08519,2.58345l1.10156.01416a1.90279,1.90279,0,0,1-.3291,1.03222,1.145,1.145,0,0,1-.65137.374,9.28816,9.28816,0,0,1-1.5625.08349,5.0344,5.0344,0,0,0-2.10644.29786,1.71231,1.71231,0,0,0-.80664.95263,5.2769,5.2769,0,0,0-.27442,1.6875,3.227,3.227,0,0,1,1.10254-1.0498,2.87361,2.87361,0,0,1,1.41992-.3501,3.1725,3.1725,0,0,1,2.39746.99463A3.73609,3.73609,0,0,1,26.32542,9.312a4.17754,4.17754,0,0,1-.47754,2.11328,3.85931,3.85931,0,0,1-1.13281,1.27442,3.10433,3.10433,0,0,1-1.78516.45117,3.11946,3.11946,0,0,1-2.0371-.59961,3.87328,3.87328,0,0,1-1.11524-1.53516,9.45905,9.45905,0,0,1-.38769-3.25634q0-2.91724.9873-3.92871a4.07658,4.07658,0,0,1,3.03809-1.01172,12.39122,12.39122,0,0,0,1.44824-.04151A.28256.28256,0,0,0,25.08519,2.58345Zm-.0625,6.69385a3.08,3.08,0,0,0-.544-1.88477,1.79677,1.79677,0,0,0-1.53418-.73438,1.85027,1.85027,0,0,0-1.59375.77588,3.46387,3.46387,0,0,0-.56152,2.07178,2.80933,2.80933,0,0,0,.62012,1.96045,1.98694,1.98694,0,0,0,1.52832.67969,1.78988,1.78988,0,0,0,1.50683-.78711A3.42914,3.42914,0,0,0,25.02269,9.2773Z"/><path class="b3655deb-44de-462a-893d-02274b46559e" d="M32.46605,10.289l1.22656.15918a3.17961,3.17961,0,0,1-1.0293,1.98487,2.99445,2.99445,0,0,1-2.0332.71777,3.15625,3.15625,0,0,1-2.42871-.98828,4.00414,4.00414,0,0,1-.918-2.83008A5.1149,5.1149,0,0,1,27.678,7.247,2.75414,2.75414,0,0,1,28.88011,5.9062,3.569,3.569,0,0,1,30.637,5.45942a3.05748,3.05748,0,0,1,1.96093.606,2.77945,2.77945,0,0,1,.97657,1.72217l-1.21192.187a2.0213,2.0213,0,0,0-.61328-1.11572,1.5884,1.5884,0,0,0-1.06348-.374,1.93707,1.93707,0,0,0-1.53222.6753,3.20842,3.20842,0,0,0-.58887,2.13769,3.31386,3.31386,0,0,0,.56836,2.15479,1.84883,1.84883,0,0,0,1.4834.67187,1.74223,1.74223,0,0,0,1.22558-.45019A2.23256,2.23256,0,0,0,32.46605,10.289Z"/><path class="b3655deb-44de-462a-893d-02274b46559e" d="M35.36937,5.62544h5.793v7.3584H39.9221V6.65815H36.61644v3.66553a10.61993,10.61993,0,0,1-.083,1.69043,1.22707,1.22707,0,0,1-.457.71387,1.6737,1.6737,0,0,1-1.08106.30469q-.43651,0-1.00488-.05567V11.93794h.54785a1.36839,1.36839,0,0,0,.55371-.08008.4059.4059,0,0,0,.22266-.25293,6.13437,6.13437,0,0,0,.05469-1.1289Z"/><path class="b3655deb-44de-462a-893d-02274b46559e" d="M42.9846,15.81782l-.13867-1.1709a2.77012,2.77012,0,0,0,.71387.11133,1.3743,1.3743,0,0,0,.665-.13867,1.1294,1.1294,0,0,0,.40918-.38867,6.15062,6.15062,0,0,0,.38086-.92774c.02343-.06933.06054-.17089.11132-.30566l-2.793-7.37207H43.678l1.53125,4.26172q.29736.8108.5332,1.7041a17.05,17.05,0,0,1,.5127-1.67676l1.57324-4.28906h1.24707l-2.7998,7.4834a14.65631,14.65631,0,0,1-.69922,1.66992,2.45468,2.45468,0,0,1-.7627.9043,1.801,1.801,0,0,1-1.02539.28711A2.49987,2.49987,0,0,1,42.9846,15.81782Z"/><path class="b3655deb-44de-462a-893d-02274b46559e" d="M54.74144,5.62544V8.8061a1.21631,1.21631,0,0,0,.83887-.22851,4.91846,4.91846,0,0,0,.707-1.33057,3.79929,3.79929,0,0,1,.78222-1.3374,1.67351,1.67351,0,0,1,1.08106-.28418h.457V6.65815l-.33887-.00732a.93915.93915,0,0,0-.63769.14551,3.6634,3.6634,0,0,0-.44336.90771,3.67047,3.67047,0,0,1-.5127.99805,2.10912,2.10912,0,0,1-.73437.50586,2.97649,2.97649,0,0,1,1.5791,1.49658l1.37207,2.2793H57.51976l-1.33692-2.2793a3.03265,3.03265,0,0,0-.71386-.90771,1.23035,1.23035,0,0,0-.72754-.21485v3.40186H53.467V9.582a1.23473,1.23473,0,0,0-.7207.21143,2.95917,2.95917,0,0,0-.71387.91113l-1.33789,2.2793H49.32347l1.36426-2.2793A3.00263,3.00263,0,0,1,52.27464,9.208a1.97685,1.97685,0,0,1-.77539-.55762,7.77879,7.77879,0,0,1-.666-1.438.88936.88936,0,0,0-.3252-.47119,1.23408,1.23408,0,0,0-.53418-.09033c-.05957,0-.18164.00244-.36719.00732V5.62544h.17383a4.0486,4.0486,0,0,1,1.01465.08691,1.08389,1.08389,0,0,1,.52734.36719A5.37321,5.37321,0,0,1,51.928,7.247a5.05576,5.05576,0,0,0,.69727,1.32324,1.185,1.185,0,0,0,.84179.23584V5.62544Z"/><path class="b3655deb-44de-462a-893d-02274b46559e" d="M59.78636,5.62544h1.24707v5.6123l3.458-5.6123h1.34375v7.3584H64.58812V7.4062l-3.458,5.57764H59.78636Z"/><path class="b3655deb-44de-462a-893d-02274b46559e" d="M67.72,5.62544h2.876a5.22185,5.22185,0,0,1,1.57617.17676,1.90453,1.90453,0,0,1,.88672.64795,1.77108,1.77108,0,0,1,.37109,1.12939,1.854,1.854,0,0,1-.21875.918,1.77381,1.77381,0,0,1-.65429.65479,1.7227,1.7227,0,0,1,.8623.64794,1.87094,1.87094,0,0,1,.34278,1.126,1.98428,1.98428,0,0,1-.748,1.55176,3.26726,3.26726,0,0,1-1.97461.50586H67.72ZM68.967,8.7231h1.33106a4.75034,4.75034,0,0,0,1.09473-.0835,1.14579,1.14579,0,0,0,.5332-.33594.85708.85708,0,0,0,.23535-.60644.84716.84716,0,0,0-.41211-.81055,3.12363,3.12363,0,0,0-1.41016-.22852H68.967Zm0,3.23535H70.6096a2.99438,2.99438,0,0,0,1.45508-.2461.96479.96479,0,0,0,.416-.84863,1.05523,1.05523,0,0,0-.2295-.6543.98769.98769,0,0,0-.5957-.38134,6.16064,6.16064,0,0,0-1.17773-.07959H68.967Z"/><path class="b3655deb-44de-462a-893d-02274b46559e" d="M79.89769,12.07661a4.62606,4.62606,0,0,1-1.334.83106,3.84219,3.84219,0,0,1-1.375.24316,2.67863,2.67863,0,0,1-1.86425-.59277,1.9546,1.9546,0,0,1-.65137-1.51367A2.05016,2.05016,0,0,1,75.5637,9.3398a3.03621,3.03621,0,0,1,.89746-.40918,8.93215,8.93215,0,0,1,1.1084-.187,11.40414,11.40414,0,0,0,2.22461-.42968c.00391-.1709.00684-.2793.00684-.32569a1.37715,1.37715,0,0,0-.35352-1.07373,2.08867,2.08867,0,0,0-1.4209-.42285,2.20028,2.20028,0,0,0-1.29882.30859,1.88405,1.88405,0,0,0-.62012,1.09131l-1.21973-.1665a3.01948,3.01948,0,0,1,.54785-1.26465,2.40017,2.40017,0,0,1,1.10157-.74121,4.91181,4.91181,0,0,1,1.66992-.25977,4.41738,4.41738,0,0,1,1.53125.22168,2.01746,2.01746,0,0,1,.86621.55762,1.96719,1.96719,0,0,1,.38769.84863,6.97566,6.97566,0,0,1,.0625,1.15039V9.90083A17.51,17.51,0,0,0,81.135,12.101a2.78069,2.78069,0,0,0,.31446.88281H80.14769A2.6325,2.6325,0,0,1,79.89769,12.07661ZM79.79417,9.291a9.14481,9.14481,0,0,1-2.03711.47119,4.71369,4.71369,0,0,0-1.08789.24951,1.08165,1.08165,0,0,0-.49218.40527,1.10005,1.10005,0,0,0,.2041,1.42334,1.62066,1.62066,0,0,0,1.10547.333,2.56765,2.56765,0,0,0,1.28222-.31543,1.93922,1.93922,0,0,0,.82422-.8623,3.01549,3.01549,0,0,0,.20117-1.24707Z"/><path class="b3655deb-44de-462a-893d-02274b46559e" d="M88.02562,10.6147l1.28906.15918a3.14837,3.14837,0,0,1-1.12891,1.75293,3.82447,3.82447,0,0,1-4.667-.3711,3.8812,3.8812,0,0,1-.94629-2.78857,4.0693,4.0693,0,0,1,.95606-2.88233A3.23856,3.23856,0,0,1,86.01,5.45942a3.14806,3.14806,0,0,1,2.41114,1.0044A3.99516,3.99516,0,0,1,89.35667,9.291c0,.07422-.00293.18506-.00683.33252H83.86156a2.827,2.827,0,0,0,.68554,1.85742,2.04468,2.04468,0,0,0,1.53906.64355,1.90829,1.90829,0,0,0,1.1709-.36035A2.38618,2.38618,0,0,0,88.02562,10.6147ZM83.93089,8.5981h4.10938a2.49307,2.49307,0,0,0-.47168-1.39258,1.91126,1.91126,0,0,0-1.54493-.72071,1.983,1.983,0,0,0-1.44531.5752A2.27587,2.27587,0,0,0,83.93089,8.5981Z"/><path class="b3655deb-44de-462a-893d-02274b46559e" d="M90.91527,5.62544H92.8557l1.93359,5.88965,2.14746-5.88965h1.79492v7.3584H97.4846V7.06l-2.17578,5.92383H94.19359l-2.0586-6.208v6.208H90.91527Z"/><path class="b3655deb-44de-462a-893d-02274b46559e" d="M108.93089,12.98384h-1.24707V5.03657a6.468,6.468,0,0,1-1.18164.85938,8.3546,8.3546,0,0,1-1.31348.644V5.33442a7.51555,7.51555,0,0,0,1.83008-1.19189,4.70054,4.70054,0,0,0,1.1084-1.35791h.80371Z"/><path class="b3655deb-44de-462a-893d-02274b46559e" d="M112.12523,10.32368l1.30957-.11084a2.34753,2.34753,0,0,0,.67578,1.437,1.83371,1.83371,0,0,0,1.27832.48243,1.99053,1.99053,0,0,0,1.52441-.67969,2.556,2.556,0,0,0,.624-1.80127,2.3134,2.3134,0,0,0-.59961-1.6836,2.09,2.09,0,0,0-1.56934-.61669,2.17658,2.17658,0,0,0-1.08789.27343,2.11514,2.11514,0,0,0-.76269.71045l-1.1709-.15234.98437-5.21777h5.05078V4.15669h-4.05371l-.54687,2.73a3.30487,3.30487,0,0,1,1.91894-.6377,3.03964,3.03964,0,0,1,2.24512.92188,3.21857,3.21857,0,0,1,.915,2.36963,3.698,3.698,0,0,1-.80371,2.38379,3.22043,3.22043,0,0,1-2.668,1.2334,3.28726,3.28726,0,0,1-2.2627-.77637A3.02914,3.02914,0,0,1,112.12523,10.32368Z"/><path class="b3655deb-44de-462a-893d-02274b46559e" d="M124.3137,5.62544h4.2334V6.65815h-2.98633v6.32569H124.3137Z"/><path class="b3655deb-44de-462a-893d-02274b46559e" d="M128.70433,9.30513a3.79329,3.79329,0,0,1,1.13672-3.02832,3.42481,3.42481,0,0,1,2.31445-.81739,3.3002,3.3002,0,0,1,2.48.99414,3.78157,3.78157,0,0,1,.96387,2.74756,4.86119,4.86119,0,0,1-.42676,2.23389,3.01236,3.01236,0,0,1-1.24023,1.26465,3.605,3.605,0,0,1-1.77686.45117,3.30894,3.30894,0,0,1-2.498-.99121A3.96058,3.96058,0,0,1,128.70433,9.30513Zm1.28223,0a3.13227,3.13227,0,0,0,.61718,2.11621,2.05354,2.05354,0,0,0,3.09668-.00293,3.21234,3.21234,0,0,0,.6167-2.15527,3.04592,3.04592,0,0,0-.61963-2.06836,2.05639,2.05639,0,0,0-3.09375-.00342A3.12172,3.12172,0,0,0,129.98656,9.30513Z"/><path class="b3655deb-44de-462a-893d-02274b46559e" d="M137.06126,15.80415V5.62544H138.198V6.582a2.7962,2.7962,0,0,1,.90723-.84228,2.49439,2.49439,0,0,1,1.22656-.28028,2.9097,2.9097,0,0,1,1.66309.48487,2.97621,2.97621,0,0,1,1.08789,1.36865,4.99022,4.99022,0,0,1,.36718,1.93652,4.91151,4.91151,0,0,1-.40527,2.03321,3.08358,3.08358,0,0,1-2.80273,1.86816,2.34348,2.34348,0,0,1-1.11914-.26367,2.56358,2.56358,0,0,1-.81446-.665v3.582Zm1.12891-6.45752a3.20247,3.20247,0,0,0,.57519,2.09912,1.76293,1.76293,0,0,0,1.39356.67871,1.80468,1.80468,0,0,0,1.42383-.70312,3.33776,3.33776,0,0,0,.59179-2.17871,3.25013,3.25013,0,0,0-.57812-2.10645,1.74151,1.74151,0,0,0-1.38281-.69971,1.79643,1.79643,0,0,0-1.41016.74463A3.33626,3.33626,0,0,0,138.19017,9.34663Z"/><path class="b3655deb-44de-462a-893d-02274b46559e" d="M144.489,9.30513a3.79326,3.79326,0,0,1,1.13672-3.02832,3.42481,3.42481,0,0,1,2.31445-.81739,3.3013,3.3013,0,0,1,2.48047.99414,3.78157,3.78157,0,0,1,.96386,2.74756,4.8612,4.8612,0,0,1-.42675,2.23389,3.01239,3.01239,0,0,1-1.24024,1.26465,3.60811,3.60811,0,0,1-1.77734.45117,3.30894,3.30894,0,0,1-2.49805-.99121A3.96058,3.96058,0,0,1,144.489,9.30513Zm1.28222,0a3.13227,3.13227,0,0,0,.61719,2.11621,2.05354,2.05354,0,0,0,3.09668-.00293,3.20974,3.20974,0,0,0,.61719-2.15527,3.04344,3.04344,0,0,0-.62012-2.06836,2.05639,2.05639,0,0,0-3.09375-.00342A3.12172,3.12172,0,0,0,145.77122,9.30513Z"/><path class="b3655deb-44de-462a-893d-02274b46559e" d="M153.51634,5.62544h5.12793v6.333h.79688v3.11133h-1.0254V12.98384h-5.793v2.08594H151.5974V11.95845h.6582Q153.5725,10.17133,153.51634,5.62544Zm1.04,1.03271a12.127,12.127,0,0,1-1.10938,5.3003h3.957V6.65815Z"/><path class="b3655deb-44de-462a-893d-02274b46559e" d="M160.34837,9.30513a3.79329,3.79329,0,0,1,1.13672-3.02832,3.42483,3.42483,0,0,1,2.31445-.81739,3.3013,3.3013,0,0,1,2.48047.99414,3.78157,3.78157,0,0,1,.96387,2.74756,4.86119,4.86119,0,0,1-.42676,2.23389,3.01236,3.01236,0,0,1-1.24023,1.26465,3.60812,3.60812,0,0,1-1.77735.45117,3.3089,3.3089,0,0,1-2.498-.99121A3.96054,3.96054,0,0,1,160.34837,9.30513Zm1.28223,0a3.13222,3.13222,0,0,0,.61719,2.11621,2.05354,2.05354,0,0,0,3.09668-.00293,3.20974,3.20974,0,0,0,.61718-2.15527,3.04349,3.04349,0,0,0-.62011-2.06836,2.05639,2.05639,0,0,0-3.09375-.00342A3.12167,3.12167,0,0,0,161.6306,9.30513Z"/><path class="b3655deb-44de-462a-893d-02274b46559e" d="M168.71263,5.62544h2.876a5.22194,5.22194,0,0,1,1.57617.17676,1.90453,1.90453,0,0,1,.88672.64795,1.77108,1.77108,0,0,1,.37109,1.12939,1.854,1.854,0,0,1-.21875.918,1.77384,1.77384,0,0,1-.6543.65479,1.72273,1.72273,0,0,1,.86231.64794,1.871,1.871,0,0,1,.34277,1.126,1.9843,1.9843,0,0,1-.748,1.55176,3.26726,3.26726,0,0,1-1.97461.50586h-3.31934ZM169.9597,8.7231h1.33105a4.75028,4.75028,0,0,0,1.09473-.0835,1.14574,1.14574,0,0,0,.5332-.33594.85709.85709,0,0,0,.23536-.60644.84716.84716,0,0,0-.41211-.81055,3.12365,3.12365,0,0,0-1.41016-.22852H169.9597Zm0,3.23535h1.64258a2.99441,2.99441,0,0,0,1.45508-.2461.96481.96481,0,0,0,.416-.84863,1.05521,1.05521,0,0,0-.22949-.6543.98771.98771,0,0,0-.5957-.38134,6.16076,6.16076,0,0,0-1.17774-.07959H169.9597Z"/><path class="b3655deb-44de-462a-893d-02274b46559e" d="M180.36693,2.82612h1.34472V7.27485a1.864,1.864,0,0,0,1.2959-.35693,5.95534,5.95534,0,0,0,.95606-1.71484,9.4285,9.4285,0,0,1,.69629-1.41016,2.18283,2.18283,0,0,1,.77929-.69287,2.25867,2.25867,0,0,1,1.11621-.28076c.5166,0,.79.00439.81739.01367V3.997c-.0459,0-.13672-.00195-.27051-.00683-.14746-.0044-.23731-.00684-.27051-.00684a1.30451,1.30451,0,0,0-.95605.31152,4.25609,4.25609,0,0,0-.72754,1.33057,5.19826,5.19826,0,0,1-.86621,1.625,2.693,2.693,0,0,1-.84473.53711A3.744,3.744,0,0,1,185.37669,9.603l2.09278,3.38086h-1.66993l-1.69726-2.75733a7.61462,7.61462,0,0,0-1.1709-1.56933,1.74888,1.74888,0,0,0-1.21973-.42627v4.75293h-1.34472Z"/><path class="b3655deb-44de-462a-893d-02274b46559e" d="M193.2556,12.07661a4.62606,4.62606,0,0,1-1.334.83106,3.84219,3.84219,0,0,1-1.375.24316,2.67863,2.67863,0,0,1-1.86425-.59277,1.9546,1.9546,0,0,1-.65137-1.51367,2.05016,2.05016,0,0,1,.89062-1.70459,3.03615,3.03615,0,0,1,.89747-.40918,8.93158,8.93158,0,0,1,1.10839-.187,11.40414,11.40414,0,0,0,2.22461-.42968c.00391-.1709.00684-.2793.00684-.32569a1.37715,1.37715,0,0,0-.35352-1.07373,2.08867,2.08867,0,0,0-1.4209-.42285,2.20028,2.20028,0,0,0-1.29882.30859,1.88405,1.88405,0,0,0-.62012,1.09131l-1.21973-.1665a3.01948,3.01948,0,0,1,.54785-1.26465,2.40017,2.40017,0,0,1,1.10157-.74121,4.91181,4.91181,0,0,1,1.66992-.25977,4.41738,4.41738,0,0,1,1.53125.22168,2.01746,2.01746,0,0,1,.86621.55762,1.96731,1.96731,0,0,1,.3877.84863,6.97681,6.97681,0,0,1,.0625,1.15039V9.90083a17.51083,17.51083,0,0,0,.08007,2.2002,2.78069,2.78069,0,0,0,.31446.88281H193.5056A2.6325,2.6325,0,0,1,193.2556,12.07661ZM193.15208,9.291a9.14481,9.14481,0,0,1-2.03711.47119,4.71369,4.71369,0,0,0-1.08789.24951,1.08165,1.08165,0,0,0-.49218.40527,1.10005,1.10005,0,0,0,.2041,1.42334,1.62066,1.62066,0,0,0,1.10547.333,2.56765,2.56765,0,0,0,1.28222-.31543,1.93922,1.93922,0,0,0,.82422-.8623,3.01549,3.01549,0,0,0,.20117-1.24707Z"/><path class="b3655deb-44de-462a-893d-02274b46559e" d="M197.81615,9.65815v-.977a7.10131,7.10131,0,0,0,1.07812-.062,1.01346,1.01346,0,0,0,.54395-.33252.98231.98231,0,0,0,.25586-.69336,1.0326,1.0326,0,0,0-.33594-.80713,1.2527,1.2527,0,0,0-.86914-.30127,1.5347,1.5347,0,0,0-1.47657,1.24024l-1.18457-.19385a2.82726,2.82726,0,0,1,4.52149-1.42773,2.064,2.064,0,0,1,.668,1.53857,1.61917,1.61917,0,0,1-.87305,1.43408,1.96062,1.96062,0,0,1,1.10938,1.8501,2.01551,2.01551,0,0,1-.72071,1.60742,3.00844,3.00844,0,0,1-2.0166.61719,2.58709,2.58709,0,0,1-2.917-2.23828l1.1709-.25a1.87012,1.87012,0,0,0,.64746,1.09473,1.75153,1.75153,0,0,0,1.11914.38867,1.56029,1.56029,0,0,0,1.0498-.35742,1.196,1.196,0,0,0,.15625-1.65918,1.12636,1.12636,0,0,0-.56152-.39844,4.89165,4.89165,0,0,0-1.081-.07959C198.05931,9.65132,197.96458,9.65376,197.81615,9.65815Z"/><path class="b3655deb-44de-462a-893d-02274b46559e" d="M207.49681,12.07661a4.626,4.626,0,0,1-1.334.83106,3.84226,3.84226,0,0,1-1.375.24316,2.67864,2.67864,0,0,1-1.86426-.59277,1.9546,1.9546,0,0,1-.65137-1.51367,2.05014,2.05014,0,0,1,.89063-1.70459,3.036,3.036,0,0,1,.89746-.40918,8.93158,8.93158,0,0,1,1.10839-.187,11.40414,11.40414,0,0,0,2.22461-.42968c.00391-.1709.00684-.2793.00684-.32569a1.37711,1.37711,0,0,0-.35352-1.07373,2.08866,2.08866,0,0,0-1.42089-.42285,2.20029,2.20029,0,0,0-1.29883.30859,1.88405,1.88405,0,0,0-.62012,1.09131l-1.21973-.1665a3.01935,3.01935,0,0,1,.54786-1.26465,2.40008,2.40008,0,0,1,1.10156-.74121,4.91181,4.91181,0,0,1,1.66992-.25977,4.41738,4.41738,0,0,1,1.53125.22168,2.01746,2.01746,0,0,1,.86621.55762,1.96731,1.96731,0,0,1,.3877.84863,6.97681,6.97681,0,0,1,.0625,1.15039V9.90083a17.51083,17.51083,0,0,0,.08007,2.2002,2.78069,2.78069,0,0,0,.31446.88281h-1.30176A2.6325,2.6325,0,0,1,207.49681,12.07661ZM207.39329,9.291a9.14481,9.14481,0,0,1-2.03711.47119,4.71369,4.71369,0,0,0-1.08789.24951,1.08165,1.08165,0,0,0-.49218.40527,1.10005,1.10005,0,0,0,.2041,1.42334,1.62067,1.62067,0,0,0,1.10547.333,2.56763,2.56763,0,0,0,1.28222-.31543,1.93922,1.93922,0,0,0,.82422-.8623,3.01549,3.01549,0,0,0,.20117-1.24707Z"/><path class="b3655deb-44de-462a-893d-02274b46559e" d="M209.75462,12.98384l2.68848-3.82422-2.48731-3.53418h1.55957L212.64427,7.351q.31933.49218.5127.82421.30468-.457.56152-.81054l1.24023-1.73926H216.449l-2.543,3.46484,2.73633,3.89356h-1.53125l-1.51074-2.28613-.40137-.6167-1.9336,2.90283Z"/><path class="b3655deb-44de-462a-893d-02274b46559e" d="M222.32493,10.289l1.22657.15918a3.17961,3.17961,0,0,1-1.0293,1.98487,2.99447,2.99447,0,0,1-2.0332.71777,3.15623,3.15623,0,0,1-2.42871-.98828,4.00414,4.00414,0,0,1-.918-2.83008,5.1149,5.1149,0,0,1,.39453-2.08545A2.75414,2.75414,0,0,1,218.739,5.9062a3.569,3.569,0,0,1,1.75683-.44678,3.05749,3.05749,0,0,1,1.96094.606,2.77949,2.77949,0,0,1,.97656,1.72217l-1.21191.187a2.0213,2.0213,0,0,0-.61328-1.11572,1.58842,1.58842,0,0,0-1.06348-.374,1.93708,1.93708,0,0,0-1.53223.6753,3.20848,3.20848,0,0,0-.58886,2.13769,3.31386,3.31386,0,0,0,.56836,2.15479,1.8488,1.8488,0,0,0,1.4834.67187,1.74226,1.74226,0,0,0,1.22558-.45019A2.23256,2.23256,0,0,0,222.32493,10.289Z"/><path class="b3655deb-44de-462a-893d-02274b46559e" d="M223.947,5.62544h5.9795V6.65815h-2.37012v6.32569h-1.24023V6.65815H223.947Z"/><path class="b3655deb-44de-462a-893d-02274b46559e" d="M235.76048,12.07661a4.626,4.626,0,0,1-1.334.83106,3.84226,3.84226,0,0,1-1.375.24316,2.67864,2.67864,0,0,1-1.86426-.59277,1.9546,1.9546,0,0,1-.65137-1.51367,2.05021,2.05021,0,0,1,.89063-1.70459,3.036,3.036,0,0,1,.89746-.40918,8.93181,8.93181,0,0,1,1.1084-.187,11.40446,11.40446,0,0,0,2.22461-.42968c.0039-.1709.00683-.2793.00683-.32569a1.37715,1.37715,0,0,0-.35351-1.07373,2.08871,2.08871,0,0,0-1.4209-.42285,2.20031,2.20031,0,0,0-1.29883.30859,1.88405,1.88405,0,0,0-.62012,1.09131l-1.21972-.1665a3.01922,3.01922,0,0,1,.54785-1.26465,2.40008,2.40008,0,0,1,1.10156-.74121,4.91181,4.91181,0,0,1,1.66992-.25977,4.41738,4.41738,0,0,1,1.53125.22168,2.01746,2.01746,0,0,1,.86621.55762,1.96731,1.96731,0,0,1,.3877.84863,6.97681,6.97681,0,0,1,.0625,1.15039V9.90083a17.51,17.51,0,0,0,.08008,2.2002,2.78043,2.78043,0,0,0,.31445.88281h-1.30176A2.6325,2.6325,0,0,1,235.76048,12.07661ZM235.657,9.291a9.14509,9.14509,0,0,1-2.03711.47119,4.71342,4.71342,0,0,0-1.08789.24951,1.08167,1.08167,0,0,0-.49219.40527,1.10005,1.10005,0,0,0,.2041,1.42334,1.62067,1.62067,0,0,0,1.10547.333,2.56766,2.56766,0,0,0,1.28223-.31543,1.93925,1.93925,0,0,0,.82421-.8623,3.01546,3.01546,0,0,0,.20118-1.24707Z"/><path class="b3655deb-44de-462a-893d-02274b46559e" d="M238.85814,5.62544h1.24707v3.063h3.458v-3.063h1.24707v7.3584h-1.24707V9.72065h-3.458v3.26319h-1.24707Z"/><path class="b3655deb-44de-462a-893d-02274b46559e" d="M251.49,12.07661a4.626,4.626,0,0,1-1.334.83106,3.84223,3.84223,0,0,1-1.375.24316,2.67865,2.67865,0,0,1-1.86426-.59277,1.9546,1.9546,0,0,1-.65137-1.51367A2.05021,2.05021,0,0,1,247.156,9.3398a3.036,3.036,0,0,1,.89746-.40918,8.93181,8.93181,0,0,1,1.1084-.187,11.4043,11.4043,0,0,0,2.22461-.42968c.0039-.1709.00683-.2793.00683-.32569a1.37715,1.37715,0,0,0-.35351-1.07373,2.08869,2.08869,0,0,0-1.4209-.42285,2.20033,2.20033,0,0,0-1.29883.30859,1.88405,1.88405,0,0,0-.62012,1.09131l-1.21972-.1665a3.01948,3.01948,0,0,1,.54785-1.26465,2.40013,2.40013,0,0,1,1.10156-.74121,4.91181,4.91181,0,0,1,1.66992-.25977,4.41735,4.41735,0,0,1,1.53125.22168,2.01746,2.01746,0,0,1,.86621.55762,1.9672,1.9672,0,0,1,.3877.84863,6.97681,6.97681,0,0,1,.0625,1.15039V9.90083a17.51,17.51,0,0,0,.08008,2.2002,2.78043,2.78043,0,0,0,.31445.88281H251.74A2.6325,2.6325,0,0,1,251.49,12.07661ZM251.38646,9.291a9.14509,9.14509,0,0,1-2.03711.47119,4.71355,4.71355,0,0,0-1.08789.24951,1.08167,1.08167,0,0,0-.49219.40527,1.10005,1.10005,0,0,0,.2041,1.42334,1.62069,1.62069,0,0,0,1.10547.333,2.56766,2.56766,0,0,0,1.28223-.31543,1.93933,1.93933,0,0,0,.82422-.8623,3.01549,3.01549,0,0,0,.20117-1.24707Z"/></g></g></svg>