<svg width="512" height="512" viewBox="0 0 512 512" fill="none" xmlns="http://www.w3.org/2000/svg">
<g clip-path="url(#clip0)">
<path d="M358.597 263.089C351.156 258.543 342.929 260.927 338.667 266.584L308.914 315.176C304.588 322.241 295.353 324.46 288.289 320.135C281.224 315.81 279.002 306.577 283.328 299.513C283.328 299.513 335.463 214.365 335.464 214.364C339.828 207.237 337.579 197.889 330.452 193.525C323.456 189.241 314.329 191.436 310.044 198.431C308.848 200.384 289.183 232.495 257.743 283.842C253.417 290.906 244.183 293.128 237.118 288.803C230.053 284.478 227.831 275.244 232.157 268.18L297.347 161.712C301.711 154.585 299.463 145.237 292.335 140.873C285.341 136.589 276.212 138.784 271.928 145.78C271.254 146.881 260.503 164.671 206.562 252.528C202.229 259.587 192.991 261.797 185.931 257.463C178.871 253.129 176.661 243.894 180.995 236.834C205.308 197.233 228.831 158.714 231.484 154.382C234.633 147.583 232.219 139.415 225.678 135.47C218.724 131.275 209.61 133.494 205.362 140.417L128.804 265.199C125.376 270.787 118.713 273.5 112.357 271.901C105.999 270.301 101.417 264.758 101.043 258.213L98.9375 221.416C98.4665 213.188 91.3885 206.921 83.1295 207.479C74.9515 208.04 68.7925 215.113 69.3585 223.286C76.4865 326.175 75.7475 315.669 75.9225 317.687C76.5225 324.506 78.0885 331.189 80.6385 337.548L93.7885 370.475C95.4385 374.595 95.1785 379.224 93.0785 383.134L23.9805 512H177.31L210.59 457.345C212.99 453.405 217.06 450.786 221.64 450.246L243.4 447.686C249.39 446.976 255.05 445.116 260.13 442.277C266.793 438.552 272.464 433.135 276.573 426.382L363.527 283.457C367.767 276.487 365.556 267.35 358.597 263.089V263.089Z" fill="white"/>
<path d="M421.648 11.456C367.382 -11.518 306.344 0.520035 255.998 43.452C205.751 0.639034 144.723 -11.302 90.353 11.717C35.466 34.955 0 89.601 0 150.934C0 199.572 14.362 247.571 42.688 293.599C43.159 294.365 43.711 295.073 44.308 295.739L39.432 225.358C37.719 200.635 56.351 179.245 81.081 177.551C103.125 176.05 121.905 190.575 127.336 210.23L179.794 124.73C192.627 103.813 220.164 97.107 241.178 109.784C246.105 112.756 250.323 116.569 253.706 121.01C267.802 107.583 290.013 104.275 308.005 115.292C324.3 125.27 332.02 143.992 328.861 161.757C360.889 166.187 378.008 202.333 361.051 230.027L360.024 231.705C390.42 238.33 405.138 272.78 389.158 299.047L302.204 441.972C299.518 446.387 296.43 450.458 293.001 454.153C358.951 416.014 512 310.268 512 150.934C512 89.442 476.535 34.694 421.648 11.456V11.456Z" fill="white"/>
</g>
<defs>
<clipPath id="clip0">
<rect width="512" height="512" fill="white"/>
</clipPath>
</defs>
</svg>
