<svg width="226" height="100" viewBox="0 0 226 100" fill="none" xmlns="http://www.w3.org/2000/svg">
<g clip-path="url(#clip0)">
<path d="M225.26 0H0.731445V100H225.26V0Z" fill="#E42226"/>
<path d="M22.6445 70.863H18.4424V69.4473H28.5125V70.863H24.3169V82.0608H22.6445V70.863Z" fill="#FEFEFE"/>
<path d="M29.667 69.4519H31.1614V74.2702H31.2018C31.4867 73.7679 31.9071 73.3561 32.4151 73.0818C32.923 72.8076 33.4979 72.682 34.0738 72.7195C36.4739 72.7195 37.2148 74.0924 37.2148 76.0563V82.0618H35.7153V75.878C35.7323 75.6307 35.696 75.3826 35.6088 75.1506C35.5215 74.9186 35.3853 74.7081 35.2095 74.5335C35.0337 74.3588 34.8224 74.2241 34.5899 74.1384C34.3574 74.0527 34.1092 74.0182 33.8622 74.037C33.4872 74.0152 33.112 74.0759 32.763 74.2149C32.414 74.3538 32.0997 74.5676 31.8422 74.8413C31.5847 75.1149 31.3903 75.4416 31.2727 75.7986C31.1551 76.1555 31.117 76.5338 31.1613 76.907V82.0618H29.667V69.4519Z" fill="#FEFEFE"/>
<path d="M62.9546 73.2466C62.8002 72.4421 62.3543 71.723 61.7025 71.2273C61.0507 70.7316 60.2389 70.4942 59.4228 70.5605C56.4259 70.5605 55.1516 73.032 55.1516 75.6689C55.1516 78.5455 56.4259 80.9494 59.443 80.9494C59.9234 80.9589 60.4008 80.8712 60.8465 80.6917C61.2922 80.5122 61.6971 80.2445 62.037 79.9047C62.3769 79.5649 62.6447 79.16 62.8245 78.7142C63.0042 78.2683 63.0922 77.7908 63.0832 77.3101H64.7564C64.7466 78.0051 64.5959 78.6909 64.3134 79.3259C64.0309 79.9608 63.6225 80.5318 63.1129 81.0042C62.6033 81.4765 62.0032 81.8404 61.3489 82.0739C60.6946 82.3073 59.9997 82.4054 59.3064 82.3621C58.4728 82.375 57.6463 82.2077 56.8833 81.8716C56.1203 81.5355 55.4388 81.0385 54.8855 80.4146C54.3321 79.7907 53.9199 79.0546 53.677 78.2567C53.4341 77.4587 53.3663 76.6177 53.4781 75.7911C53.3855 74.9531 53.4708 74.1049 53.7286 73.3022C53.9863 72.4995 54.4107 71.7603 54.9739 71.1331C55.537 70.5059 56.2262 70.0048 56.9964 69.6627C57.7666 69.3206 58.6003 69.1451 59.443 69.1479C60.6669 69.0418 61.8853 69.4067 62.8496 70.1683C63.814 70.9299 64.4517 72.0308 64.6329 73.2466H62.9546Z" fill="#FEFEFE"/>
<path d="M66.5899 69.4519H68.0888V74.2702H68.125C68.4089 73.7672 68.829 73.3548 69.337 73.0805C69.8449 72.8061 70.42 72.681 70.996 72.7195C73.4022 72.7195 74.1426 74.0924 74.1426 76.0563V82.0618H72.6427V75.878C72.6597 75.6303 72.6232 75.3818 72.5356 75.1494C72.448 74.9171 72.3114 74.7064 72.135 74.5317C71.9586 74.357 71.7467 74.2223 71.5137 74.137C71.2806 74.0516 71.0319 74.0175 70.7845 74.037C70.4099 74.0158 70.0352 74.077 69.6867 74.2162C69.3383 74.3554 69.0246 74.5694 68.7676 74.8429C68.5106 75.1165 68.3167 75.4431 68.1995 75.7997C68.0822 76.1563 68.0444 76.5343 68.0888 76.907V82.0618H66.5898L66.5899 69.4519Z" fill="#FEFEFE"/>
<path d="M85.8701 72.9312H87.2814V74.2702H87.3166C87.6314 73.7783 88.0684 73.3766 88.5849 73.1045C89.1015 72.8323 89.6798 72.699 90.2633 72.7176C90.7929 72.6649 91.3251 72.7885 91.7774 73.0693C92.2297 73.35 92.5768 73.7721 92.765 74.2702C93.0743 73.7919 93.4988 73.3991 93.9995 73.1278C94.5003 72.8565 95.0611 72.7154 95.6305 72.7176C97.4408 72.7176 98.6597 73.4721 98.6597 75.3676V82.0619H97.1607V76.074C97.1607 74.9356 96.8651 74.0418 95.4058 74.0418C95.0905 74.0154 94.7732 74.057 94.4753 74.1637C94.1774 74.2705 93.9058 74.4399 93.6789 74.6605C93.452 74.8812 93.275 75.148 93.1599 75.4429C93.0448 75.7378 92.9943 76.054 93.0117 76.3702V82.062H91.5164V76.074C91.5164 74.8942 91.1487 74.0418 89.8033 74.0418C89.1777 74.0471 88.5777 74.2909 88.1255 74.7236C87.6734 75.1562 87.4032 75.7451 87.37 76.3702V82.062H85.8701V72.9312Z" fill="#FEFEFE"/>
<path d="M111.027 75.8593C110.95 75.3259 110.673 74.8416 110.254 74.5041C109.834 74.1667 109.302 74.0011 108.765 74.0408C106.598 74.0408 105.927 75.757 105.927 77.6041C105.927 79.2925 106.688 80.9475 108.594 80.9475C108.905 80.9672 109.216 80.9251 109.51 80.8238C109.805 80.7224 110.076 80.5637 110.308 80.3569C110.541 80.15 110.73 79.8991 110.865 79.6187C111 79.3382 111.078 79.0337 111.095 78.7229H112.633C112.602 79.2201 112.474 79.7063 112.255 80.1538C112.037 80.6013 111.732 81.0013 111.359 81.3309C110.985 81.6605 110.551 81.9133 110.08 82.0747C109.609 82.2361 109.111 82.3031 108.614 82.2718C108.013 82.2937 107.414 82.1846 106.859 81.9521C106.305 81.7196 105.807 81.3693 105.401 80.9253C104.995 80.4814 104.69 79.9544 104.508 79.381C104.325 78.8075 104.27 78.2012 104.345 77.6041C104.26 76.9922 104.307 76.3692 104.485 75.7775C104.663 75.1859 104.965 74.6395 105.373 74.1756C105.781 73.7118 106.284 73.3414 106.848 73.0898C107.412 72.8381 108.023 72.7112 108.641 72.7175C109.107 72.6562 109.581 72.6895 110.034 72.8154C110.488 72.9414 110.911 73.1574 111.279 73.4506C111.647 73.7439 111.952 74.1083 112.176 74.5221C112.4 74.9359 112.539 75.3907 112.584 75.8593H111.027Z" fill="#FEFEFE"/>
<path d="M125.369 69.4519H123.866V82.0636H125.369V69.4519Z" fill="#FEFEFE"/>
<path d="M141.703 73.2467C141.55 72.4427 141.106 71.7235 140.455 71.2277C139.804 70.7318 138.993 70.4942 138.178 70.5606C135.184 70.5606 133.907 73.0321 133.907 75.669C133.907 78.5456 135.184 80.9495 138.192 80.9495C138.673 80.9595 139.151 80.8723 139.598 80.6931C140.044 80.5138 140.449 80.2463 140.79 79.9065C141.131 79.5667 141.399 79.1616 141.579 78.7155C141.76 78.2693 141.848 77.7914 141.84 77.3102H143.512C143.502 78.0056 143.35 78.6916 143.067 79.3266C142.783 79.9616 142.374 80.5326 141.864 81.0048C141.354 81.4771 140.753 81.8409 140.099 82.0742C139.444 82.3075 138.749 82.4055 138.055 82.3622C137.221 82.375 136.395 82.2076 135.632 81.8714C134.869 81.5352 134.188 81.0382 133.635 80.4143C133.082 79.7904 132.669 79.0544 132.427 78.2565C132.184 77.4586 132.116 76.6177 132.228 75.7912C132.136 74.9532 132.221 74.1051 132.478 73.3024C132.736 72.4997 133.16 71.7605 133.724 71.1333C134.287 70.5061 134.976 70.005 135.746 69.6629C136.516 69.3207 137.35 69.1452 138.192 69.1479C139.416 69.0402 140.634 69.4047 141.597 70.1668C142.561 70.9289 143.196 72.0308 143.374 73.2467H141.703Z" fill="#FEFEFE"/>
<path d="M155.467 72.9311H156.872V74.2701H156.912C157.227 73.7782 157.664 73.3765 158.181 73.1043C158.698 72.8322 159.276 72.6989 159.86 72.7175C160.39 72.6642 160.923 72.7876 161.375 73.0683C161.828 73.3491 162.175 73.7716 162.363 74.2701C162.671 73.7917 163.094 73.3987 163.593 73.1273C164.093 72.8559 164.653 72.7149 165.221 72.7175C167.037 72.7175 168.252 73.472 168.252 75.3675V82.0618H166.757V76.0738C166.757 74.9355 166.462 74.0417 164.989 74.0417C164.674 74.0161 164.358 74.0583 164.061 74.1655C163.764 74.2727 163.494 74.4424 163.269 74.6632C163.043 74.8839 162.868 75.1506 162.754 75.445C162.64 75.7395 162.591 76.0549 162.61 76.37V82.0619H161.114V76.0738C161.114 74.8941 160.744 74.0417 159.402 74.0417C158.776 74.0465 158.175 74.2901 157.723 74.7228C157.27 75.1555 157 75.7447 156.967 76.37V82.0619H155.467V72.9311Z" fill="#FEFEFE"/>
<path d="M190.447 72.9312H191.859V74.3792H191.9C192.185 73.8502 192.615 73.4132 193.139 73.119C193.663 72.8249 194.26 72.6857 194.86 72.7176C197.256 72.7176 198.009 74.0909 198.009 76.0545V82.0619H196.506V75.876C196.524 75.6286 196.488 75.3802 196.4 75.1481C196.313 74.916 196.176 74.7056 195.999 74.5313C195.823 74.3571 195.611 74.2231 195.378 74.1385C195.145 74.054 194.896 74.021 194.649 74.0417C194.275 74.0201 193.901 74.0807 193.553 74.2194C193.204 74.3581 192.891 74.5715 192.634 74.8445C192.377 75.1174 192.184 75.4434 192.066 75.7994C191.949 76.1554 191.911 76.5329 191.955 76.9051V82.0619H190.447V72.9312Z" fill="#FEFEFE"/>
<path d="M203.842 83.2868C203.15 85.0631 202.541 85.7232 201.189 85.7232C200.84 85.7316 200.493 85.6781 200.162 85.5654V84.1856C200.445 84.2983 200.743 84.3697 201.046 84.3974C201.311 84.4028 201.571 84.3258 201.791 84.1769C202.01 84.028 202.178 83.8147 202.272 83.5662L202.89 82.0084L199.278 72.9333H200.962L203.632 80.4022H203.672L206.228 72.9333H207.805L203.842 83.2868Z" fill="#FEFEFE"/>
<path d="M47.2572 79.1649C47.1139 80.0779 46.6334 80.904 45.9109 81.4797C45.1883 82.0555 44.2761 82.3391 43.3547 82.2744C40.4418 82.2744 39.0707 80.2645 38.9836 77.4691C38.9343 76.8719 39.0078 76.2708 39.1995 75.703C39.3912 75.1353 39.6971 74.6128 40.0983 74.1678C40.4995 73.7228 40.9875 73.3647 41.5323 73.1157C42.0771 72.8666 42.6671 72.7318 43.266 72.7195C46.4957 72.7195 47.4828 75.7393 47.4014 77.9417H40.5657C40.5195 78.3337 40.56 78.7311 40.6845 79.1057C40.8089 79.4803 41.0141 79.823 41.2856 80.1093C41.5571 80.3957 41.8883 80.6189 42.2556 80.7629C42.6229 80.907 43.0174 80.9684 43.4111 80.9429C43.9548 80.9942 44.4981 80.8402 44.9342 80.5112C45.3703 80.1822 45.6678 79.702 45.7683 79.1649L47.2572 79.1649ZM45.8101 76.625C45.7965 75.9357 45.5132 75.2793 45.0211 74.7967C44.529 74.3142 43.8674 74.0441 43.1783 74.0445C42.4902 74.041 41.8287 74.3107 41.339 74.7945C40.8493 75.2782 40.5712 75.9365 40.5658 76.625H45.8101Z" fill="#FEFEFE"/>
<path d="M84.1837 79.1649C84.0391 80.0784 83.5576 80.9044 82.8342 81.4801C82.1108 82.0557 81.198 82.3392 80.2759 82.2744C77.3686 82.2744 75.9916 80.2645 75.9104 77.4691C75.8611 76.8717 75.9346 76.2705 76.1264 75.7027C76.3182 75.1348 76.6243 74.6122 77.0257 74.1672C77.427 73.7222 77.9153 73.3642 78.4603 73.1152C79.0052 72.8662 79.5954 72.7316 80.1944 72.7195C83.4225 72.7195 84.4102 75.7393 84.315 77.9417H77.486C77.4405 78.3336 77.4816 78.7307 77.6062 79.1049C77.7309 79.4792 77.9362 79.8215 78.2075 80.1077C78.4789 80.394 78.8097 80.6171 79.1767 80.7614C79.5436 80.9057 79.9378 80.9677 80.3313 80.9429C80.8759 80.9938 81.4198 80.8399 81.8571 80.5111C82.2943 80.1824 82.5935 79.7024 82.6961 79.1649L84.1837 79.1649ZM82.7365 76.625C82.7218 75.935 82.4372 75.2782 81.944 74.7957C81.4507 74.3133 80.788 74.0435 80.0982 74.0445C79.4105 74.0424 78.7499 74.3126 78.2605 74.7961C77.7712 75.2795 77.4927 75.937 77.486 76.625H82.7365Z" fill="#FEFEFE"/>
<path d="M102.512 71.2843H101.005V69.4519H102.512V71.2843ZM101.005 72.9331H102.512V82.0636H101.005V72.9331Z" fill="#FEFEFE"/>
<path d="M122.385 82.0304C122.055 82.2104 121.682 82.294 121.308 82.2717C120.534 82.2717 120.039 81.8463 120.039 80.857C119.645 81.3193 119.153 81.6867 118.597 81.9316C118.042 82.1766 117.438 82.2929 116.832 82.2717C115.174 82.2717 113.815 81.5365 113.815 79.7112C113.815 77.6439 115.35 77.2049 116.908 76.9091C118.567 76.5872 119.972 76.6889 119.972 75.5563C119.972 74.2527 118.895 74.0409 117.943 74.0409C116.674 74.0409 115.736 74.4311 115.66 75.7707H114.165C114.254 73.5109 116.004 72.7211 118.032 72.7211C119.675 72.7211 121.451 73.0849 121.451 75.2214V79.9233C121.451 80.6294 121.451 80.9475 121.926 80.9475C122.084 80.9492 122.24 80.9184 122.385 80.8571V82.0304ZM119.958 77.3425C119.097 77.7093 118.178 77.9185 117.243 77.9603C116.25 78.1388 115.399 78.489 115.399 79.6089C115.399 80.5972 116.25 80.9475 117.168 80.9475C119.142 80.9475 119.958 79.7113 119.958 78.8802V77.3425Z" fill="#FEFEFE"/>
<path d="M149.274 72.721C149.891 72.7028 150.505 72.8171 151.074 73.0561C151.644 73.2951 152.155 73.6533 152.575 74.1066C152.994 74.5599 153.312 75.0979 153.506 75.6843C153.7 76.2706 153.767 76.8918 153.701 77.5061C153.745 78.1149 153.663 78.7263 153.461 79.3021C153.258 79.8779 152.939 80.4057 152.524 80.8527C152.108 81.2996 151.605 81.6561 151.046 81.8998C150.487 82.1436 149.883 82.2694 149.273 82.2694C148.663 82.2694 148.059 82.1436 147.5 81.8998C146.941 81.6561 146.438 81.2996 146.022 80.8527C145.607 80.4057 145.288 79.8779 145.085 79.3021C144.882 78.7263 144.801 78.1149 144.845 77.5061C144.779 76.8917 144.846 76.2704 145.04 75.684C145.235 75.0975 145.553 74.5595 145.972 74.1062C146.392 73.6529 146.904 73.2947 147.473 73.0558C148.043 72.8168 148.657 72.7027 149.274 72.721ZM149.274 80.9448C150.844 80.9448 152.112 79.7095 152.112 77.5062C152.112 75.2731 150.844 74.0389 149.274 74.0389C147.704 74.0389 146.434 75.2731 146.434 77.5062C146.434 79.7095 147.704 80.9448 149.274 80.9448V80.9448Z" fill="#FEFEFE"/>
<path d="M170.572 72.9276H172.073V74.1629H172.1C172.404 73.6754 172.838 73.2824 173.354 73.0277C173.869 72.7731 174.444 72.667 175.016 72.7212C175.618 72.7268 176.212 72.8595 176.759 73.1108C177.306 73.3621 177.794 73.7262 178.191 74.1794C178.587 74.6325 178.884 75.1643 179.06 75.7401C179.237 76.3158 179.29 76.9224 179.216 77.5202C179.292 78.1132 179.241 78.7156 179.066 79.2873C178.892 79.8591 178.598 80.3871 178.203 80.8365C177.809 81.2858 177.324 81.6462 176.78 81.8937C176.236 82.1411 175.646 82.2701 175.049 82.2719C174.478 82.2926 173.911 82.1732 173.397 81.9244C172.883 81.6755 172.438 81.3046 172.1 80.8441H172.073V85.5588H170.572V72.9276ZM174.803 74.0409C172.795 74.0409 172.019 75.7708 172.019 77.4867C172.019 79.2926 172.835 80.9475 174.9 80.9475C176.94 80.9475 177.627 79.1955 177.627 77.4165C177.627 75.7006 176.743 74.0408 174.803 74.0408V74.0409Z" fill="#FEFEFE"/>
<path d="M189.057 82.0303C188.725 82.2093 188.35 82.2928 187.973 82.2717C187.205 82.2717 186.72 81.8463 186.72 80.857C186.324 81.3194 185.83 81.6866 185.273 81.9315C184.716 82.1764 184.111 82.2927 183.503 82.2717C181.843 82.2717 180.48 81.5365 180.48 79.7112C180.48 77.6439 182.018 77.2049 183.571 76.9091C185.231 76.5872 186.643 76.6889 186.643 75.5563C186.643 74.2527 185.567 74.0409 184.616 74.0409C183.339 74.0409 182.407 74.4311 182.338 75.7707H180.837C180.928 73.5109 182.674 72.7211 184.705 72.7211C186.342 72.7211 188.124 73.0849 188.124 75.2214V79.9232C188.124 80.6294 188.124 80.9475 188.597 80.9475C188.755 80.9484 188.911 80.9177 189.057 80.8571V82.0303ZM186.623 77.3425C185.762 77.7099 184.843 77.9192 183.908 77.9603C182.915 78.1388 182.072 78.489 182.072 79.6089C182.072 80.5972 182.915 80.9475 183.84 80.9475C185.809 80.9475 186.623 79.7113 186.623 78.8802V77.3425Z" fill="#FEFEFE"/>
<path d="M86.3363 18.149H105.208C106.463 18.0126 107.732 18.1385 108.936 18.5189C110.139 18.8993 111.251 19.5257 112.199 20.3586C113.148 21.1914 113.913 22.2125 114.447 23.357C114.98 24.5014 115.27 25.7444 115.298 27.0069C115.348 28.4467 114.964 29.8684 114.196 31.0871C113.429 32.3058 112.312 33.2652 110.992 33.8407C112.782 34.316 114.359 35.3824 115.468 36.867C116.576 38.3516 117.15 40.1674 117.098 42.0197C117.098 46.8931 113.567 52.0683 105.229 52.0683H86.3223L86.3363 18.149ZM96.6389 44.4044H103.471C103.922 44.4397 104.375 44.3811 104.802 44.2322C105.229 44.0834 105.62 43.8475 105.951 43.5396C106.283 43.2316 106.546 42.8583 106.726 42.4431C106.906 42.028 106.997 41.58 106.995 41.1276C106.98 40.7313 106.885 40.3421 106.715 39.9836C106.546 39.6252 106.305 39.3049 106.008 39.0423C105.711 38.7796 105.364 38.5801 104.987 38.4557C104.611 38.3312 104.213 38.2846 103.818 38.3185H96.6389V44.4044ZM96.6659 31.5032H102.156C104.669 31.5032 105.654 30.3372 105.654 28.6241C105.67 28.2619 105.607 27.9007 105.47 27.5649C105.334 27.2292 105.127 26.9268 104.863 26.6784C104.599 26.4299 104.285 26.2412 103.942 26.1251C103.598 26.009 103.234 25.9682 102.874 26.0055H96.666L96.6659 31.5032Z" fill="#FEFEFE"/>
<path d="M127.829 18.1526H138.74L151.171 52.024H139.966L138.336 46.9525H127.877L126.485 51.9963H115.369L127.829 18.1526ZM132.839 28.2012L129.966 39.5132H136.118L132.839 28.2012Z" fill="#FEFEFE"/>
<path d="M168.578 28.2245H178.982C178.982 22.4751 174.662 17.1331 164.408 17.1331C153.155 17.1331 149.67 23.3509 149.67 27.9038C149.67 35.2387 158.631 37.185 158.911 37.2819C160.259 37.6916 165.81 39.1939 167.215 39.6879C167.833 39.8455 168.389 40.1867 168.809 40.6665C169.229 41.1463 169.494 41.7421 169.569 42.3756C169.569 44.3561 167.215 45.3022 165.251 45.3022C164.561 45.3753 163.863 45.3032 163.202 45.0903C162.542 44.8775 161.933 44.5287 161.415 44.0664C160.897 43.6041 160.482 43.0385 160.196 42.4059C159.91 41.7733 159.759 41.0879 159.753 40.3935H149.007C149.007 46.3655 153.108 53.0346 164.595 53.0346C177.276 53.0346 179.94 45.4594 179.94 41.4291C179.919 39.5284 179.319 37.6795 178.219 36.1297C177.119 34.5799 175.572 33.4032 173.785 32.7571C171.204 31.7094 166.921 30.7958 164.778 30.1663C163.681 29.8437 160.075 29.1169 160.075 26.9086C160.075 24.086 164.724 24.4412 164.053 24.4412C164.6 24.3822 165.154 24.4341 165.681 24.5939C166.207 24.7537 166.696 25.0181 167.119 25.3712C167.541 25.7243 167.888 26.159 168.139 26.6492C168.39 27.1394 168.539 27.6752 168.578 28.2245" fill="#FEFEFE"/>
<path d="M181.703 18.1422H207.675V27.0959H192.083V33.0618H205.983V41.6142H192.031V52.0586H181.657L181.703 18.1422Z" fill="#FEFEFE"/>
<path d="M18.6006 52.0704H52.4722V18.149H18.6006V52.0704ZM42.0455 41.6286H29.026V28.5843H42.0455V41.6286Z" fill="#F5B3B6"/>
<path d="M75.9104 28.5843H62.8906V41.6285H75.9104V28.5843Z" fill="#F5B3B6"/>
</g>
<defs>
<clipPath id="clip0">
<rect width="224.528" height="100" fill="white" transform="translate(0.731445)"/>
</clipPath>
</defs>
</svg>
