<svg width="216" height="50" viewBox="0 0 216 50" fill="none" xmlns="http://www.w3.org/2000/svg">
<g clip-path="url(#clip0)">
<path fill-rule="evenodd" clip-rule="evenodd" d="M12.2233 10.4898V19.7784H20.5413C21.2032 19.833 21.8694 19.7558 22.5011 19.5512C23.1329 19.3466 23.7177 19.0188 24.2216 18.5868C24.7254 18.1548 25.1384 17.6271 25.4364 17.0345C25.7344 16.4419 25.9115 15.796 25.9575 15.1345C25.9461 14.4611 25.7919 13.7978 25.5052 13.1882C25.2185 12.5786 24.8057 12.0365 24.294 11.5977C23.7823 11.1589 23.1833 10.8333 22.5365 10.6424C21.8897 10.4514 21.2097 10.3994 20.5413 10.4898L12.2233 10.4898ZM12.6608 28.6303V38.7389H21.5254C25.3561 38.7389 27.5998 36.881 27.5998 33.6574C27.5864 32.9443 27.4249 32.2418 27.1255 31.5943C26.8261 30.9468 26.3952 30.3684 25.8603 29.8958C25.3253 29.4233 24.6979 29.0668 24.0177 28.8489C23.3376 28.6311 22.6195 28.5566 21.9091 28.6303H12.6608ZM0.731445 47.8082V0.818686H23.1677C30.227 0.818686 37.8869 5.6821 37.8869 13.3317C37.8869 18.1392 36.8473 21.3638 32.2508 23.8212C37.2855 26.007 40.1313 27.2093 39.9128 36.2797C39.9128 45.1856 32.2508 47.8082 20.3221 47.8082L0.731445 47.8082ZM54.8516 25.0241C54.8177 27.1415 55.1509 29.2488 55.8365 31.2527C56.2495 32.8493 57.1711 34.2686 58.4625 35.2965C59.2562 36.373 60.3962 37.1446 61.6916 37.482C62.7899 37.9065 63.9612 38.1108 65.1386 38.0832C66.3687 38.097 67.5916 37.8934 68.7508 37.482C70.0331 37.1169 71.1645 36.3509 71.9788 35.2965C73.167 34.1788 74.068 32.7918 74.6054 31.2527C75.1485 29.2208 75.4248 27.1271 75.4272 25.0241C75.4362 22.9022 75.1598 20.7888 74.6054 18.7404C73.971 17.2018 73.0832 15.78 71.9788 14.534C71.0517 13.6479 69.9533 12.9598 68.7508 12.5119C67.5742 12.1962 66.3553 12.0672 65.1386 12.1295C63.9761 12.058 62.81 12.1874 61.6916 12.5119C60.476 12.9336 59.3719 13.6249 58.4625 14.534C57.2489 15.695 56.3461 17.1412 55.8365 18.7404C55.1375 20.76 54.804 22.8878 54.8516 25.0241V25.0241ZM43.3591 24.4232C43.1191 20.1887 43.9471 15.9617 45.7672 12.1295C46.984 9.07936 49.008 6.41671 51.6229 4.42616C53.7839 2.93488 56.1659 1.79158 58.6821 1.03802C60.7808 0.417236 62.9508 0.0683719 65.1386 0C67.3969 0.0836558 69.6375 0.432052 71.8144 1.03802C74.3619 1.70877 76.7577 2.85872 78.8735 4.42616C81.5346 6.37028 83.5697 9.04747 84.7293 12.1295C86.4459 15.995 87.2686 20.1968 87.1362 24.4232C87.3047 28.7759 86.4817 33.1101 84.7293 37.0992C83.5844 40.1747 81.5453 42.8384 78.8735 44.7485C76.668 46.3123 74.2048 47.4773 71.5958 48.1906C69.4949 48.7951 67.3245 49.1256 65.1386 49.174C62.9554 49.098 60.7886 48.768 58.6821 48.1906C56.1551 47.4395 53.77 46.2764 51.6229 44.7485C48.9968 42.7918 46.969 40.1429 45.7671 37.0992C43.9108 33.1429 43.0826 28.7834 43.3591 24.4232V24.4232ZM89.9817 41.1433L97.0409 33.876C100.338 37.0088 104.601 38.9346 109.134 39.3399C113.184 39.3399 115.811 38.9017 115.811 35.2965C115.897 34.4382 115.65 33.5796 115.12 32.8982C114.591 32.2168 113.819 31.7647 112.965 31.6352C108.518 30.5188 104.15 29.1134 99.8872 27.4281C94.6336 24.8055 91.4056 21.9647 91.4056 14.534C91.4055 2.02093 105.305 0 109.572 0.21816C112.614 0.284564 115.611 0.962237 118.385 2.21073C121.158 3.45922 123.652 5.25293 125.716 7.48478C123.044 9.86963 120.607 12.5042 118.437 15.3524C117.333 13.8595 115.912 12.6295 114.275 11.751C112.638 10.8724 110.826 10.3672 108.97 10.2716C105.906 10.2716 102.897 11.6927 103.116 14.7513C103.28 16.9376 103.881 18.1392 105.906 18.5761C108.149 19.1772 110.338 19.9426 117.015 21.5811C119.979 22.1429 122.64 23.7597 124.501 26.1313C126.363 28.5028 127.3 31.4683 127.138 34.4772C126.92 44.1476 120.024 49.3927 110.777 49.3927C102.459 49.3928 95.8383 47.372 89.9817 41.1433ZM171.736 10.8725L162.051 17.1551C160.243 15.3524 158 11.9106 152.529 11.9106C149.135 11.9106 142.843 14.9155 142.843 24.4232C142.843 34.2584 147.111 38.7389 153.569 38.5201C158.603 38.3007 159.643 37.3178 162.653 33.6574L171.517 40.3228C168.29 44.5851 164.238 50.2127 153.13 49.9938C141.256 49.7757 130.749 40.3228 130.749 24.4232C130.968 11.3097 140.052 0.601206 152.529 0.601206C156.32 0.655818 160.042 1.61698 163.384 3.40413C166.726 5.19127 169.59 7.75231 171.736 10.8725V10.8725ZM203.201 30.4329H188.262V49.174H175.95V1.80273H188.262V19.5605H203.201V1.80273H215.731V49.1739H203.201V30.4329Z" fill="#E5252B"/>
</g>
<defs>
<clipPath id="clip0">
<rect width="215" height="50" fill="white" transform="translate(0.731445)"/>
</clipPath>
</defs>
</svg>
