<svg width="325" height="75" viewBox="0 0 325 75" fill="none" xmlns="http://www.w3.org/2000/svg">
<g clip-path="url(#clip0)">
<path d="M308.891 40.3295V24.114H303.156V53.5973H308.891V46.9422L310.853 44.7103L316.211 53.5974H323.039L314.777 40.6246L322.36 32.2012H315.456L308.891 40.3295ZM285.462 32.2012H279.954V53.5974H285.688V41.5516C285.688 40.6247 285.764 35.6965 289.537 35.6965C292.592 35.6965 292.782 39.1082 292.782 41.2141V53.5974H298.516V40.1612C298.516 32.2012 294.705 31.4011 292.102 31.4011C290.803 31.3522 289.514 31.6355 288.353 32.2246C287.192 32.8137 286.197 33.6894 285.462 34.7704L285.462 32.2012ZM269.54 44.7525C269.54 49.0481 266.749 50.1009 265.352 50.1009C264.995 50.1464 264.633 50.1171 264.287 50.0147C263.942 49.9124 263.621 49.7392 263.345 49.506C263.068 49.2728 262.843 48.9847 262.682 48.6595C262.521 48.3344 262.428 47.9792 262.41 47.6163C262.41 45.2154 264.561 44.7525 265.767 44.5418C267.089 44.429 268.373 44.0417 269.54 43.4044L269.54 44.7525ZM262.9 39.108C262.861 38.6388 262.927 38.1668 263.092 37.7263C263.256 37.2858 263.516 36.8878 263.852 36.5612C264.188 36.2345 264.592 35.9875 265.034 35.8379C265.476 35.6883 265.946 35.64 266.409 35.6963C266.802 35.6448 267.202 35.68 267.58 35.7993C267.958 35.9187 268.306 36.1194 268.6 36.3876C268.894 36.6559 269.127 36.9853 269.283 37.3532C269.439 37.7211 269.514 38.1186 269.503 38.5186V39.108C269.389 41.214 267.88 40.7929 263.655 41.5093C260.183 42.141 256.524 43.3199 256.524 48.2057C256.468 49.0818 256.607 49.9595 256.931 50.7743C257.255 51.589 257.755 52.3202 258.396 52.9141C259.036 53.5079 259.801 53.9494 260.632 54.2061C261.464 54.4628 262.342 54.5281 263.202 54.3973C264.422 54.4564 265.639 54.2241 266.753 53.7191C267.868 53.2142 268.848 52.4509 269.615 51.4914H269.73L270.219 53.5974H276.256V53.2186C275.162 52.9233 275.087 51.4914 275.124 49.175L275.238 39.4033C275.276 36.9187 275.087 31.4011 266.446 31.4011C264.372 31.4011 257.693 31.653 257.429 39.1081L262.9 39.108ZM236.377 41.172H242.036C244.3 41.172 246.262 41.7621 246.262 44.5418C246.267 44.9921 246.181 45.4387 246.009 45.8539C245.836 46.2692 245.581 46.6444 245.259 46.9562C244.938 47.2681 244.556 47.51 244.138 47.6671C243.72 47.8241 243.274 47.8929 242.829 47.8693H236.377V41.172ZM236.377 29.8422H241.847C244.602 29.8422 245.206 31.4848 245.206 32.7068C245.227 33.1184 245.161 33.5299 245.011 33.9135C244.862 34.2972 244.633 34.6442 244.34 34.9313C244.047 35.2184 243.697 35.4389 243.312 35.5782C242.928 35.7174 242.519 35.7722 242.112 35.7387H236.377V29.8422ZM230.152 24.114V53.5973H242.716C247.432 53.5973 252.827 52.4597 252.827 45.3419C252.979 43.6061 252.488 41.875 251.45 40.4826C250.412 39.0903 248.9 38.1354 247.205 37.8023V37.7602C248.513 37.3845 249.654 36.5711 250.443 35.4536C251.231 34.3362 251.62 32.9812 251.544 31.6113C251.544 28.4103 250.3 24.1139 243.394 24.1139L230.152 24.114ZM210.345 24.114V53.5973H216.079V24.114H210.345ZM199.932 44.7525C199.932 49.0481 197.14 50.1009 195.744 50.1009C195.387 50.1465 195.024 50.1172 194.679 50.0149C194.333 49.9125 194.012 49.7394 193.736 49.5062C193.46 49.273 193.234 48.9848 193.074 48.6596C192.913 48.3344 192.82 47.9793 192.801 47.6163C192.801 45.2154 194.952 44.7525 196.158 44.5418C197.48 44.429 198.765 44.0418 199.932 43.4044L199.932 44.7525ZM193.292 39.108C193.253 38.6388 193.319 38.1669 193.483 37.7264C193.648 37.2859 193.908 36.8879 194.243 36.5613C194.579 36.2347 194.983 35.9876 195.425 35.838C195.867 35.6884 196.337 35.64 196.8 35.6963C197.193 35.6449 197.593 35.68 197.971 35.7993C198.349 35.9187 198.697 36.1194 198.991 36.3876C199.285 36.6559 199.518 36.9853 199.674 37.3532C199.83 37.721 199.905 38.1186 199.894 38.5186V39.108C199.78 41.214 198.272 40.7929 194.046 41.5093C190.575 42.141 186.915 43.3199 186.915 48.2057C186.859 49.0818 186.998 49.9594 187.322 50.7742C187.646 51.5889 188.147 52.32 188.787 52.9139C189.428 53.5078 190.192 53.9492 191.023 54.2059C191.855 54.4626 192.733 54.528 193.593 54.3973C194.813 54.4565 196.03 54.2242 197.145 53.7193C198.259 53.2143 199.24 52.451 200.007 51.4914H200.121L200.611 53.5974H206.647V53.2186C205.553 52.9233 205.478 51.4914 205.516 49.175L205.629 39.4033C205.667 36.9187 205.478 31.4011 196.838 31.4011C194.763 31.4011 188.085 31.653 187.821 39.1081L193.292 39.108ZM171.07 36.4965H174.541V47.9531C174.541 52.3339 175.824 54.1868 179.672 54.1868C181.247 54.1427 182.813 53.9454 184.351 53.5974V49.3011C183.777 49.5441 183.162 49.6727 182.539 49.6799C180.087 49.6799 180.275 48.0797 180.275 46.7739V36.4965H184.351V32.2012H180.275V25.7988H174.541V32.2012H171.07V36.4965ZM162.393 29.1259H168.127V24.114H162.393V29.1259ZM162.393 32.2012V53.5974H168.127V32.2012H162.393ZM143.717 42.8573C143.717 36.8756 146.471 35.6963 148.207 35.6963C149.904 35.6963 152.658 36.8756 152.658 42.8573C152.658 46.5634 151.489 50.1009 148.207 50.1009C144.849 50.1009 143.717 46.5634 143.717 42.8573V42.8573ZM138.246 32.2012V61.3892H143.981V51.4068C144.652 52.3273 145.527 53.0769 146.535 53.5961C147.544 54.1153 148.659 54.3897 149.791 54.3974C155.261 54.3974 158.619 49.7224 158.619 42.9412C158.619 35.8655 155.3 31.4012 149.904 31.4012C148.675 31.3907 147.463 31.6941 146.382 32.2832C145.3 32.8722 144.383 33.7279 143.717 34.7705H143.604L143.641 32.2013L138.246 32.2012ZM127.833 44.7525C127.833 49.0481 125.041 50.1009 123.645 50.1009C123.288 50.1465 122.926 50.1172 122.58 50.0148C122.235 49.9125 121.914 49.7393 121.638 49.5061C121.361 49.273 121.136 48.9848 120.975 48.6596C120.814 48.3344 120.721 47.9793 120.703 47.6163C120.703 45.2154 122.853 44.7525 124.06 44.5418C125.382 44.429 126.666 44.0417 127.833 43.4044L127.833 44.7525ZM121.193 39.108C121.154 38.6389 121.22 38.1669 121.384 37.7264C121.549 37.2859 121.809 36.8879 122.145 36.5613C122.481 36.2347 122.884 35.9876 123.326 35.838C123.769 35.6884 124.238 35.64 124.701 35.6963C125.094 35.6448 125.494 35.68 125.872 35.7993C126.25 35.9187 126.599 36.1194 126.893 36.3876C127.187 36.6559 127.42 36.9853 127.575 37.3532C127.731 37.7211 127.806 38.1186 127.795 38.5186V39.108C127.682 41.214 126.173 40.7929 121.947 41.5093C118.476 42.141 114.817 43.3199 114.817 48.2057C114.761 49.0818 114.9 49.9594 115.224 50.7741C115.548 51.5888 116.048 52.32 116.689 52.9138C117.329 53.5077 118.093 53.9492 118.925 54.2059C119.756 54.4626 120.635 54.528 121.495 54.3973C122.715 54.4565 123.932 54.2242 125.046 53.7193C126.161 53.2143 127.141 52.451 127.908 51.4914H128.022L128.512 53.5974H134.549V53.2186C133.454 52.9233 133.379 51.4914 133.417 49.175L133.53 39.4033C133.568 36.9187 133.379 31.4011 124.74 31.4011C122.664 31.4011 115.987 31.653 115.722 39.1081L121.193 39.108ZM105.8 43.1938C105.781 44.6653 105.189 46.0702 104.15 47.1033C103.112 48.1363 101.712 48.7142 100.254 48.7114C96.028 48.7114 93.7644 44.7102 93.7644 39.1503C93.7644 29.2941 98.6694 28.9997 100.065 28.9997C100.769 28.9355 101.479 29.0211 102.148 29.251C102.817 29.4808 103.431 29.8498 103.95 30.3341C104.469 30.8184 104.882 31.4073 105.162 32.0626C105.441 32.718 105.582 33.4252 105.574 34.1387H111.685C111.497 29.8 109.12 23.2718 99.7635 23.2718C97.2356 23.2718 87.0488 23.8613 87.0488 39.4032C87.0488 50.9858 93.2369 54.4397 99.9896 54.4397C109.346 54.4397 111.572 47.6163 111.987 43.1938H105.8Z" fill="#E62F25"/>
<path d="M84.9795 74.2181V68.0768H86.4756V70.7963L89.484 68.0768H91.4931L88.6996 70.471L91.6355 74.2181H89.7096L87.679 71.3359L86.4756 72.3581V74.2181H84.9795Z" fill="#E62F25"/>
<path d="M115.204 71.7836L114.184 69.5101L113.184 71.7836H115.204ZM117.935 74.2191H116.327L115.688 72.8209H112.731L112.113 74.2191H110.536L113.4 68.0765H114.977L117.935 74.2191Z" fill="#E62F25"/>
<path d="M137.367 74.2181V73.1037L141.251 69.1153H137.808V68.0768H143.209V69.0367L139.17 73.1823H143.362V74.2181H137.367Z" fill="#E62F25"/>
<path d="M167.512 71.7836L166.491 69.5101L165.492 71.7836H167.512ZM170.242 74.2191H168.635L167.995 72.8209H165.039L164.42 74.2191H162.843L165.708 68.0765H167.285L170.242 74.2191Z" fill="#E62F25"/>
<path d="M189.149 74.2181V68.0768H190.643V70.7963L193.654 68.0768H195.663L192.87 70.471L195.808 74.2181H193.882L191.849 71.3359L190.643 72.3581V74.2181H189.149Z" fill="#E62F25"/>
<path d="M214.266 74.2181V68.0768H215.762V70.4954H218.668V68.0768H220.161V74.2181H218.668V71.5338H215.762V74.2181H214.266Z" fill="#E62F25"/>
<path d="M239.41 72.2292L240.863 72.1086C240.924 72.4608 241.111 72.7783 241.388 73.0009C241.712 73.2054 242.09 73.3044 242.471 73.2846C242.849 73.309 243.225 73.2194 243.552 73.027C243.657 72.9677 243.746 72.8822 243.809 72.7786C243.872 72.675 243.908 72.5568 243.913 72.4352C243.914 72.3663 243.901 72.2979 243.874 72.2344C243.847 72.1709 243.808 72.1137 243.758 72.0664C243.603 71.9363 243.419 71.8452 243.223 71.8005C243.058 71.749 242.656 71.6631 242.038 71.5346C241.446 71.4479 240.878 71.2405 240.368 70.9251C240.163 70.7898 239.993 70.6057 239.874 70.3889C239.756 70.1721 239.692 69.9292 239.688 69.6816C239.689 69.3609 239.802 69.0509 240.008 68.8061C240.248 68.514 240.566 68.297 240.925 68.1806C241.393 68.0254 241.885 67.9526 242.378 67.9653C243.108 67.915 243.835 68.0949 244.46 68.4801C244.682 68.6312 244.864 68.8342 244.991 69.0718C245.119 69.3093 245.187 69.5745 245.191 69.8446L243.697 69.8876C243.679 69.7516 243.635 69.6205 243.566 69.5024C243.496 69.3842 243.404 69.2815 243.295 69.2004C243.007 69.0461 242.683 68.9751 242.357 68.9953C242.007 68.977 241.659 69.054 241.348 69.2182C241.277 69.2545 241.218 69.3097 241.176 69.3777C241.134 69.4457 241.111 69.524 241.11 69.6041C241.112 69.6803 241.135 69.7546 241.174 69.8194C241.214 69.8841 241.27 69.9371 241.337 69.9729C241.763 70.1897 242.224 70.3292 242.698 70.385C243.247 70.4806 243.785 70.6299 244.305 70.8308C244.625 70.9658 244.905 71.1815 245.119 71.4572C245.321 71.7413 245.423 72.0859 245.408 72.4355C245.406 72.7952 245.282 73.1435 245.057 73.4225C244.798 73.7449 244.45 73.9834 244.058 74.1082C243.537 74.27 242.994 74.3454 242.45 74.3316C241.698 74.3796 240.949 74.1906 240.307 73.7907C240.056 73.6099 239.846 73.3772 239.692 73.108C239.537 72.8388 239.441 72.5394 239.41 72.2298" fill="#E62F25"/>
<path d="M269.21 74.2181V69.1153H267.023V68.0768H272.879V69.1153H270.703V74.2181H269.21Z" fill="#E62F25"/>
<path d="M296.677 71.7836L295.656 69.5101L294.657 71.7836H296.677ZM299.408 74.2191H297.801L297.161 72.8209H294.204L293.585 74.2191H292.009L294.873 68.0765H296.45L299.408 74.2191Z" fill="#E62F25"/>
<path d="M318.297 74.2181V68.0768H319.739L322.78 72.1954V68.0768H324.16V74.2181H322.667L319.677 70.1781V74.2181H318.297Z" fill="#E62F25"/>
<path d="M75.2198 0H0.919922V75H75.2198V0Z" fill="#FAB94A"/>
<path fill-rule="evenodd" clip-rule="evenodd" d="M38.0125 21.8776C41.0704 21.8917 44.0556 22.8199 46.5914 24.5451C49.1271 26.2702 51.0998 28.715 52.2603 31.5708C53.4208 34.4267 53.7172 37.5655 53.1121 40.5912C52.5069 43.6169 51.0274 46.3939 48.8602 48.5715C46.693 50.7492 43.9353 52.23 40.9351 52.827C37.9349 53.424 34.8268 53.1105 32.0029 51.926C29.1791 50.7415 26.7662 48.7391 25.0688 46.1716C23.3714 43.604 22.4655 40.5865 22.4655 37.4997C22.4701 35.4435 22.8758 33.4083 23.6596 31.5103C24.4434 29.6124 25.5899 27.8889 27.0336 26.4382C28.4773 24.9876 30.1899 23.8382 32.0737 23.0556C33.9575 22.2731 35.9755 21.8728 38.0125 21.8776V21.8776ZM38.0125 6.88188C44.0057 6.90934 49.8565 8.72836 54.8264 12.1094C59.7963 15.4903 63.6626 20.2818 65.9373 25.8788C68.2119 31.4759 68.793 37.6278 67.6071 43.5579C66.4213 49.488 63.5216 54.9306 59.2742 59.1987C55.0267 63.4668 49.6219 66.3691 43.7418 67.5393C37.8618 68.7095 31.7701 68.095 26.2357 65.7736C20.7013 63.4521 15.9722 59.5277 12.6454 54.4957C9.3185 49.4636 7.543 43.5495 7.54297 37.4997C7.552 33.4698 8.34729 29.4811 9.88342 25.7614C11.4195 22.0418 13.6664 18.6639 16.4958 15.8208C19.3252 12.9777 22.6816 10.7249 26.3734 9.19119C30.0653 7.65744 34.0203 6.87274 38.0125 6.88188V6.88188Z" fill="#E62F25"/>
<path fill-rule="evenodd" clip-rule="evenodd" d="M48.7705 26.2006C52.1412 22.7115 56.1826 18.7995 59.5517 15.3102C71.9792 28.8033 72.8618 44.3115 60.0551 59.8967C56.6852 56.3642 52.1412 51.985 48.7705 48.4525C55.383 40.188 54.2586 33.0704 48.7705 26.2006Z" fill="#FAB74A"/>
</g>
<defs>
<clipPath id="clip0">
<rect width="323.239" height="75" fill="white" transform="translate(0.919922)"/>
</clipPath>
</defs>
</svg>
