<svg width="320" height="113" viewBox="0 0 320 113" fill="none" xmlns="http://www.w3.org/2000/svg">
<g clip-path="url(#clip0)">
<path fill-rule="evenodd" clip-rule="evenodd" d="M35.94 23.8903H23.4127V36.4039L3.29704 56.4995L18.7493 71.9375L23.4127 76.5962V89.1104H35.94L40.6023 93.7685L56.0557 109.205L71.5076 93.7685L76.1713 89.1104H88.6976V76.5963L93.362 71.9376L108.813 56.4996L93.362 41.0629L88.6976 36.4039V23.8903H76.1713L71.5076 19.2315L56.0557 3.79463L35.94 23.8903ZM18.7493 19.2315H37.3053L56.0557 0.5L74.8046 19.2315H93.362V37.7691L112.111 56.4996L93.362 75.2309V93.7686H74.8046L56.0557 112.5L37.3053 93.7686H18.7493V75.2309L0 56.4996L18.7493 37.7691V19.2315ZM88.6976 42.9923L102.219 56.4996L56.0557 102.618L42.5337 89.1104H42.5359C40.1212 86.489 38.5233 83.2215 37.9376 79.7075C37.3519 76.1934 37.8038 72.585 39.238 69.3233C40.6721 66.0617 43.0265 63.2882 46.0133 61.3418C49 59.3955 52.4897 58.3606 56.0557 58.3638C62.2939 58.3618 68.4546 56.9831 74.0974 54.3261C79.7402 51.6692 84.7257 47.7996 88.6976 42.9941V42.9923ZM9.89182 56.4996L56.0557 10.3822L69.5762 23.8902H69.5751C71.9894 26.5117 73.587 29.7791 74.1725 33.293C74.758 36.8068 74.306 40.415 72.872 43.6764C71.4379 46.9378 69.0837 49.7113 66.0973 51.6576C63.1108 53.604 59.6215 54.6391 56.0557 54.6362C49.8173 54.6381 43.6564 56.0168 38.0134 58.6737C32.3704 61.3307 27.3847 65.2003 23.4127 70.0059V70.0076L9.89182 56.4996Z" fill="#117A5D"/>
<path fill-rule="evenodd" clip-rule="evenodd" d="M192.227 82.5877L184.766 67.6803L177.305 82.5877H192.227ZM123.212 78.8612V88.1785H144.663C145.276 88.1802 145.884 88.0609 146.451 87.8275C147.018 87.5942 147.534 87.2513 147.968 86.8185C148.403 86.3858 148.748 85.8716 148.983 85.3056C149.218 84.7395 149.339 84.1326 149.339 83.5198C149.339 82.9069 149.218 82.3 148.983 81.734C148.748 81.1679 148.403 80.6538 147.968 80.221C147.534 79.7882 147.018 79.4453 146.451 79.212C145.884 78.9786 145.276 78.8594 144.663 78.8611L123.212 78.8612ZM123.212 63.9539V73.2714H144.663C145.276 73.2731 145.884 73.1538 146.451 72.9204C147.018 72.6871 147.534 72.3442 147.968 71.9114C148.403 71.4786 148.748 70.9645 148.983 70.3984C149.218 69.8324 149.339 69.2255 149.339 68.6127C149.339 67.9998 149.218 67.3929 148.983 66.8269C148.748 66.2608 148.403 65.7467 147.968 65.3139C147.534 64.8811 147.018 64.5382 146.451 64.3049C145.884 64.0715 145.276 63.9522 144.663 63.9539H123.212ZM210.879 58.3639H220.207L246.321 84.4519V58.3639H255.646L255.647 93.7687H246.321L220.207 67.6803V93.7687H210.879V58.3639ZM275.419 76.0657L299.482 58.3639H289.223L268.705 73.2714V58.3639H259.378V93.7687H268.705V78.8612L289.223 93.7687H299.482L275.419 76.0657ZM279.897 19.2315H289.223V34.1391L309.74 19.2316H320L295.938 36.9345L320 54.6363H309.74L289.223 39.7298V54.6363H279.897V19.2315ZM259.378 39.7297V54.6363H250.051V39.7297L232.331 19.2315H241.657L254.715 34.1391L267.77 19.2316H277.098L259.378 39.7297ZM210.879 19.2315H220.207V49.0465H246.321V54.6363H210.879V19.2315ZM184.766 28.549L192.227 43.4565H177.305L184.766 28.549ZM197.822 54.6363H207.149L189.429 19.2315H180.103L162.383 54.6363H171.709L174.506 49.0465H195.025L197.822 54.6363ZM113.885 19.2315H123.212V34.1391H149.326V19.2315H158.652V54.6363H149.326V39.7297H123.212V54.6363H113.885V19.2315ZM113.885 58.3639H149.793C152.139 58.3686 154.388 59.3032 156.046 60.9625C157.704 62.6219 158.635 64.8705 158.635 67.2148C158.635 69.5592 157.704 71.8078 156.046 73.4671C154.388 75.1265 152.139 76.0611 149.793 76.0657C152.139 76.0704 154.388 77.0051 156.046 78.6645C157.704 80.324 158.635 82.5727 158.635 84.9172C158.635 87.2617 157.704 89.5104 156.046 91.1699C154.388 92.8293 152.139 93.764 149.793 93.7687H113.885V58.3639ZM171.709 93.7687H162.383L180.103 58.3639H189.429L207.149 93.7687H197.822L195.025 88.1785H174.506L171.709 93.7687Z" fill="#117A5D"/>
<path fill-rule="evenodd" clip-rule="evenodd" d="M162.753 0.597321H170.215V1.5297H167.23V6.1874H165.739V1.5297H162.753V0.597321ZM107.045 4.32405L108.289 1.99448L109.531 4.32405H107.045ZM109.034 0.597321H107.542L104.557 6.1874H106.049L106.547 5.25545H110.028L110.526 6.1874H112.018L109.034 0.597321ZM117.427 0.597321C117.18 0.598228 116.944 0.696788 116.769 0.87148C116.594 1.04617 116.496 1.2828 116.495 1.5297V2.46078H117.987V1.5297H121.718V2.9269H119.852V3.85818H121.718V5.25545H117.987V4.32405H116.495V5.25545C116.496 5.50228 116.594 5.73882 116.769 5.91343C116.944 6.08803 117.18 6.18653 117.427 6.1874H122.278C122.525 6.18653 122.762 6.08803 122.936 5.91343C123.111 5.73882 123.209 5.50228 123.21 5.25545V4.32405C123.209 4.08126 123.114 3.8483 122.944 3.67448C122.774 3.50066 122.544 3.39963 122.301 3.39277C122.544 3.38564 122.774 3.28444 122.944 3.11053C123.114 2.93662 123.209 2.70364 123.21 2.46081V1.5297C123.209 1.2828 123.111 1.04617 122.936 0.87148C122.762 0.696788 122.525 0.598228 122.278 0.597321H117.427ZM130.174 4.32405L131.418 1.99448L132.66 4.32405H130.174ZM132.164 0.597321H130.671L127.687 6.1874H129.179L129.676 5.25545H133.158L133.656 6.1874H135.148L132.164 0.597321ZM151.749 0.597321H157.344C157.591 0.597826 157.828 0.696224 158.003 0.870972C158.178 1.04572 158.276 1.28258 158.277 1.5297V2.46078H156.785V1.5297H152.308V5.25545H156.785V4.32405H158.277V5.25545C158.276 5.5025 158.178 5.73927 158.003 5.91393C157.828 6.0886 157.591 6.18693 157.344 6.1874H151.749C151.501 6.1867 151.265 6.08827 151.09 5.91362C150.915 5.73898 150.817 5.50234 150.816 5.25545V1.5297C150.817 1.28275 150.915 1.04601 151.09 0.871285C151.264 0.696555 151.501 0.598051 151.749 0.597321V0.597321ZM177.179 4.32405L178.423 1.99448L179.665 4.32405H177.179ZM179.169 0.597321H177.676L174.692 6.1874H176.183L176.681 5.25545H180.163L180.66 6.1874H182.153L179.169 0.597321ZM186.629 0.597321H188.12V2.9269H192.599V0.597321H194.088V2.9269H194.091V3.85818H194.088V6.1874H192.599V3.85818H188.12V6.1874H186.629V0.597321ZM93.3652 0.597321H94.8582V2.9269L98.2769 0.597321H100.081L96.0298 3.39277L99.4053 5.72125H100.081L99.1016 7.21274H98.311L98.6096 6.18733H98.2769L94.8582 3.85818V6.1874H93.3652V0.597321ZM273.74 3.85818V5.25545H276.793C276.885 5.2561 276.977 5.23852 277.062 5.2037C277.148 5.16889 277.225 5.11754 277.291 5.0526C277.356 4.98766 277.408 4.91043 277.444 4.82535C277.479 4.74026 277.497 4.64901 277.497 4.55685C277.497 4.46469 277.479 4.37344 277.444 4.28835C277.408 4.20327 277.356 4.12603 277.291 4.0611C277.225 3.99616 277.148 3.94481 277.062 3.91C276.977 3.87518 276.885 3.8576 276.793 3.85825L273.74 3.85818ZM272.25 0.597321H278.22V1.5297H273.74V2.9269H277.333C277.547 2.9269 277.759 2.96906 277.957 3.05099C278.155 3.13292 278.335 3.253 278.487 3.40438C278.638 3.55576 278.758 3.73547 278.84 3.93326C278.922 4.13104 278.965 4.34303 278.965 4.55712C278.965 4.7712 278.922 4.98319 278.84 5.18097C278.758 5.37876 278.638 5.55847 278.487 5.70985C278.335 5.86123 278.155 5.98131 277.957 6.06324C277.759 6.14517 277.547 6.18733 277.333 6.18733H272.25V0.597321ZM285.93 4.32405L287.173 1.99448L288.415 4.32405H285.93ZM287.92 0.597321H286.426L283.442 6.1874H284.934L285.432 5.25545H288.913L289.411 6.1874H290.903L287.92 0.597321ZM295.379 0.597321H296.87V2.9269H301.35V0.597321H302.839V2.9269H302.841V3.85818H302.839V6.1874H301.35V3.85818H296.87V6.1874H295.379V0.597321ZM307.317 0.597321H308.809V2.9269L312.229 0.597321H314.032L309.983 3.39277L314.032 6.1874H312.229L308.809 3.85818V6.1874H307.317V0.597321ZM318.509 0.597321H319.999V6.1874H318.509V0.597321ZM209.006 3.85818L206.953 6.18733H205.275L207.738 3.39277L205.275 0.597321H206.953L209.006 2.9269L211.058 0.597321H212.737L210.274 3.39277L212.737 6.18733H211.058L209.006 3.85818ZM219.701 4.32405L220.944 1.99448L222.187 4.32405H219.701ZM221.69 0.597321H220.197L217.213 6.1874H218.705L219.203 5.25545H222.685L223.182 6.1874H224.674L221.69 0.597321ZM242.579 3.85818V5.25545H245.633C245.818 5.25413 245.994 5.17995 246.124 5.04908C246.254 4.91821 246.327 4.74127 246.327 4.55685C246.327 4.37243 246.254 4.19549 246.124 4.06462C245.994 3.93375 245.818 3.85957 245.633 3.85825L242.579 3.85818ZM248.546 0.597321H250.043V6.1874H248.546V0.597321ZM241.089 0.597321H242.579V2.9269H246.172C246.386 2.9269 246.598 2.96906 246.796 3.05099C246.994 3.13292 247.174 3.253 247.326 3.40438C247.477 3.55576 247.597 3.73547 247.679 3.93326C247.761 4.13104 247.804 4.34303 247.804 4.55712C247.804 4.7712 247.761 4.98319 247.679 5.18097C247.597 5.37876 247.477 5.55847 247.326 5.70985C247.174 5.86123 246.994 5.98131 246.796 6.06324C246.598 6.14517 246.386 6.18733 246.172 6.18733H241.089L241.089 0.597321ZM233.628 0.597321H232.136L229.151 6.1874H230.643L232.882 1.99455L235.12 6.1874H236.612L233.628 0.597321ZM254.52 0.597321H256.01V2.9269L259.431 0.597321H261.234L257.184 3.39277L260.558 5.72125H261.234L260.256 7.21274H259.465L259.764 6.18733H259.431L256.01 3.85818V6.1874H254.52V0.597321ZM315.025 110.539L316.268 108.211L317.512 110.539H315.025ZM283.461 106.813H290.923V107.745H287.939V112.402H286.446V107.745H283.461V106.813ZM236.085 110.539L237.33 108.211L238.573 110.539H236.085ZM238.076 106.813H236.584L233.598 112.402H235.092L235.588 111.472H239.07L239.567 112.402H241.06L238.076 106.813ZM244.492 106.813C244.245 106.813 244.008 106.912 243.833 107.087C243.659 107.261 243.56 107.498 243.56 107.745V108.676H245.052V107.745H248.782V109.142H246.917V110.073H248.782V111.472H245.052V110.539H243.56V111.472C243.56 111.718 243.659 111.955 243.834 112.129C244.008 112.304 244.245 112.402 244.492 112.402H249.341C249.588 112.402 249.825 112.304 250 112.129C250.175 111.955 250.274 111.718 250.274 111.472V110.539C250.274 110.297 250.178 110.064 250.009 109.89C249.839 109.716 249.608 109.615 249.365 109.608C249.608 109.601 249.839 109.5 250.009 109.326C250.178 109.152 250.274 108.919 250.274 108.676V107.745C250.274 107.498 250.175 107.261 250 107.086C249.826 106.912 249.589 106.813 249.341 106.813H244.492ZM255.261 110.539L256.504 108.211L257.748 110.539H255.261ZM257.25 106.813H255.758L252.774 112.402H254.266L254.764 111.471H258.246L258.742 112.402H260.235L257.25 106.813ZM266.465 110.073L264.413 112.402H262.734L265.197 109.608L262.734 106.813H264.413L266.465 109.142L268.517 106.813H270.196L267.733 109.608L270.196 112.402H268.517L266.465 110.073ZM274.06 106.813H279.655C279.903 106.813 280.139 106.912 280.314 107.087C280.489 107.261 280.587 107.498 280.588 107.745V108.676H279.095V107.745H274.619V111.472H279.095V110.539H280.588V111.472C280.587 111.718 280.489 111.955 280.314 112.129C280.139 112.304 279.902 112.402 279.655 112.402H274.06C273.813 112.402 273.576 112.304 273.401 112.129C273.226 111.955 273.128 111.718 273.127 111.472V107.745C273.127 107.498 273.226 107.261 273.401 107.086C273.576 106.912 273.813 106.813 274.06 106.813ZM295.104 110.539L296.346 108.211L297.59 110.539H295.104ZM297.092 106.813H295.6L292.616 112.402H294.109L294.606 111.472H298.088L298.586 112.402H300.078L297.092 106.813ZM302.577 106.813H304.066V109.142H308.546V106.813H310.037V109.142H310.039V110.073H310.037V112.402H308.546V110.073H304.066V112.402H302.577V106.813ZM224.384 106.813H225.876V109.142L229.296 106.813H231.099L227.05 109.608L231.099 112.402H229.296L225.876 110.073V112.402H224.384V106.813ZM317.014 106.813H315.523L312.538 112.402H314.03L314.526 111.472H318.009L318.507 112.402H319.999L317.014 106.813ZM93.3652 106.813H94.8564V109.142H99.3347V106.813H100.824V109.142H100.827V110.073H100.824V112.402H99.3347V110.073H94.8564V112.402H93.3652V106.813ZM105.814 110.539L107.057 108.211L108.301 110.539H105.814ZM107.803 106.813H106.311L103.327 112.402H104.818L105.316 111.471H108.797L109.295 112.402H110.787L107.803 106.813ZM123.994 107.745H128.471V111.472H123.994V107.745ZM123.434 106.813H129.03C129.277 106.813 129.514 106.912 129.689 107.086C129.864 107.261 129.962 107.498 129.963 107.745V111.472C129.962 111.718 129.863 111.955 129.688 112.129C129.514 112.304 129.277 112.402 129.03 112.402H123.434C123.187 112.402 122.95 112.304 122.775 112.129C122.6 111.955 122.502 111.718 122.501 111.472V107.745C122.502 107.498 122.6 107.261 122.775 107.086C122.95 106.912 123.187 106.813 123.434 106.813V106.813ZM114.777 109.142V107.745H117.83C117.923 107.744 118.014 107.762 118.1 107.797C118.185 107.831 118.263 107.883 118.328 107.948C118.394 108.013 118.446 108.09 118.481 108.175C118.517 108.26 118.535 108.351 118.535 108.444C118.535 108.536 118.517 108.627 118.481 108.712C118.446 108.797 118.394 108.874 118.328 108.939C118.263 109.004 118.185 109.056 118.1 109.09C118.014 109.125 117.923 109.143 117.83 109.142H114.777ZM113.287 112.402H114.777V110.073H118.37C118.802 110.073 119.217 109.901 119.523 109.596C119.83 109.29 120.001 108.875 120.001 108.443C120.001 108.01 119.83 107.596 119.523 107.29C119.217 106.984 118.802 106.812 118.37 106.812H113.287V112.402ZM134.421 111.471H138.431V107.745H136.285C135.791 107.746 135.318 107.943 134.968 108.292C134.619 108.641 134.422 109.114 134.421 109.608V111.471ZM132.462 111.471H133.208V109.608C133.211 108.867 133.506 108.157 134.03 107.634C134.555 107.11 135.265 106.815 136.006 106.812H139.923V111.471H140.67V112.402H132.462V111.471ZM143.169 106.812H144.659V109.142H149.138V106.813H150.627V109.142H150.63V110.073H150.627V112.402H149.138V110.073H144.659V112.402H143.169V106.812ZM154.619 110.073V111.471H157.674C157.859 111.471 158.037 111.398 158.168 111.267C158.3 111.136 158.373 110.958 158.373 110.772C158.373 110.587 158.3 110.409 158.168 110.278C158.037 110.147 157.859 110.073 157.674 110.073H154.619ZM160.587 106.812H162.084V112.402H160.587V106.812ZM153.13 106.812H154.619V109.142H158.212C158.645 109.142 159.06 109.314 159.366 109.62C159.672 109.925 159.844 110.34 159.844 110.772C159.844 111.205 159.672 111.619 159.366 111.925C159.06 112.231 158.645 112.402 158.212 112.402H153.13V106.812ZM166.913 105.881H169.711V106.812H166.913V105.881ZM172.044 106.812H170.549L166.072 110.912V106.813H164.582V112.402H166.072L170.549 108.303C170.549 107.906 170.552 111.874 170.552 112.402H172.044V106.812ZM182.525 110.073V111.471H185.578C185.763 111.471 185.941 111.398 186.073 111.267C186.204 111.136 186.278 110.958 186.278 110.772C186.278 110.587 186.204 110.409 186.073 110.278C185.941 110.147 185.763 110.073 185.578 110.073H182.525ZM181.035 106.812H187.003V107.745H182.525V109.142H186.118C186.55 109.142 186.965 109.314 187.271 109.62C187.577 109.925 187.749 110.34 187.749 110.772C187.749 111.205 187.577 111.619 187.271 111.925C186.965 112.231 186.55 112.402 186.118 112.402H181.035V106.812ZM192.416 110.539L193.66 108.211L194.903 110.539H192.416ZM194.406 106.812H192.914L189.929 112.402H191.422L191.919 111.471H195.401L195.899 112.402H197.39L194.406 106.812ZM199.89 106.812H201.38V109.142H205.858V106.813H207.349V109.142H207.351V110.073H207.349V112.402H205.858V110.073H201.38V112.402H199.89V106.812ZM210.17 106.812H211.662V109.142L215.081 106.813H216.886L212.835 109.608L216.886 112.402H215.081L211.662 110.073V112.402H210.17V106.812ZM139.624 0.597321H141.117V2.9269L144.536 0.597321H146.34L142.289 3.39277L145.664 5.72125H146.34L145.361 7.21274H144.57L144.869 6.18733H144.536L141.117 3.85818V6.1874H139.624V0.597321Z" fill="#2D2C2B"/>
<path fill-rule="evenodd" clip-rule="evenodd" d="M88.6984 42.9923V42.9943C84.7265 47.7998 79.741 51.6693 74.0982 54.3263C68.4554 56.9832 62.2947 58.362 56.0565 58.3639C52.4905 58.3607 49.0008 59.3955 46.0141 61.3418C43.0274 63.288 40.673 66.0615 39.2388 69.3231C37.8046 72.5847 37.3527 76.1931 37.9384 79.7071C38.5241 83.2212 40.122 86.4886 42.5367 89.11H42.5346L56.0565 102.618L69.577 89.11L88.6984 70.0077L102.22 56.5007L88.6984 42.9923ZM23.4135 70.006C27.3854 65.2003 32.3711 61.3306 38.0142 58.6736C43.6572 56.0167 49.8181 54.638 56.0565 54.6363C59.6223 54.6391 63.1116 53.6041 66.0981 51.6577C69.0845 49.7113 71.4387 46.9379 72.8728 43.6765C74.3069 40.4151 74.7588 36.8069 74.1733 33.293C73.5878 29.7791 71.9903 26.5118 69.5759 23.8903H69.577L56.0565 10.3822L42.5346 23.8903L23.4135 42.9923L9.89264 56.5007L23.4135 70.0077V70.006ZM3.29785 56.5007L23.4135 36.404V23.8903H35.9408L56.0565 3.79474L76.1721 23.8903H88.6984V36.404L108.814 56.5007L88.6984 76.5963V89.1099H76.1721L56.0565 109.205L35.9408 89.1099H23.4135V76.5963L3.29785 56.5007Z" fill="#F9B208"/>
</g>
<defs>
<clipPath id="clip0">
<rect width="320" height="112" fill="white" transform="translate(0 0.5)"/>
</clipPath>
</defs>
</svg>
