<svg width="120" height="100" viewBox="0 0 120 100" fill="none" xmlns="http://www.w3.org/2000/svg">
<g clip-path="url(#clip0)">
<path fill-rule="evenodd" clip-rule="evenodd" d="M28.909 0.679504L28.6803 57.8436L0 28.8089L28.909 0.679504Z" fill="#E42315"/>
<path fill-rule="evenodd" clip-rule="evenodd" d="M87.8636 58.9768L30.2744 0L88.3168 0.227895L30.501 58.5231L87.8636 58.9768Z" fill="#E42315"/>
<path fill-rule="evenodd" clip-rule="evenodd" d="M90.3664 0.679504L119.047 29.7163L90.1377 57.8436L90.3664 0.679504Z" fill="#E42315"/>
<path d="M114.359 71.0135L114.989 80.4246H114.359C113.794 78.0758 112.537 75.9491 110.749 74.3176C109.141 73.0812 107.156 72.4317 105.125 72.4774C103.362 72.4522 101.629 72.9312 100.131 73.8578C98.5329 74.9649 97.3047 76.5236 96.6044 78.3329C95.6963 80.7805 95.2688 83.3792 95.3454 85.9877C95.2996 88.2228 95.7139 90.4436 96.5628 92.513C97.2987 94.2592 98.5596 95.7351 100.172 96.7374C101.849 97.7231 103.766 98.2296 105.713 98.2014C107.37 98.2366 109.007 97.8324 110.455 97.0303C112.281 95.8566 113.828 94.3008 114.989 92.471L115.619 92.8893C114.486 95.0739 112.809 96.9318 110.749 98.2849C108.756 99.457 106.474 100.051 104.16 100C102.092 100.095 100.032 99.6789 98.1649 98.7886C96.2974 97.8983 94.6799 96.5615 93.4565 94.8973C91.5767 92.2928 90.5905 89.1533 90.6447 85.9456C90.6279 83.2827 91.2617 80.6557 92.4914 78.2915C93.6712 76.0776 95.4377 74.2285 97.5985 72.9453C99.7594 71.6621 102.232 70.994 104.747 71.0135C106.808 71.0314 108.836 71.5329 110.666 72.4774C111.039 72.7063 111.452 72.8624 111.883 72.9374C112.061 72.9423 112.238 72.9115 112.404 72.8469C112.57 72.7822 112.721 72.685 112.848 72.561C113.254 72.1354 113.519 71.5947 113.604 71.0134L114.359 71.0135ZM69.7421 97.3644C71.2822 97.7287 72.8599 97.9113 74.4427 97.9084C76.4855 98.0539 78.5124 97.4598 80.1509 96.2354C80.7661 95.7451 81.2602 95.1206 81.595 94.4099C81.9298 93.6993 82.0964 92.9216 82.0819 92.1367C82.0875 91.0366 81.7661 89.9595 81.1583 89.0412C80.482 87.9673 79.4834 87.1331 78.3042 86.6569C76.7227 86.0628 75.0409 85.7789 73.3513 85.8206C72.5117 85.8206 71.7986 85.8206 71.2109 85.8621C70.5813 85.9043 70.1197 85.9457 69.7421 85.9876V97.3644ZM69.7421 84.0633C70.3117 84.1617 70.8859 84.2316 71.4625 84.2726C72.1341 84.3146 72.8477 84.3566 73.6036 84.3566C75.127 84.4338 76.6511 84.2208 78.0945 83.7291C79.0543 83.3353 79.8631 82.6466 80.4031 81.7633C81.0854 80.6462 81.3421 79.3219 81.1264 78.032C80.9106 76.742 80.2368 75.5723 79.2278 74.7361C77.5625 73.4973 75.5093 72.8893 73.4353 73.0208C72.1881 72.9901 70.9433 73.1454 69.7422 73.4815L69.7421 84.0633ZM80.4868 85.1929C82.0754 85.4606 83.5659 86.1384 84.8098 87.1589C85.4415 87.747 85.9431 88.4599 86.2828 89.2521C86.6225 90.0443 86.7927 90.8983 86.7826 91.7597C86.7771 93.1874 86.322 94.5773 85.4814 95.7334C84.5941 97.0038 83.3329 97.9685 81.8719 98.4941C79.6176 99.1853 77.2603 99.4824 74.9043 99.3723H61.8086V98.6197H62.8582C63.3291 98.6574 63.8021 98.5778 64.2344 98.3879C64.6667 98.198 65.0448 97.9039 65.3345 97.532C65.7208 96.5628 65.8787 95.5182 65.7961 94.4787V76.5347C65.9183 75.4135 65.7143 74.281 65.2084 73.2721C64.9033 72.9657 64.5353 72.7285 64.1297 72.5769C63.724 72.4253 63.2903 72.3628 62.8582 72.3938H61.8086V71.6405H73.8129C75.6173 71.5975 77.4206 71.766 79.1856 72.1425C80.9942 72.474 82.6449 73.3846 83.8869 74.7361C84.9239 75.9328 85.4904 77.4636 85.4814 79.0447C85.4951 80.3915 85.0514 81.7034 84.2223 82.7671C83.2618 83.9445 81.9555 84.7928 80.4868 85.1929V85.1929ZM57.0239 71.0135V80.5916H56.2686C56.1177 79.0587 55.6759 77.5684 54.9668 76.1999C54.3096 75.1056 53.3667 74.2095 52.2387 73.6072C51.1213 72.9876 49.866 72.6566 48.5873 72.6445C47.2742 72.5983 45.9945 73.0634 45.0196 73.9413C44.5902 74.3098 44.2446 74.7653 44.0057 75.2774C43.7669 75.7895 43.6403 76.3465 43.6344 76.9112C43.641 77.7587 43.9539 78.5755 44.5158 79.2119C46.299 80.8897 48.3393 82.2733 50.5598 83.3106C52.4203 84.2244 54.203 85.2876 55.8904 86.4897C56.8199 87.1916 57.5802 88.092 58.1153 89.1247C58.616 90.1099 58.8749 91.1994 58.8706 92.3038C58.8797 93.325 58.6668 94.3361 58.2466 95.2676C57.8263 96.1991 57.2088 97.029 56.4362 97.7001C55.5835 98.4801 54.5848 99.0847 53.4972 99.4794C52.4096 99.8741 51.2546 100.051 50.0982 100C49.3394 100.01 48.5811 99.9543 47.8319 99.8331C46.9363 99.6168 46.0534 99.3515 45.1872 99.0382C44.3734 98.7376 43.529 98.5271 42.6691 98.4105C42.5226 98.397 42.375 98.4163 42.237 98.467C42.0991 98.5177 41.9742 98.5985 41.8716 98.7035C41.5865 99.0775 41.4252 99.5307 41.41 100H40.6541V90.505H41.41C41.6436 92.0631 42.1252 93.574 42.8367 94.9807C43.5327 96.0157 44.4876 96.8518 45.607 97.4066C46.8583 98.0758 48.2584 98.421 49.6785 98.4104C51.1553 98.4841 52.6068 98.0071 53.7499 97.0723C54.2066 96.6671 54.5732 96.1713 54.8262 95.6166C55.0792 95.0618 55.213 94.4605 55.219 93.8512C55.2168 93.1327 55.0289 92.4269 54.6735 91.8017C54.2418 91.0227 53.6393 90.3508 52.911 89.836C51.5099 88.8836 50.0519 88.0175 48.5449 87.2423C46.7664 86.3019 45.0554 85.2397 43.4244 84.0633C42.5017 83.3597 41.7309 82.4778 41.1579 81.4705C40.6154 80.4995 40.3402 79.4027 40.3604 78.2915C40.3566 77.3197 40.5605 76.3583 40.9586 75.4711C41.3567 74.584 41.9398 73.7915 42.6691 73.1465C44.2577 71.7001 46.3531 70.9341 48.5034 71.0135C50.1419 71.052 51.7556 71.422 53.2462 72.1011C53.745 72.3584 54.2847 72.528 54.8414 72.6025C55.0033 72.6089 55.1649 72.5825 55.3163 72.525C55.4678 72.4676 55.6061 72.3802 55.7228 72.2681C56.0172 71.908 56.2061 71.4738 56.2687 71.0135H57.0239ZM16.0999 84.5239H28.9859V76.5348C29.037 75.5933 28.9522 74.6495 28.7343 73.732C28.5521 73.3557 28.2385 73.0585 27.8523 72.8957C27.2915 72.57 26.6547 72.3969 26.0056 72.3937H24.9988V71.6404H36.9188V72.3937H35.9535C35.2964 72.3972 34.6493 72.5548 34.0646 72.8537C33.8542 72.9485 33.6666 73.0871 33.5146 73.2604C33.3625 73.4336 33.2495 73.6373 33.1832 73.8577C32.9653 74.7325 32.8803 75.6349 32.9313 76.5347V94.4787C32.8794 95.4062 32.9643 96.3364 33.1832 97.2394C33.3739 97.6195 33.6832 97.9276 34.0646 98.1176C34.6385 98.4487 35.2904 98.6219 35.9535 98.6196H36.9188V99.3722H24.9988V98.6196H26.0056C26.4685 98.6571 26.9337 98.5858 27.3638 98.4115C27.794 98.2371 28.177 97.9645 28.4822 97.6157C28.9309 96.6344 29.1049 95.5504 28.9859 94.4786V86.0292H16.0999V94.4787C16.048 95.4063 16.133 96.3364 16.3521 97.2394C16.5428 97.6195 16.8521 97.9277 17.2335 98.1176C17.7943 98.4432 18.4311 98.6163 19.0802 98.6196H20.0877V99.3723H8.16699V98.6196H9.17449C9.6377 98.6615 10.1042 98.5922 10.5351 98.4175C10.9659 98.2428 11.3485 97.9679 11.6508 97.6157C12.0996 96.6344 12.2737 95.5504 12.1546 94.4786V76.5347C12.2057 75.5933 12.121 74.6494 11.903 73.732C11.726 73.3667 11.43 73.0719 11.0634 72.8956C10.4854 72.5744 9.83621 72.4019 9.17449 72.3936H8.16699V71.6403H20.0877V72.3936H19.0802C18.4372 72.4023 17.805 72.5597 17.2335 72.8536C17.0275 72.9549 16.8436 73.0958 16.6924 73.2681C16.5411 73.4404 16.4255 73.6407 16.3521 73.8576C16.134 74.7324 16.049 75.6348 16.0999 76.5347V84.5239Z" fill="#2D2C2B"/>
</g>
<defs>
<clipPath id="clip0">
<rect width="119.048" height="100" fill="white"/>
</clipPath>
</defs>
</svg>
