<svg width="171" height="100" viewBox="0 0 171 100" fill="none" xmlns="http://www.w3.org/2000/svg">
<g clip-path="url(#clip0)">
<path d="M118.364 0H26.457V74.2852H118.364V0Z" fill="white"/>
<path d="M118.359 0.00994873H26.4531V74.2942H118.359V0.00994873Z" stroke="white" stroke-width="0.01049" stroke-miterlimit="10"/>
<path d="M101.641 9.72138C102.522 9.63282 103.408 9.6117 104.292 9.65821C107.269 9.66717 110.245 9.64924 113.222 9.65821C113.569 9.70123 113.903 9.82271 114.196 10.0135C114.49 10.2042 114.737 10.4593 114.917 10.7594C115.247 11.3063 115.357 11.958 115.224 12.5827C115.096 13.008 114.853 13.3894 114.521 13.6839C114.342 13.9054 114.117 14.0848 113.862 14.2096C113.606 14.3344 113.326 14.4014 113.042 14.4059C109.47 14.4059 105.89 14.3969 102.309 14.4059C101.991 14.4192 101.674 14.3668 101.378 14.2519C101.081 14.137 100.811 13.9621 100.586 13.7381C100.298 13.4477 100.079 13.0959 99.9456 12.709C99.7968 11.9956 99.9189 11.2523 100.288 10.6241C100.434 10.384 100.631 10.1788 100.865 10.0229C101.099 9.86694 101.364 9.76403 101.641 9.72136" fill="#37A07C"/>
<path d="M101.638 9.73123C102.519 9.64225 103.405 9.6211 104.289 9.66797C107.266 9.67704 110.242 9.65868 113.219 9.66797C113.566 9.71106 113.899 9.83251 114.193 10.0232C114.487 10.2139 114.733 10.4688 114.914 10.7687C115.244 11.3156 115.354 11.9673 115.221 12.592C115.094 13.0176 114.85 13.3991 114.518 13.6937C114.339 13.9152 114.114 14.0946 113.858 14.2194C113.602 14.3441 113.323 14.4112 113.038 14.4159C109.467 14.4159 105.886 14.4068 102.306 14.4159C101.988 14.4292 101.671 14.3767 101.375 14.2617C101.078 14.1467 100.809 13.9717 100.583 13.7476C100.295 13.4573 100.076 13.1055 99.9426 12.7185C99.7939 12.0052 99.9161 11.262 100.285 10.634C100.431 10.3937 100.628 10.1884 100.862 10.0324C101.095 9.87645 101.36 9.77364 101.638 9.73123V9.73123Z" stroke="#37A07C" stroke-width="0.01049" stroke-miterlimit="10"/>
<path d="M65.8254 17.4658C76.4858 17.4754 87.1437 17.4785 97.799 17.4754C98.0318 17.4885 98.2635 17.5153 98.4931 17.5558C98.4842 19.1448 98.4931 20.7242 98.4931 22.3131C95.3546 22.3757 92.2154 22.2947 89.0768 22.3489C88.5206 22.4846 88.0275 22.8064 87.6792 23.261C87.3454 23.6486 87.4802 24.181 87.4444 24.6414V51.5392C87.4624 52.144 87.3812 52.7397 87.3993 53.3447C87.4419 53.741 87.4112 54.1418 87.3087 54.5269C87.2179 54.9265 87.0428 55.3021 86.795 55.6283C86.526 55.9303 86.2199 56.1971 85.8842 56.4223C85.1174 56.9281 84.3958 57.5235 83.5838 57.9661C82.9977 58.3899 82.3213 58.6792 81.7531 59.1305C81.302 59.4913 80.7521 59.6808 80.31 60.0332C79.8049 60.4302 79.2008 60.6467 78.7045 61.0527C78.1182 61.5041 77.4419 61.8291 76.8558 62.2803C76.4492 62.5455 76.0171 62.7692 75.5659 62.9481C75.0403 63.0657 74.4895 62.9717 74.0324 62.6865C73.7834 62.5005 73.5756 62.265 73.4219 61.9947C73.2683 61.7244 73.1723 61.4252 73.1399 61.1159V25.0932C73.229 24.4174 73.0993 23.7307 72.7698 23.1341C72.5276 22.8632 72.2275 22.6504 71.8919 22.5114C71.5563 22.3724 71.1937 22.3107 70.8311 22.3309C69.2976 22.3398 67.7641 22.3309 66.2218 22.3309C65.9981 22.3201 65.7746 22.3554 65.5651 22.4346C65.3556 22.5138 65.1646 22.6352 65.0039 22.7913C64.544 23.3058 64.4904 24.0731 63.9942 24.5691C63.7199 24.8375 63.3909 25.0434 63.0298 25.1728C62.6686 25.3021 62.2838 25.3519 61.9017 25.3185C61.2612 25.2356 60.6103 25.3005 59.9988 25.5083C59.7518 25.6465 59.5448 25.8462 59.3978 26.0882C59.2508 26.3302 59.1689 26.6061 59.16 26.8891V56.4135C59.1749 56.6321 59.1536 56.8517 59.0969 57.0633C58.9536 57.9168 58.7176 58.7521 58.3933 59.5544C57.8669 60.834 56.9394 61.9078 55.7503 62.6141C54.6231 63.4716 53.3696 64.1399 52.2328 64.9794C51.7641 65.3311 51.2314 65.5929 50.772 65.9446C50.3556 66.28 49.9052 66.5706 49.428 66.8115C49.1124 66.9803 48.8161 67.183 48.5443 67.416C48.174 67.7137 47.7319 67.9129 47.3534 68.2104C46.8752 68.5896 46.3342 68.8602 45.8474 69.2305C45.1527 69.7087 44.4043 70.1152 43.7096 70.6202C42.2058 71.5521 40.4889 72.0835 38.7219 72.164C38.0189 72.1773 37.3161 72.132 36.6206 72.0285C35.9453 71.8986 35.2861 71.6959 34.6545 71.4239C33.897 71.1199 33.2072 70.6689 32.6246 70.0969C32.307 69.7397 32.029 69.3493 31.7953 68.9323C31.3842 68.0386 31.2372 67.0458 31.3717 66.0711C31.4625 65.5095 31.6772 64.9751 32 64.5068C32.3229 64.0385 32.746 63.648 33.2384 63.3636C33.7718 62.9967 34.383 62.7587 35.024 62.6684C35.9188 62.4883 36.8461 62.5601 37.7025 62.8759C38.1739 63.0474 38.6063 63.3113 38.9744 63.6521C39.3368 63.9916 39.6413 64.3879 39.876 64.8256C40.1422 65.3186 40.3832 65.8248 40.5979 66.3424C40.9227 66.9648 41.211 67.7053 41.9057 68.0117C42.2005 68.1357 42.5283 68.1578 42.8371 68.0745C43.1459 67.9911 43.4181 67.8071 43.6107 67.5515C43.883 67.1158 44.0868 66.6409 44.215 66.1432C44.3504 65.2233 44.3956 64.2924 44.3501 63.3636C44.3501 51.3319 44.3531 39.2971 44.359 27.2593C44.4105 26.7898 44.2885 26.3177 44.016 25.932C43.7207 25.5927 43.3088 25.3769 42.862 25.3275C42.0499 25.2912 41.2474 25.3365 40.4448 25.3097C40.0263 25.2623 39.6277 25.1056 39.2889 24.8552C38.9501 24.6049 38.6831 24.2698 38.5146 23.8835C38.391 23.6251 38.3238 23.3433 38.3175 23.0569C38.3112 22.7704 38.366 22.4859 38.4782 22.2224C38.6108 21.7564 38.8892 21.3452 39.2724 21.0492C39.6871 20.8167 40.144 20.6693 40.6163 20.6157H61.0897C61.6589 20.6595 62.2266 20.5135 62.7043 20.2006C63.2094 19.8757 63.2906 19.2353 63.5794 18.7565C63.8257 18.3795 64.1576 18.0661 64.5479 17.8418C64.9382 17.6175 65.3759 17.4887 65.8254 17.4658" fill="#37A07C"/>
<path d="M65.8233 17.4756C76.484 17.4843 87.1418 17.4872 97.7966 17.4843C98.0296 17.4976 98.2615 17.5248 98.4913 17.5656C98.4816 19.154 98.4913 20.7335 98.4913 22.3223C95.3519 22.3856 92.2135 22.3045 89.0744 22.3586C88.5183 22.494 88.0252 22.8157 87.6769 23.2703C87.3432 23.6583 87.4784 24.1908 87.4421 24.6511V51.5483C87.4605 52.1534 87.3789 52.7492 87.3973 53.3537C87.44 53.75 87.4093 54.1508 87.3067 54.5361C87.2163 54.9358 87.041 55.3113 86.7927 55.6371C86.524 55.9395 86.2181 56.2065 85.8822 56.4318C85.1155 56.9369 84.3939 57.5327 83.582 57.9751C82.9958 58.3992 82.3195 58.6882 81.751 59.1393C81.3002 59.5007 80.7502 59.6903 80.3081 60.042C79.803 60.439 79.1988 60.6556 78.7027 61.0617C78.1164 61.5135 77.4403 61.8383 76.854 62.2897C76.4472 62.5545 76.0151 62.7783 75.5641 62.9576C75.0385 63.0746 74.4879 62.9807 74.0307 62.696C73.7816 62.51 73.5737 62.2744 73.4201 62.0041C73.2664 61.7337 73.1704 61.4345 73.1379 61.1252V25.1023C73.227 24.4267 73.0974 23.7404 72.7681 23.1439C72.526 22.8728 72.2259 22.6598 71.8902 22.5207C71.5545 22.3815 71.1918 22.3198 70.8291 22.3402C69.296 22.3494 67.7624 22.3402 66.2201 22.3402C65.9965 22.3296 65.7731 22.365 65.5637 22.4441C65.3542 22.5232 65.1632 22.6445 65.0024 22.8004C64.5425 23.3154 64.4881 24.0823 63.9925 24.5789C63.7182 24.8473 63.3891 25.0532 63.0279 25.1825C62.6667 25.3118 62.2818 25.3615 61.8996 25.3282C61.2592 25.2453 60.6083 25.3099 59.9967 25.5172C59.7499 25.6556 59.543 25.8555 59.3961 26.0975C59.2492 26.3394 59.1673 26.6153 59.1584 26.8983V56.4224C59.1734 56.641 59.1519 56.8607 59.0947 57.0722C58.9514 57.9258 58.7156 58.7613 58.3915 59.5638C57.8648 60.8432 56.9374 61.9169 55.7486 62.6236C54.6209 63.4809 53.3674 64.1487 52.2312 64.9881C51.762 65.3405 51.2298 65.6017 50.7699 65.9539C50.3538 66.2893 49.9034 66.5798 49.4263 66.8204C49.1104 66.9892 48.8139 67.1922 48.5422 67.4256C48.1729 67.7232 47.7303 67.9215 47.3513 68.2196C46.8741 68.5988 46.3327 68.8695 45.8452 69.2394C45.1505 69.718 44.4023 70.124 43.7076 70.6296C42.2036 71.561 40.4866 72.0921 38.7198 72.1727C38.0168 72.1863 37.3139 72.1412 36.6184 72.0378C35.9432 71.9077 35.2841 71.705 34.6524 71.4333C33.8951 71.129 33.2053 70.678 32.6228 70.1061C32.3052 69.7489 32.0271 69.3586 31.7932 68.9418C31.3822 68.048 31.2352 67.0551 31.3697 66.0804C31.4606 65.5187 31.6753 64.9843 31.9982 64.5159C32.321 64.0475 32.744 63.6569 33.2364 63.3723C33.77 63.0056 34.3813 62.7678 35.0224 62.6778C35.9172 62.4974 36.8445 62.5691 37.7011 62.8849C38.172 63.057 38.6041 63.3209 38.9725 63.6612C39.3348 64.0007 39.6394 64.397 39.8745 64.8345C40.1402 65.3276 40.3809 65.8338 40.5958 66.3511C40.9206 66.9738 41.2095 67.7141 41.9036 68.0207C42.1986 68.1446 42.5263 68.1666 42.8351 68.0833C43.1439 67.9999 43.4162 67.8159 43.6088 67.5604C43.8814 67.1251 44.0851 66.6502 44.2129 66.1526C44.3483 65.2325 44.3936 64.3013 44.348 63.3723C44.348 51.3408 44.351 39.3062 44.357 27.2684C44.4086 26.7991 44.2868 26.3272 44.0144 25.9417C43.7192 25.6021 43.3069 25.3863 42.8597 25.3374C42.0484 25.3008 41.2451 25.3457 40.4428 25.3189C40.0243 25.2717 39.6256 25.1151 39.2868 24.8647C38.9481 24.6144 38.6812 24.2791 38.513 23.8927C38.3891 23.6344 38.3218 23.3527 38.3156 23.0663C38.3093 22.7799 38.3643 22.4955 38.4768 22.2321C38.609 21.766 38.8871 21.3547 39.2703 21.0587C39.685 20.826 40.142 20.6787 40.6144 20.6255H61.0882C61.6573 20.6692 62.2249 20.5232 62.7025 20.2102C63.2076 19.8855 63.2887 19.2447 63.5778 18.7662C63.8238 18.3891 64.1555 18.0756 64.5458 17.8513C64.9361 17.627 65.3738 17.4982 65.8233 17.4756V17.4756Z" stroke="#37A07C" stroke-width="0.01049" stroke-miterlimit="10"/>
<path d="M100.469 17.7728C100.46 17.733 100.461 17.6917 100.471 17.6523C100.482 17.6129 100.502 17.5766 100.529 17.5465C100.557 17.5163 100.591 17.4933 100.629 17.4793C100.667 17.4652 100.708 17.4606 100.749 17.4658C105.195 17.4754 109.642 17.4658 114.088 17.4754C114.276 17.4829 114.463 17.5038 114.647 17.538C114.689 17.8884 114.705 18.2416 114.693 18.5944V44.9504C114.693 45.2843 114.71 45.6182 114.683 45.9522C114.626 46.3864 114.473 46.8025 114.236 47.1708C113.999 47.539 113.684 47.8504 113.313 48.0825C112.844 48.3531 112.393 48.6423 111.923 48.9129C111.337 49.229 110.832 49.6708 110.255 50.0046C109.425 50.5013 108.623 51.0249 107.82 51.5572C107.452 51.8277 107.069 52.0779 106.674 52.3066C106.061 52.6406 105.538 53.1188 104.907 53.4346C104.359 53.8293 103.787 54.1882 103.193 54.5091C102.708 54.6721 102.189 54.7062 101.687 54.6081C101.313 54.4439 100.997 54.1711 100.78 53.8251C100.563 53.479 100.454 53.0757 100.469 52.6674V17.7728" fill="#37A07C"/>
<path d="M100.466 17.7819C100.457 17.7422 100.458 17.7009 100.469 17.6616C100.479 17.6223 100.499 17.5861 100.526 17.556C100.554 17.5259 100.588 17.5029 100.626 17.4889C100.664 17.4749 100.705 17.4703 100.746 17.4755C105.192 17.4843 109.639 17.4755 114.085 17.4843C114.273 17.4919 114.46 17.513 114.644 17.5475C114.686 17.8979 114.702 18.2509 114.69 18.6036V44.9595C114.69 45.2932 114.708 45.6276 114.68 45.9612C114.623 46.3955 114.47 46.8117 114.233 47.1799C113.996 47.5482 113.681 47.8595 113.31 48.0914C112.84 48.3622 112.389 48.6511 111.92 48.9219C111.334 49.2379 110.829 49.6804 110.252 50.0141C109.422 50.5105 108.619 51.034 107.817 51.5668C107.449 51.8371 107.066 52.0871 106.671 52.3158C106.058 52.6497 105.535 53.1283 104.904 53.4438C104.356 53.8389 103.784 54.1979 103.19 54.5183C102.705 54.6817 102.186 54.7158 101.684 54.6171C101.31 54.453 100.994 54.1803 100.777 53.8343C100.56 53.4884 100.451 53.0852 100.466 52.6769L100.466 17.7819Z" stroke="#37A07C" stroke-width="0.01049" stroke-miterlimit="10"/>
<path fill-rule="evenodd" clip-rule="evenodd" d="M21.5986 72.7816C44.5738 85.8152 73.4977 88.2361 107.934 80.8236C61.4785 82.9444 33.171 80.1363 21.5986 72.7816" fill="#B3B4B4"/>
<path fill-rule="evenodd" clip-rule="evenodd" d="M125.313 44.1684C131.786 46.8553 137.159 50.6419 139.142 57.8206C137.149 57.758 135.156 57.6957 133.162 57.6337C133.211 54.8854 132.504 52.1764 131.12 49.8021C129.736 47.4277 127.728 45.4791 125.314 44.1684" fill="#B3B4B4"/>
<path d="M3.28516 79.5143C63.6543 110.198 140.081 80.2132 132.227 80.1736L149.794 80.2621C139.411 91.8348 45.1723 117.379 3.28516 79.5143Z" fill="#37A07C"/>
<path d="M3.28516 79.5143C63.6543 110.198 140.081 80.2132 132.227 80.1736L149.794 80.2621C139.411 91.8348 45.1723 117.379 3.28516 79.5143Z" stroke="#AAD4B0" stroke-width="0.5669" stroke-miterlimit="22.9256"/>
<path d="M132.976 42.2988C144.13 48.0666 153.148 54.7703 148.299 67.5451C151.787 67.4203 155.276 67.2956 158.764 67.1712C160.02 55.781 149.166 48.201 132.976 42.2988Z" fill="#37A07C"/>
<path d="M90.7583 64.5934H92.2696C92.6458 64.6284 93.0229 64.5356 93.3399 64.33C93.4444 64.2357 93.5266 64.1193 93.5803 63.9892C93.634 63.8591 93.658 63.7186 93.6505 63.578C93.6581 63.3659 93.5917 63.1576 93.4626 62.9891C93.3458 62.8249 93.1752 62.707 92.9805 62.6557C92.7402 62.6167 92.4966 62.6013 92.2533 62.6094H90.7583V64.5934ZM89.9824 67.5073V61.9584H92.188C92.4858 61.9507 92.7837 61.9689 93.0784 62.0128C93.3356 62.0469 93.5831 62.1339 93.8052 62.2682C94.0043 62.4032 94.165 62.5876 94.2715 62.8033C94.3934 63.0376 94.455 63.2985 94.4509 63.5626C94.4558 63.7832 94.4165 64.0025 94.3351 64.2075C94.2538 64.4126 94.1321 64.5992 93.9773 64.7562C93.4905 65.1358 92.8752 65.3108 92.2617 65.2443H90.7583V67.5073H89.9824ZM85.5788 65.229H87.5724L86.9597 63.6866C86.7718 63.2215 86.6324 62.8344 86.5429 62.5321C86.4609 62.8961 86.3517 63.2535 86.2162 63.6012L85.5788 65.229ZM83.8879 67.5073L86.1339 61.9585H86.9838L89.3695 67.5073H88.4874L87.8091 65.8258H85.3499L84.7126 67.5073H83.8879ZM80.0558 65.9343L80.7504 65.841C80.7339 66.1532 80.8233 66.4619 81.0041 66.7169C81.0841 66.7966 81.18 66.8586 81.2856 66.8987C81.3911 66.9388 81.504 66.9561 81.6167 66.9496C81.7933 66.9523 81.9677 66.9095 82.123 66.8253C82.2575 66.7476 82.3592 66.6237 82.4093 66.4766C82.4753 66.2504 82.5028 66.0146 82.4908 65.7793V61.9584H83.267V65.7405C83.2855 66.1084 83.2242 66.4759 83.0871 66.8178C82.9747 67.0701 82.7782 67.2755 82.5312 67.3988C82.2492 67.5369 81.9385 67.606 81.6245 67.6005C81.4102 67.6154 81.1952 67.5859 80.9928 67.5139C80.7905 67.4418 80.6051 67.3288 80.4484 67.1817C80.3037 67.0102 80.1945 66.8115 80.1271 66.5974C80.0597 66.3832 80.0355 66.1578 80.0558 65.9343" fill="#37A07C"/>
<path d="M100.266 67.5073V61.9584H101.058L104.13 66.3139V61.9584H104.874V67.5073H104.081L101.009 63.1518V67.5073H100.266ZM95.871 65.2289H97.8639L97.2513 63.6865C97.0634 63.2214 96.9245 62.8343 96.8345 62.532C96.753 62.8962 96.6437 63.2536 96.5077 63.6011L95.871 65.2289ZM94.1797 67.5073L96.4262 61.9584H97.2756L99.6616 67.5073H98.779L98.1006 65.8257H95.6415L95.0042 67.5073H94.1797Z" fill="#37A07C"/>
<path d="M109.782 67.5065V62.6091H107.854V61.9589H112.486V62.6091H110.558V67.5065H109.782Z" fill="#37A07C"/>
<path d="M142.753 64.8182C142.737 65.1066 142.78 65.3954 142.878 65.667C142.976 65.9387 143.128 66.1878 143.325 66.3992C143.71 66.7685 144.223 66.9741 144.756 66.9727C145.289 66.9713 145.801 66.7631 146.185 66.3918C146.382 66.1672 146.534 65.9058 146.631 65.6225C146.728 65.3392 146.767 65.0395 146.748 64.7407C146.756 64.3354 146.675 63.9333 146.511 63.5626C146.358 63.236 146.111 62.9631 145.8 62.7795C145.487 62.5926 145.128 62.4962 144.763 62.501C144.241 62.4909 143.735 62.6822 143.35 63.0355C143.13 63.2734 142.963 63.5554 142.86 63.8627C142.757 64.17 142.721 64.4957 142.753 64.8182L142.753 64.8182ZM141.952 64.8029C141.93 64.4092 141.988 64.0152 142.123 63.6447C142.258 63.2742 142.466 62.9351 142.736 62.648C143.001 62.3859 143.317 62.1811 143.664 62.0464C144.011 61.9118 144.383 61.8501 144.755 61.8652C145.265 61.8589 145.769 61.9844 146.217 62.2298C146.639 62.4673 146.982 62.8227 147.205 63.2525C147.439 63.7134 147.556 64.2241 147.548 64.7407C147.557 65.2665 147.433 65.786 147.189 66.2517C146.96 66.6818 146.607 67.0329 146.176 67.2592C145.736 67.4851 145.249 67.6021 144.755 67.6005C144.236 67.6111 143.725 67.4799 143.276 67.2208C142.852 66.9824 142.508 66.6237 142.287 66.19C142.067 65.7609 141.952 65.2853 141.952 64.8029L141.952 64.8029ZM140.457 65.5624L141.234 65.7482C141.109 66.2947 140.8 66.7817 140.359 67.1274C139.91 67.4504 139.368 67.6166 138.815 67.6004C138.279 67.6227 137.748 67.4966 137.279 67.236C136.878 66.9821 136.565 66.6115 136.38 66.1741C136.173 65.7084 136.068 65.2041 136.07 64.6944C136.055 64.1687 136.176 63.6481 136.422 63.1829C136.642 62.7609 136.987 62.4172 137.41 62.1987C137.849 61.9734 138.337 61.8589 138.831 61.8651C139.354 61.8469 139.87 61.9962 140.302 62.2913C140.708 62.5786 141.002 62.9976 141.135 63.4772L140.376 63.648C140.28 63.2998 140.073 62.9924 139.787 62.7722C139.501 62.5778 139.16 62.48 138.815 62.4929C138.417 62.4786 138.025 62.5839 137.688 62.7952C137.391 62.993 137.169 63.2853 137.059 63.6247C136.935 63.9651 136.872 64.3244 136.871 64.6866C136.862 65.1079 136.937 65.5269 137.091 65.9189C137.214 66.2533 137.452 66.5333 137.761 66.7092C138.061 66.8846 138.402 66.9757 138.75 66.9727C139.147 66.9854 139.537 66.8594 139.853 66.6161C140.168 66.3438 140.381 65.9722 140.457 65.5623V65.5624ZM134.559 65.5623L135.335 65.7481C135.21 66.2946 134.902 66.7817 134.461 67.1274C134.012 67.4503 133.469 67.6165 132.917 67.6003C132.381 67.6227 131.849 67.4966 131.38 67.2359C130.98 66.982 130.666 66.6115 130.482 66.174C130.275 65.7085 130.169 65.2041 130.171 64.6943C130.157 64.1686 130.278 63.6481 130.523 63.1829C130.743 62.7608 131.089 62.417 131.511 62.1986C131.951 61.9734 132.439 61.8589 132.932 61.8651C133.456 61.8469 133.971 61.9962 134.403 62.2912C134.81 62.5785 135.104 62.9974 135.237 63.4771L134.477 63.6479C134.381 63.2997 134.175 62.9923 133.889 62.7721C133.603 62.5778 133.262 62.48 132.917 62.4928C132.519 62.4785 132.126 62.5838 131.789 62.7952C131.492 62.9928 131.27 63.2851 131.16 63.6247C131.036 63.965 130.973 64.3243 130.972 64.6865C130.963 65.1079 131.038 65.5268 131.193 65.9188C131.316 66.2531 131.553 66.5331 131.863 66.7092C132.162 66.8845 132.504 66.9755 132.851 66.9726C133.249 66.9854 133.639 66.8593 133.954 66.6161C134.269 66.3437 134.482 65.972 134.559 65.5623V65.5623ZM125.989 65.2288H127.982L127.369 63.6863C127.182 63.2213 127.043 62.8342 126.953 62.5318C126.871 62.896 126.762 63.2535 126.626 63.601L125.989 65.2288ZM124.298 67.5071L126.544 61.9583H127.394L129.78 67.5071H128.897L128.219 65.8256H125.76L125.123 67.5071H124.298ZM120.237 66.8561H121.692C121.869 66.863 122.047 66.8526 122.223 66.825C122.38 66.8061 122.533 66.7561 122.672 66.6781C122.793 66.5991 122.893 66.4929 122.966 66.3681C123.043 66.2222 123.082 66.0598 123.08 65.8951C123.084 65.7027 123.024 65.5146 122.909 65.3605C122.796 65.2009 122.632 65.0857 122.443 65.035C122.166 64.9632 121.88 64.9319 121.593 64.9418H120.237L120.237 66.8561ZM120.237 64.291H121.504C121.75 64.299 121.997 64.2781 122.238 64.2287C122.413 64.1827 122.569 64.0857 122.688 63.9502C122.79 63.8077 122.841 63.636 122.835 63.4614C122.838 63.2885 122.789 63.1187 122.696 62.9731C122.601 62.833 122.459 62.7314 122.296 62.6866C122.004 62.6214 121.705 62.5954 121.406 62.6093H120.237L120.237 64.291ZM119.461 67.5073V61.9584H121.659C122.023 61.944 122.387 62.0019 122.729 62.1286C122.991 62.2295 123.214 62.4115 123.366 62.648C123.515 62.8619 123.595 63.1162 123.595 63.3768C123.596 63.6144 123.525 63.8469 123.391 64.043C123.24 64.2692 123.028 64.4469 122.778 64.5549C123.098 64.6288 123.385 64.8057 123.595 65.0584C123.785 65.2954 123.886 65.5914 123.881 65.8952C123.884 66.1485 123.825 66.3985 123.709 66.624C123.609 66.8295 123.46 67.0076 123.276 67.1433C123.082 67.2707 122.866 67.3626 122.639 67.4145C122.328 67.4819 122.01 67.5131 121.692 67.5073L119.461 67.5073ZM113.702 64.8182C113.685 65.1067 113.728 65.3955 113.826 65.6672C113.925 65.9389 114.077 66.1879 114.274 66.3992C114.659 66.7685 115.172 66.9741 115.705 66.9727C116.238 66.9713 116.75 66.7631 117.133 66.3918C117.331 66.1672 117.483 65.9057 117.579 65.6224C117.676 65.3391 117.716 65.0395 117.697 64.7407C117.705 64.3354 117.624 63.9332 117.46 63.5626C117.307 63.2359 117.059 62.963 116.749 62.7795C116.436 62.5926 116.076 62.4962 115.711 62.501C115.189 62.4909 114.683 62.6823 114.298 63.0355C114.078 63.2735 113.911 63.5555 113.808 63.8628C113.706 64.1701 113.669 64.4957 113.702 64.8182L113.702 64.8182ZM112.901 64.8029C112.879 64.4092 112.937 64.0151 113.072 63.6446C113.206 63.2742 113.415 62.935 113.685 62.648C113.95 62.3859 114.266 62.1811 114.613 62.0464C114.96 61.9117 115.331 61.8501 115.703 61.8652C116.214 61.8589 116.718 61.9844 117.166 62.2298C117.588 62.4675 117.931 62.8229 118.154 63.2525C118.387 63.7134 118.505 64.2241 118.497 64.7407C118.506 65.2665 118.382 65.786 118.138 66.2517C117.909 66.6817 117.556 67.0327 117.125 67.2592C116.685 67.485 116.198 67.602 115.703 67.6005C115.185 67.6111 114.673 67.4798 114.224 67.2208C113.8 66.9822 113.457 66.6236 113.236 66.19C113.016 65.7609 112.901 65.2853 112.901 64.8029L112.901 64.8029Z" fill="#37A07C"/>
<path d="M139.874 73.8865H141.774L141.19 72.3445C141.011 71.8795 140.879 71.492 140.793 71.1897C140.715 71.5533 140.611 71.9108 140.481 72.2592L139.874 73.8865ZM138.261 76.1653L140.403 70.6161H141.213L143.488 76.1653H142.647L142 74.4837H139.656L139.048 76.1653H138.261ZM133.245 76.1653V70.616H134L136.929 74.9714V70.616H137.638V76.1652H136.882L133.954 71.8094V76.1652L133.245 76.1653ZM128.384 73.065H129.965C130.234 73.0741 130.503 73.0374 130.76 72.9565C130.938 72.901 131.09 72.7827 131.188 72.6235C131.287 72.4773 131.339 72.3041 131.336 72.1275C131.341 72.0053 131.317 71.8837 131.267 71.7721C131.217 71.6605 131.142 71.5619 131.048 71.4838C130.788 71.2913 130.467 71.2004 130.145 71.2284H128.384L128.384 73.065ZM127.644 76.1653V70.616H130.113C130.498 70.5983 130.883 70.6481 131.251 70.763C131.509 70.8646 131.726 71.0502 131.866 71.2901C132.021 71.5418 132.102 71.832 132.1 72.1275C132.105 72.311 132.074 72.4938 132.008 72.6653C131.943 72.8369 131.844 72.9938 131.718 73.127C131.39 73.4225 130.974 73.6021 130.534 73.6386C130.695 73.7099 130.844 73.8039 130.978 73.9176C131.211 74.1357 131.416 74.3832 131.586 74.6539L132.551 76.1653H131.632L130.892 75.011C130.674 74.6776 130.502 74.4217 130.363 74.2431C130.258 74.0999 130.132 73.9744 129.988 73.8714C129.883 73.8046 129.767 73.755 129.646 73.7244C129.512 73.7049 129.376 73.6969 129.241 73.7006H128.384V76.1653L127.644 76.1653ZM122.449 76.1653V70.616H126.476V71.2669H123.189V72.9722H126.265V73.6232H123.189V75.5144H126.608V76.1652L122.449 76.1653ZM119.091 76.1653V71.2669H117.253V70.616H121.67V71.2669H119.831V76.1652L119.091 76.1653ZM112.042 76.1653V70.616H112.797L115.726 74.9714V70.616H116.435V76.1652H115.68L112.75 71.8094V76.1652L112.042 76.1653ZM110.009 76.1653V70.616H110.749V76.1652L110.009 76.1653Z" fill="#37A07C"/>
<path d="M167.25 76.1652V70.6161H167.99V75.5145H170.731V76.1652H167.25ZM163.082 73.8866H164.982L164.399 72.3445C164.219 71.8795 164.087 71.492 164.002 71.1897C163.924 71.5533 163.819 71.9108 163.69 72.2593L163.082 73.8866ZM161.47 76.1653L163.612 70.6161H164.422L166.697 76.1653H165.856L165.209 74.4837H162.864L162.257 76.1653H161.47ZM156.453 76.1653V70.6161H157.209L160.138 74.9714V70.6161H160.847V76.1652H160.091L157.162 71.8095V76.1652L156.453 76.1653ZM150.938 73.4759C150.906 74.0542 151.101 74.6223 151.484 75.0573C151.661 75.2395 151.873 75.3841 152.108 75.4826C152.342 75.5811 152.594 75.6315 152.849 75.6307C153.103 75.63 153.354 75.5782 153.588 75.4783C153.822 75.3785 154.034 75.2326 154.21 75.0495C154.594 74.5883 154.786 73.9972 154.747 73.3983C154.755 72.9941 154.678 72.5928 154.522 72.2202C154.379 71.8973 154.143 71.6247 153.844 71.4377C153.548 71.2512 153.204 71.1543 152.854 71.1585C152.606 71.1544 152.359 71.1996 152.127 71.2915C151.896 71.3833 151.685 71.5199 151.507 71.6936C151.296 71.9361 151.136 72.2193 151.038 72.5258C150.94 72.8324 150.906 73.1557 150.938 73.4759V73.4759ZM150.175 73.4606C150.129 72.6717 150.398 71.8969 150.923 71.3061C151.169 71.0462 151.469 70.842 151.801 70.707C152.132 70.572 152.489 70.5092 152.847 70.523C153.336 70.5175 153.817 70.6434 154.241 70.8874C154.648 71.1299 154.975 71.4853 155.184 71.9106C155.407 72.3743 155.519 72.8837 155.511 73.3984C155.519 73.9224 155.401 74.4408 155.168 74.9099C154.954 75.335 154.618 75.6859 154.202 75.9174C153.786 76.1423 153.32 76.2595 152.847 76.2581C152.351 76.2682 151.861 76.1365 151.437 75.8785C151.028 75.6354 150.7 75.2768 150.494 74.8477C150.284 74.4157 150.174 73.9412 150.175 73.4605V73.4606ZM148.36 76.1654V70.6161H149.1V76.1652L148.36 76.1654ZM144.894 76.1654V71.2669H143.056V70.616H147.472V71.2669H145.634V76.1652L144.894 76.1654Z" fill="#37A07C"/>
</g>
<defs>
<clipPath id="clip0">
<rect width="170.732" height="100" fill="white"/>
</clipPath>
</defs>
</svg>
