<svg width="114" height="100" viewBox="0 0 114 100" fill="none" xmlns="http://www.w3.org/2000/svg">
<g clip-path="url(#clip0)">
<path fill-rule="evenodd" clip-rule="evenodd" d="M74.7217 6.84442C75.2078 7.4941 75.645 8.17896 76.0298 8.89336L74.7217 6.84442Z" fill="#13965F"/>
<path d="M74.7168 6.85394C75.2029 7.5034 75.64 8.18817 76.0244 8.90257" stroke="#13965F" stroke-width="0.22822" stroke-miterlimit="22.9256"/>
<path fill-rule="evenodd" clip-rule="evenodd" d="M38.9307 4.88265C39.4933 4.25465 40.0899 3.65796 40.7179 3.09528L56.0635 11.9881L71.4521 3.09528C72.0913 3.66166 72.6886 4.27364 73.2393 4.92638L56.0636 14.8221L38.9744 4.92638L38.9307 4.88265Z" fill="#13965F"/>
<path d="M40.7129 3.10394L56.058 11.9968L71.4473 3.10394" stroke="#13965F" stroke-width="0.22822" stroke-miterlimit="22.9256"/>
<path d="M73.2335 4.93616L56.0579 14.8306L38.9688 4.93616" stroke="#13965F" stroke-width="0.22822" stroke-miterlimit="22.9256"/>
<path fill-rule="evenodd" clip-rule="evenodd" d="M42.7236 1.48196C43.4568 0.932434 44.2291 0.437134 45.0344 0L56.0642 6.36458L67.0934 0.0437383C67.8986 0.480743 68.6708 0.976049 69.4038 1.52569L56.0642 9.19858L42.7236 1.52569V1.48196Z" fill="#13965F"/>
<path d="M69.3981 1.53455L56.058 9.20712L42.7178 1.53455" stroke="#13965F" stroke-width="0.22822" stroke-miterlimit="22.9256"/>
<path fill-rule="evenodd" clip-rule="evenodd" d="M76.1603 8.89335L56.0636 20.4024L36.0967 8.89335C36.5328 8.19569 36.925 7.49834 37.4048 6.80066L56.0636 17.6121L74.6783 6.88758L76.1603 8.89335Z" fill="#13965F"/>
<path d="M76.1566 8.90204L56.059 20.4118L36.0938 8.90204" stroke="#13965F" stroke-width="0.22822" stroke-miterlimit="22.9256"/>
<path d="M36.0918 8.90259C36.5272 8.20513 36.92 7.50774 37.4 6.81012" stroke="#13965F" stroke-width="0.22822" stroke-miterlimit="22.9256"/>
<path d="M37.4004 6.81067L56.059 17.6221L74.6735 6.89704" stroke="#13965F" stroke-width="0.22822" stroke-miterlimit="22.9256"/>
<path fill-rule="evenodd" clip-rule="evenodd" d="M77.115 11.0821C78.3364 13.9041 78.974 16.9441 78.9895 20.019C78.9934 23.0299 78.4036 26.012 77.2541 28.7948C76.1045 31.5776 74.4176 34.1064 72.29 36.2368C70.1623 38.3672 67.6356 40.0572 64.8543 41.2103C62.0729 42.3634 59.0916 42.9569 56.0807 42.9569C53.0698 42.9569 50.0885 42.3634 47.3072 41.2103C44.5259 40.0572 41.9991 38.3672 39.8715 36.2368C37.7438 34.1064 36.057 31.5776 34.9074 28.7948C33.7578 26.012 33.1681 23.0299 33.1719 20.019C33.1724 16.9469 33.7954 13.9068 35.0031 11.0821C43.8089 16.1396 56.0584 23.245 56.0584 23.245C56.0584 23.245 68.3088 16.1395 77.115 11.0821Z" fill="#13965F"/>
<path d="M77.115 11.0821C78.3364 13.9041 78.974 16.9441 78.9895 20.019C78.9934 23.0299 78.4036 26.012 77.2541 28.7948C76.1045 31.5776 74.4176 34.1064 72.29 36.2368C70.1623 38.3672 67.6356 40.0572 64.8543 41.2103C62.0729 42.3634 59.0916 42.9569 56.0807 42.9569C53.0698 42.9569 50.0885 42.3634 47.3072 41.2103C44.5259 40.0572 41.9991 38.3672 39.8715 36.2368C37.7438 34.1064 36.057 31.5776 34.9074 28.7948C33.7578 26.012 33.1681 23.0299 33.1719 20.019C33.1724 16.9469 33.7954 13.9068 35.0031 11.0821C43.8089 16.1396 56.0584 23.245 56.0584 23.245C56.0584 23.245 68.3088 16.1395 77.115 11.0821Z" stroke="#13965F" stroke-width="0.22822" stroke-miterlimit="22.9256"/>
<path d="M78.3348 50.361H33.5645V51.6687H78.3348V50.361Z" fill="#13965F"/>
<path d="M78.3348 50.361H33.5645V51.6687H78.3348V50.361Z" stroke="#13965F" stroke-width="0.22822" stroke-miterlimit="22.9256"/>
<path fill-rule="evenodd" clip-rule="evenodd" d="M11.6362 79.7431L9.10745 79.8738C6.8967 79.9782 4.72006 79.2989 2.96103 77.9558C2.09551 77.2233 1.40387 76.3074 0.936252 75.2744C0.468635 74.2415 0.236767 73.1174 0.257466 71.9838C0.226474 71.0725 0.398163 70.1658 0.760142 69.329C1.12212 68.4922 1.66536 67.7462 2.35066 67.1448C3.83887 65.9862 5.69962 65.4124 7.58185 65.5316L9.84902 65.7062L10.5465 65.7494C10.7112 65.76 10.8757 65.7249 11.0217 65.648C11.1678 65.571 11.2897 65.4552 11.3741 65.3134L12.3339 69.2807L12.1594 69.3676C11.7478 68.5129 11.095 67.7975 10.2816 67.3094C9.46817 66.8214 8.52966 66.5822 7.58186 66.6213C6.93845 66.5654 6.29093 66.6626 5.69234 66.9051C5.09375 67.1476 4.56111 67.5285 4.13804 68.0165C3.24026 69.0906 2.76035 70.4528 2.78655 71.8525C2.73182 72.726 2.85334 73.6015 3.14388 74.4271C3.43442 75.2527 3.88804 76.0114 4.47776 76.6581C5.06749 77.3048 5.78126 77.8263 6.57662 78.1915C7.37198 78.5568 8.23267 78.7583 9.1075 78.7842C10.1167 78.7649 11.0968 78.4429 11.9208 77.8599C12.7448 77.2769 13.3747 76.4598 13.7288 75.5146L13.9465 75.6021L12.3339 79.7869C12.1099 79.7078 11.8683 79.6927 11.6362 79.7431V79.7431Z" fill="#13965F"/>
<path d="M11.6362 79.7431L9.10745 79.8738C6.8967 79.9782 4.72006 79.2989 2.96103 77.9558C2.09551 77.2233 1.40387 76.3074 0.936252 75.2744C0.468635 74.2415 0.236767 73.1174 0.257466 71.9838C0.226474 71.0725 0.398163 70.1658 0.760142 69.329C1.12212 68.4922 1.66536 67.7462 2.35066 67.1448C3.83887 65.9862 5.69962 65.4124 7.58185 65.5316L9.84902 65.7062L10.5465 65.7494C10.7112 65.76 10.8757 65.7249 11.0217 65.648C11.1678 65.571 11.2897 65.4552 11.3741 65.3134L12.3339 69.2807L12.1594 69.3676C11.7478 68.5129 11.095 67.7975 10.2816 67.3094C9.46817 66.8214 8.52966 66.5822 7.58186 66.6213C6.93845 66.5654 6.29093 66.6626 5.69234 66.9051C5.09375 67.1476 4.56111 67.5285 4.13804 68.0165C3.24026 69.0906 2.76035 70.4528 2.78655 71.8525C2.73182 72.726 2.85334 73.6015 3.14388 74.4271C3.43442 75.2527 3.88804 76.0114 4.47776 76.6581C5.06749 77.3048 5.78126 77.8263 6.57662 78.1915C7.37198 78.5568 8.23267 78.7583 9.1075 78.7842C10.1167 78.7649 11.0968 78.4429 11.9208 77.8599C12.7448 77.2769 13.3747 76.4598 13.7288 75.5146L13.9465 75.6021L12.3339 79.7869C12.1099 79.7078 11.8683 79.6927 11.6362 79.7431V79.7431Z" stroke="#13965F" stroke-width="0.22822" stroke-miterlimit="22.9256"/>
<path fill-rule="evenodd" clip-rule="evenodd" d="M16.606 68.3648V76.9967C16.606 78.1303 16.5622 79.2201 15.2549 79.3946V79.5686H21.4888C25.5863 79.5686 27.33 78.087 27.33 75.6021C27.33 73.0297 24.6274 70.5451 18.9165 70.5451V68.5394C18.9165 66.9265 18.4805 66.8828 21.096 66.8828C22.1222 66.7296 23.1701 66.9257 24.0714 67.4396C24.9727 67.9535 25.6751 68.7555 26.0658 69.7166L26.2404 69.6729L25.2378 65.5316C24.9326 65.8801 24.3659 65.7932 23.9737 65.7932H15.2549V65.9671C16.606 66.1422 16.606 67.3188 16.606 68.3648ZM18.9164 77.04V71.5035C23.2763 71.5035 24.8888 73.5967 24.8888 75.5583C24.8888 77.2583 23.3632 78.6097 20.7038 78.6097C18.7419 78.6097 18.9164 78.6097 18.9164 77.04Z" fill="#13965F"/>
<path d="M16.606 68.3648V76.9967C16.606 78.1303 16.5622 79.2201 15.2549 79.3946V79.5686H21.4888C25.5863 79.5686 27.33 78.087 27.33 75.6021C27.33 73.0297 24.6274 70.5451 18.9165 70.5451V68.5394C18.9165 66.9265 18.4805 66.8828 21.096 66.8828C22.1222 66.7296 23.1701 66.9257 24.0714 67.4396C24.9727 67.9535 25.6751 68.7555 26.0658 69.7166L26.2404 69.6729L25.2378 65.5316C24.9326 65.8801 24.3659 65.7932 23.9737 65.7932H15.2549V65.9671C16.606 66.1422 16.606 67.3188 16.606 68.3648ZM18.9164 77.04V71.5035C23.2763 71.5035 24.8888 73.5967 24.8888 75.5583C24.8888 77.2583 23.3632 78.6097 20.7038 78.6097C18.7419 78.6097 18.9164 78.6097 18.9164 77.04Z" stroke="#13965F" stroke-width="0.22822" stroke-miterlimit="22.9256"/>
<path fill-rule="evenodd" clip-rule="evenodd" d="M40.0596 69.8036C39.5766 68.8336 38.819 68.0271 37.881 67.4845C36.9431 66.9419 35.8662 66.6871 34.7846 66.752C33.3023 66.752 32.8232 66.9703 32.8232 68.4958V69.7166H34.4361C35.4388 69.7166 36.8337 69.8474 36.79 68.4519L36.9642 68.3648L37.793 73.0732L37.6186 73.1607C36.8769 70.6759 35.5696 70.6759 33.3462 70.6759H32.8232V76.2994C32.8232 77.9558 32.8664 78.6097 35.0029 78.6097C36.3395 78.6634 37.6601 78.3027 38.7837 77.5768C39.9074 76.851 40.7793 75.7956 41.2799 74.5551L41.4982 74.6426L39.7108 79.8738C39.4926 79.5686 39.1442 79.5686 38.7951 79.5686H29.1611V79.3946C30.5128 79.1764 30.5128 78.1303 30.5128 76.9967V68.5394C30.5128 67.4059 30.5128 66.1852 29.1611 65.9671V65.7932H38.1414C38.3382 65.8283 38.5401 65.8232 38.7349 65.7783C38.9297 65.7333 39.1133 65.6494 39.2748 65.5316L40.234 69.7604L40.0596 69.8036Z" fill="#13965F"/>
<path d="M40.0596 69.8036C39.5766 68.8336 38.819 68.0271 37.881 67.4845C36.9431 66.9419 35.8662 66.6871 34.7846 66.752C33.3023 66.752 32.8232 66.9703 32.8232 68.4958V69.7166H34.4361C35.4388 69.7166 36.8337 69.8474 36.79 68.4519L36.9642 68.3648L37.793 73.0732L37.6186 73.1607C36.8769 70.6759 35.5696 70.6759 33.3462 70.6759H32.8232V76.2994C32.8232 77.9558 32.8664 78.6097 35.0029 78.6097C36.3395 78.6634 37.6601 78.3027 38.7837 77.5768C39.9074 76.851 40.7793 75.7956 41.2799 74.5551L41.4982 74.6426L39.7108 79.8738C39.4926 79.5686 39.1442 79.5686 38.7951 79.5686H29.1611V79.3946C30.5128 79.1764 30.5128 78.1303 30.5128 76.9967V68.5394C30.5128 67.4059 30.5128 66.1852 29.1611 65.9671V65.7932H38.1414C38.3382 65.8283 38.5401 65.8232 38.7349 65.7783C38.9297 65.7333 39.1133 65.6494 39.2748 65.5316L40.234 69.7604L40.0596 69.8036Z" stroke="#13965F" stroke-width="0.22822" stroke-miterlimit="22.9256"/>
<path fill-rule="evenodd" clip-rule="evenodd" d="M50.4345 65.7932H42.7188V65.9671C44.0704 66.1422 44.0704 67.3624 44.0704 68.5394V76.9968C44.0704 78.1303 44.0704 79.2202 42.7188 79.3947V79.5687H47.732V79.3947C46.4241 79.2639 46.3808 78.0433 46.3808 76.8222V73.2477C48.6036 72.637 53.7479 71.0681 53.7479 68.1473C53.7479 66.0983 52.0918 65.7932 50.4345 65.7932ZM46.3809 72.2454V68.7578C46.3809 67.2755 46.3809 66.752 48.3423 66.752C50.1299 66.752 51.3938 67.1005 51.3938 68.452C51.3937 70.5452 47.9497 71.7218 46.3809 72.2454Z" fill="#13965F"/>
<path d="M50.4345 65.7932H42.7188V65.9671C44.0704 66.1422 44.0704 67.3624 44.0704 68.5394V76.9968C44.0704 78.1303 44.0704 79.2202 42.7188 79.3947V79.5687H47.732V79.3947C46.4241 79.2639 46.3808 78.0433 46.3808 76.8222V73.2477C48.6036 72.637 53.7479 71.0681 53.7479 68.1473C53.7479 66.0983 52.0918 65.7932 50.4345 65.7932ZM46.3809 72.2454V68.7578C46.3809 67.2755 46.3809 66.752 48.3423 66.752C50.1299 66.752 51.3938 67.1005 51.3938 68.452C51.3937 70.5452 47.9497 71.7218 46.3809 72.2454Z" stroke="#13965F" stroke-width="0.22822" stroke-miterlimit="22.9256"/>
<path fill-rule="evenodd" clip-rule="evenodd" d="M56.7128 68.3649V76.9967C56.7128 78.1303 56.6689 79.2201 55.3613 79.3946V79.5686H61.5947C65.6931 79.5686 67.4364 78.087 67.4364 75.6021C67.4364 73.0297 64.7338 70.5451 59.0228 70.5451V68.5394C59.0228 66.9265 58.5874 66.8828 61.203 66.8828C62.2291 66.7297 63.277 66.9258 64.1783 67.4398C65.0795 67.9537 65.782 68.7555 66.1728 69.7166L66.3467 69.6729L65.344 65.5316C65.0392 65.8801 64.4722 65.7931 64.0801 65.7931H55.3613V65.967C56.7128 66.1422 56.7128 67.3188 56.7128 68.3649ZM59.0228 77.04V71.5035C63.3827 71.5035 64.9956 73.5967 64.9956 75.5584C64.9956 77.2583 63.4697 78.6097 60.8102 78.6097C58.8484 78.6097 59.0228 78.6097 59.0228 77.04L59.0228 77.04Z" fill="#13965F"/>
<path d="M56.7128 68.3649V76.9967C56.7128 78.1303 56.6689 79.2201 55.3613 79.3946V79.5686H61.5947C65.6931 79.5686 67.4364 78.087 67.4364 75.6021C67.4364 73.0297 64.7338 70.5451 59.0228 70.5451V68.5394C59.0228 66.9265 58.5874 66.8828 61.203 66.8828C62.2291 66.7297 63.277 66.9258 64.1783 67.4398C65.0795 67.9537 65.782 68.7555 66.1728 69.7166L66.3467 69.6729L65.344 65.5316C65.0392 65.8801 64.4722 65.7931 64.0801 65.7931H55.3613V65.967C56.7128 66.1422 56.7128 67.3188 56.7128 68.3649ZM59.0228 77.04V71.5035C63.3827 71.5035 64.9956 73.5967 64.9956 75.5584C64.9956 77.2583 63.4697 78.6097 60.8102 78.6097C58.8484 78.6097 59.0228 78.6097 59.0228 77.04L59.0228 77.04Z" stroke="#13965F" stroke-width="0.22822" stroke-miterlimit="22.9256"/>
<path fill-rule="evenodd" clip-rule="evenodd" d="M71.6208 76.7791L72.841 73.4217C76.2419 73.5093 78.6393 76.0379 78.6393 77.9125C78.6797 78.2453 78.5951 78.5812 78.4018 78.8551C78.2085 79.129 77.9203 79.3213 77.5932 79.3947V79.5687H82.3452V79.3947C81.5167 79.1764 81.3856 78.6097 81.0807 77.8688L77.5061 67.5367C77.3876 67.2749 77.3138 66.9951 77.2878 66.7088C77.2935 66.5352 77.3565 66.3683 77.4669 66.2341C77.5774 66.0999 77.7291 66.006 77.8984 65.9671V65.7932H73.2774V65.9671C73.4463 65.99 73.6011 66.0734 73.7134 66.2017C73.8256 66.33 73.8876 66.4946 73.8879 66.6651C73.869 67.0744 73.765 67.4752 73.5826 67.842L70.2255 76.779C69.968 77.4614 69.6469 78.1181 69.2665 78.7404C69.1501 78.9284 68.9905 79.0858 68.8009 79.1996C68.6114 79.3134 68.3974 79.3803 68.1768 79.3947V79.5687H72.4487V79.3947C72.1498 79.3892 71.8646 79.268 71.6533 79.0565C71.4419 78.845 71.3208 78.5598 71.3154 78.2609C71.354 77.756 71.4567 77.2581 71.6208 76.7791V76.7791ZM75.0646 67.3625L77.4187 74.0759C76.8608 73.5276 76.2 73.0951 75.4742 72.8034C74.7485 72.5117 73.9722 72.3664 73.1901 72.376L75.0646 67.3625Z" fill="#13965F"/>
<path d="M71.6208 76.7791L72.841 73.4217C76.2419 73.5093 78.6393 76.0379 78.6393 77.9125C78.6797 78.2453 78.5951 78.5812 78.4018 78.8551C78.2085 79.129 77.9203 79.3213 77.5932 79.3947V79.5687H82.3452V79.3947C81.5167 79.1764 81.3856 78.6097 81.0807 77.8688L77.5061 67.5367C77.3876 67.2749 77.3138 66.9951 77.2878 66.7088C77.2935 66.5352 77.3565 66.3683 77.4669 66.2341C77.5774 66.0999 77.7291 66.006 77.8984 65.9671V65.7932H73.2774V65.9671C73.4463 65.99 73.6011 66.0734 73.7134 66.2017C73.8256 66.33 73.8876 66.4946 73.8879 66.6651C73.869 67.0744 73.765 67.4752 73.5826 67.842L70.2255 76.779C69.968 77.4614 69.6469 78.1181 69.2665 78.7404C69.1501 78.9284 68.9905 79.0858 68.8009 79.1996C68.6114 79.3134 68.3974 79.3803 68.1768 79.3947V79.5687H72.4487V79.3947C72.1498 79.3892 71.8646 79.268 71.6533 79.0565C71.4419 78.845 71.3208 78.5598 71.3154 78.2609C71.354 77.756 71.4567 77.2581 71.6208 76.7791V76.7791ZM75.0646 67.3625L77.4187 74.0759C76.8608 73.5276 76.2 73.0951 75.4742 72.8034C74.7485 72.5117 73.9722 72.3664 73.1901 72.376L75.0646 67.3625Z" stroke="#13965F" stroke-width="0.22822" stroke-miterlimit="22.9256"/>
<path fill-rule="evenodd" clip-rule="evenodd" d="M88.6668 79.3947V79.5687H83.6533V79.3947C84.9615 79.2201 85.0048 78.1303 85.0048 76.9968V68.5394C85.0048 67.3624 84.9615 66.1422 83.6533 65.9671V65.7932H88.6668V65.9671C87.3157 66.0983 87.3157 67.2319 87.3157 68.3649V69.6298H93.5496V68.5394C93.5496 67.3188 93.5496 66.0983 92.1976 65.9671V65.7932H97.211V65.9671C95.9037 66.1422 95.9037 67.2319 95.8599 68.3649V76.8222C95.9037 77.9993 95.9037 79.2201 97.211 79.3946V79.5686H92.1977V79.3946C93.5497 79.307 93.5497 78.1733 93.5497 76.9967V70.6322H87.3157V76.8222C87.3157 78.0433 87.3157 79.2639 88.6668 79.3947Z" fill="#13965F"/>
<path d="M88.6668 79.3947V79.5687H83.6533V79.3947C84.9615 79.2201 85.0048 78.1303 85.0048 76.9968V68.5394C85.0048 67.3624 84.9615 66.1422 83.6533 65.9671V65.7932H88.6668V65.9671C87.3157 66.0983 87.3157 67.2319 87.3157 68.3649V69.6298H93.5496V68.5394C93.5496 67.3188 93.5496 66.0983 92.1976 65.9671V65.7932H97.211V65.9671C95.9037 66.1422 95.9037 67.2319 95.8599 68.3649V76.8222C95.9037 77.9993 95.9037 79.2201 97.211 79.3946V79.5686H92.1977V79.3946C93.5497 79.307 93.5497 78.1733 93.5497 76.9967V70.6322H87.3157V76.8222C87.3157 78.0433 87.3157 79.2639 88.6668 79.3947Z" stroke="#13965F" stroke-width="0.22822" stroke-miterlimit="22.9256"/>
<path fill-rule="evenodd" clip-rule="evenodd" d="M99.2607 65.9671V65.7932H104.274V65.9671C102.922 66.0983 102.922 67.2319 102.922 68.3649V70.9369L104.71 69.499C105.32 68.9754 107.543 67.2319 107.543 66.4907C107.543 66.0983 107.282 66.0114 106.977 65.9671V65.7932H112.033V65.9671C110.538 66.2086 109.162 66.9276 108.11 68.0165L106.54 69.3245C108.579 71.3285 110.157 73.7535 111.162 76.43L111.553 77.389C111.859 78.1734 112.208 79.2639 113.167 79.3947V79.5687H108.546V79.3947C108.649 79.3891 108.75 79.3632 108.843 79.3185C108.936 79.2738 109.02 79.2112 109.089 79.1342C109.157 79.0572 109.21 78.9674 109.244 78.87C109.278 78.7725 109.293 78.6693 109.287 78.5662C109.034 77.1184 108.517 75.7294 107.761 74.4688C106.941 73.116 105.992 71.8458 104.928 70.676L102.922 72.2454V76.8222C102.922 78.0433 102.922 79.2639 104.274 79.3947V79.5687H99.2607V79.3947C100.568 79.1764 100.612 78.1303 100.612 76.9968V68.5394C100.612 67.3625 100.568 66.1852 99.2607 65.9671Z" fill="#13965F"/>
<path d="M99.2607 65.9671V65.7932H104.274V65.9671C102.922 66.0983 102.922 67.2319 102.922 68.3649V70.9369L104.71 69.499C105.32 68.9754 107.543 67.2319 107.543 66.4907C107.543 66.0983 107.282 66.0114 106.977 65.9671V65.7932H112.033V65.9671C110.538 66.2086 109.162 66.9276 108.11 68.0165L106.54 69.3245C108.579 71.3285 110.157 73.7535 111.162 76.43L111.553 77.389C111.859 78.1734 112.208 79.2639 113.167 79.3947V79.5687H108.546V79.3947C108.649 79.3891 108.75 79.3632 108.843 79.3185C108.936 79.2738 109.02 79.2112 109.089 79.1342C109.157 79.0572 109.21 78.9674 109.244 78.87C109.278 78.7725 109.293 78.6693 109.287 78.5662C109.034 77.1184 108.517 75.7294 107.761 74.4688C106.941 73.116 105.992 71.8458 104.928 70.676L102.922 72.2454V76.8222C102.922 78.0433 102.922 79.2639 104.274 79.3947V79.5687H99.2607V79.3947C100.568 79.1764 100.612 78.1303 100.612 76.9968V68.5394C100.612 67.3625 100.568 66.1852 99.2607 65.9671Z" stroke="#13965F" stroke-width="0.22822" stroke-miterlimit="22.9256"/>
<path fill-rule="evenodd" clip-rule="evenodd" d="M19.7444 85.6281H12.0283V85.8465C13.3797 86.0211 13.4236 87.1979 13.4236 88.375V96.8323C13.4236 98.0093 13.3797 99.0558 12.0283 99.2735V99.4479H17.085V99.2735C15.7339 99.1428 15.7339 97.8782 15.7339 96.701V93.0827C17.9572 92.4728 23.0575 90.9036 23.0575 87.9827C23.0575 85.977 21.401 85.6281 19.7444 85.6281ZM15.7339 92.0801V88.6364C15.7339 87.1544 15.7339 86.5876 17.6957 86.5876C19.4397 86.5876 20.7036 86.9362 20.7036 88.3311C20.7036 90.424 17.3033 91.5572 15.7339 92.0801Z" fill="#13965F"/>
<path d="M19.7444 85.6281H12.0283V85.8465C13.3797 86.0211 13.4236 87.1979 13.4236 88.375V96.8323C13.4236 98.0093 13.3797 99.0558 12.0283 99.2735V99.4479H17.085V99.2735C15.7339 99.1428 15.7339 97.8782 15.7339 96.701V93.0827C17.9572 92.4728 23.0575 90.9036 23.0575 87.9827C23.0575 85.977 21.401 85.6281 19.7444 85.6281ZM15.7339 92.0801V88.6364C15.7339 87.1544 15.7339 86.5876 17.6957 86.5876C19.4397 86.5876 20.7036 86.9362 20.7036 88.3311C20.7036 90.424 17.3033 91.5572 15.7339 92.0801Z" stroke="#13965F" stroke-width="0.22822" stroke-miterlimit="22.9256"/>
<path fill-rule="evenodd" clip-rule="evenodd" d="M26.7629 97.7912C28.1681 99.0667 30.0099 99.7534 31.9072 99.7092C32.8759 99.7525 33.8433 99.5991 34.7511 99.2583C35.6589 98.9175 36.4882 98.3962 37.189 97.7261C37.8898 97.0559 38.4475 96.2507 38.8286 95.3591C39.2097 94.4674 39.4061 93.5078 39.4061 92.5382C39.4061 91.5685 39.2097 90.6089 38.8286 89.7172C38.4475 88.8256 37.8898 88.0204 37.189 87.3502C36.4882 86.6801 35.6589 86.1588 34.7511 85.818C33.8433 85.4772 32.8759 85.3238 31.9072 85.3671C30.4481 85.3218 29.0097 85.7219 27.7835 86.5141C26.5573 87.3063 25.6014 88.4531 25.0429 89.8019C24.4844 91.1507 24.3499 92.6376 24.6571 94.0647C24.9643 95.4919 25.6988 96.7917 26.7629 97.7912V97.7912ZM32.3869 98.6191C28.8993 98.6191 27.0244 94.9578 27.0244 91.8186C27.0244 89.1161 28.4193 86.4568 31.4277 86.4568C34.392 86.4568 36.8766 89.6391 36.8766 93.3446C36.9466 93.9892 36.8843 94.6413 36.6936 95.261C36.5029 95.8807 36.1878 96.4549 35.7675 96.9486C35.3473 97.4424 34.8307 97.8451 34.2494 98.1324C33.6682 98.4196 33.0344 98.5852 32.3869 98.6191H32.3869Z" fill="#13965F"/>
<path d="M26.7629 97.7912C28.1681 99.0667 30.0099 99.7534 31.9072 99.7092C32.8759 99.7525 33.8433 99.5991 34.7511 99.2583C35.6589 98.9175 36.4882 98.3962 37.189 97.7261C37.8898 97.0559 38.4475 96.2507 38.8286 95.3591C39.2097 94.4674 39.4061 93.5078 39.4061 92.5382C39.4061 91.5685 39.2097 90.6089 38.8286 89.7172C38.4475 88.8256 37.8898 88.0204 37.189 87.3502C36.4882 86.6801 35.6589 86.1588 34.7511 85.818C33.8433 85.4772 32.8759 85.3238 31.9072 85.3671C30.4481 85.3218 29.0097 85.7219 27.7835 86.5141C26.5573 87.3063 25.6014 88.4531 25.0429 89.8019C24.4844 91.1507 24.3499 92.6376 24.6571 94.0647C24.9643 95.4919 25.6988 96.7917 26.7629 97.7912V97.7912ZM32.3869 98.6191C28.8993 98.6191 27.0244 94.9578 27.0244 91.8186C27.0244 89.1161 28.4193 86.4568 31.4277 86.4568C34.392 86.4568 36.8766 89.6391 36.8766 93.3446C36.9466 93.9892 36.8843 94.6413 36.6936 95.261C36.5029 95.8807 36.1878 96.4549 35.7675 96.9486C35.3473 97.4424 34.8307 97.8451 34.2494 98.1324C33.6682 98.4196 33.0344 98.5852 32.3869 98.6191H32.3869Z" stroke="#13965F" stroke-width="0.22822" stroke-miterlimit="22.9256"/>
<path fill-rule="evenodd" clip-rule="evenodd" d="M53.1373 99.5786L50.6093 99.7091C48.4168 99.8287 46.2534 99.1641 44.5061 97.8344C43.6332 97.1083 42.9364 96.1936 42.4682 95.1591C42.0001 94.1247 41.7728 92.9975 41.8035 91.8625C41.7784 90.9497 41.9481 90.042 42.3014 89.2C42.6547 88.358 43.1834 87.601 43.8523 86.9794C45.3566 85.852 47.2057 85.2821 49.0836 85.3671L51.3939 85.5415L52.0482 85.628C52.2136 85.6439 52.3801 85.6111 52.5272 85.5338C52.6743 85.4565 52.7956 85.3379 52.8763 85.1926L53.8356 89.1599L53.7044 89.2031C53.2879 88.343 52.628 87.6241 51.8065 87.1359C50.985 86.6476 50.0381 86.4115 49.0836 86.4568C48.4405 86.4048 47.7942 86.5039 47.1963 86.7462C46.5983 86.9884 46.0653 87.3671 45.6398 87.852C44.7666 88.94 44.2899 90.293 44.2883 91.688C44.2336 92.5615 44.3552 93.437 44.6458 94.2625C44.9363 95.0881 45.3899 95.8467 45.9797 96.4934C46.5694 97.14 47.2832 97.6614 48.0785 98.0266C48.8738 98.3918 49.7345 98.5933 50.6093 98.6191C51.6261 98.6095 52.6162 98.292 53.4489 97.7083C54.2816 97.1247 54.9179 96.3023 55.2737 95.3497L55.4483 95.4372L53.8357 99.6655C53.6169 99.5671 53.3736 99.5368 53.1373 99.5786V99.5786Z" fill="#13965F"/>
<path d="M53.1373 99.5786L50.6093 99.7091C48.4168 99.8287 46.2534 99.1641 44.5061 97.8344C43.6332 97.1083 42.9364 96.1936 42.4682 95.1591C42.0001 94.1247 41.7728 92.9975 41.8035 91.8625C41.7784 90.9497 41.9481 90.042 42.3014 89.2C42.6547 88.358 43.1834 87.601 43.8523 86.9794C45.3566 85.852 47.2057 85.2821 49.0836 85.3671L51.3939 85.5415L52.0482 85.628C52.2136 85.6439 52.3801 85.6111 52.5272 85.5338C52.6743 85.4565 52.7956 85.3379 52.8763 85.1926L53.8356 89.1599L53.7044 89.2031C53.2879 88.343 52.628 87.6241 51.8065 87.1359C50.985 86.6476 50.0381 86.4115 49.0836 86.4568C48.4405 86.4048 47.7942 86.5039 47.1963 86.7462C46.5983 86.9884 46.0653 87.3671 45.6398 87.852C44.7666 88.94 44.2899 90.293 44.2883 91.688C44.2336 92.5615 44.3552 93.437 44.6458 94.2625C44.9363 95.0881 45.3899 95.8467 45.9797 96.4934C46.5694 97.14 47.2832 97.6614 48.0785 98.0266C48.8738 98.3918 49.7345 98.5933 50.6093 98.6191C51.6261 98.6095 52.6162 98.292 53.4489 97.7083C54.2816 97.1247 54.9179 96.3023 55.2737 95.3497L55.4483 95.4372L53.8357 99.6655C53.6169 99.5671 53.3736 99.5368 53.1373 99.5786V99.5786Z" stroke="#13965F" stroke-width="0.22822" stroke-miterlimit="22.9256"/>
<path fill-rule="evenodd" clip-rule="evenodd" d="M67.9601 99.5787L65.4315 99.7091C63.2255 99.8289 61.0482 99.1649 59.2845 97.8344C58.4191 97.1019 57.7276 96.186 57.2601 95.153C56.7927 94.1201 56.561 92.9961 56.5818 91.8625C56.5548 90.9454 56.728 90.0335 57.0893 89.1902C57.4506 88.3469 57.9913 87.5924 58.6738 86.9793C60.1783 85.852 62.0275 85.2821 63.9055 85.367L66.2159 85.5415L66.8701 85.6279C67.0355 85.6439 67.202 85.6111 67.3491 85.5338C67.4962 85.4564 67.6175 85.3378 67.6981 85.1925L68.6575 89.1598L68.4829 89.203C68.0759 88.3449 67.4241 87.6262 66.6096 87.1376C65.7951 86.6489 64.8543 86.4121 63.9055 86.4568C63.2625 86.4049 62.6162 86.504 62.0182 86.7462C61.4202 86.9885 60.8872 87.3672 60.4616 87.8521C59.5703 88.93 59.0911 90.2895 59.1096 91.6881C59.0549 92.5616 59.1765 93.4372 59.4672 94.2627C59.7578 95.0883 60.2115 95.847 60.8013 96.4936C61.3911 97.1403 62.105 97.6617 62.9004 98.0268C63.6958 98.392 64.5566 98.5934 65.4314 98.6191C66.4442 98.6147 67.4311 98.2986 68.2579 97.7136C69.0846 97.1287 69.7112 96.3033 70.0524 95.3497L70.2702 95.4372L68.6575 99.6656C68.4375 99.5728 68.1961 99.5427 67.9601 99.5787V99.5787Z" fill="#13965F"/>
<path d="M67.9601 99.5787L65.4315 99.7091C63.2255 99.8289 61.0482 99.1649 59.2845 97.8344C58.4191 97.1019 57.7276 96.186 57.2601 95.153C56.7927 94.1201 56.561 92.9961 56.5818 91.8625C56.5548 90.9454 56.728 90.0335 57.0893 89.1902C57.4506 88.3469 57.9913 87.5924 58.6738 86.9793C60.1783 85.852 62.0275 85.2821 63.9055 85.367L66.2159 85.5415L66.8701 85.6279C67.0355 85.6439 67.202 85.6111 67.3491 85.5338C67.4962 85.4564 67.6175 85.3378 67.6981 85.1925L68.6575 89.1598L68.4829 89.203C68.0759 88.3449 67.4241 87.6262 66.6096 87.1376C65.7951 86.6489 64.8543 86.4121 63.9055 86.4568C63.2625 86.4049 62.6162 86.504 62.0182 86.7462C61.4202 86.9885 60.8872 87.3672 60.4616 87.8521C59.5703 88.93 59.0911 90.2895 59.1096 91.6881C59.0549 92.5616 59.1765 93.4372 59.4672 94.2627C59.7578 95.0883 60.2115 95.847 60.8013 96.4936C61.3911 97.1403 62.105 97.6617 62.9004 98.0268C63.6958 98.392 64.5566 98.5934 65.4314 98.6191C66.4442 98.6147 67.4311 98.2986 68.2579 97.7136C69.0846 97.1287 69.7112 96.3033 70.0524 95.3497L70.2702 95.4372L68.6575 99.6656C68.4375 99.5728 68.1961 99.5427 67.9601 99.5787V99.5787Z" stroke="#13965F" stroke-width="0.22822" stroke-miterlimit="22.9256"/>
<path fill-rule="evenodd" clip-rule="evenodd" d="M76.6349 99.2733V99.4477H71.5781V99.2733C72.9292 99.0556 72.9725 97.9657 72.9725 96.8321V88.3748C72.9725 87.2415 72.9292 86.0209 71.5781 85.8464V85.628H76.6348V85.8465C75.2828 85.977 75.2828 87.0671 75.2828 88.2443V92.6473L81.5174 87.1979C81.5608 86.6752 81.5608 85.9771 80.1662 85.8465V85.6281H85.1793V85.8465C83.8278 86.0211 83.8278 87.1108 83.8278 88.2443V96.701C83.8278 97.8782 83.8278 99.0995 85.1793 99.2734V99.4478H80.1663V99.2734C81.5174 99.1428 81.5174 98.0525 81.5174 96.8322V88.6364L75.2829 94.0859V96.7009C75.2829 97.8782 75.2829 99.1427 76.6349 99.2733Z" fill="#13965F"/>
<path d="M76.6349 99.2733V99.4477H71.5781V99.2733C72.9292 99.0556 72.9725 97.9657 72.9725 96.8321V88.3748C72.9725 87.2415 72.9292 86.0209 71.5781 85.8464V85.628H76.6348V85.8465C75.2828 85.977 75.2828 87.0671 75.2828 88.2443V92.6473L81.5174 87.1979C81.5608 86.6752 81.5608 85.9771 80.1662 85.8465V85.6281H85.1793V85.8465C83.8278 86.0211 83.8278 87.1108 83.8278 88.2443V96.701C83.8278 97.8782 83.8278 99.0995 85.1793 99.2734V99.4478H80.1663V99.2734C81.5174 99.1428 81.5174 98.0525 81.5174 96.8322V88.6364L75.2829 94.0859V96.7009C75.2829 97.8782 75.2829 99.1427 76.6349 99.2733Z" stroke="#13965F" stroke-width="0.22822" stroke-miterlimit="22.9256"/>
<path fill-rule="evenodd" clip-rule="evenodd" d="M92.241 99.2733V99.4477H87.1846V99.2733C88.5357 99.0556 88.5794 97.9657 88.5794 96.8321V88.3748C88.5794 87.2415 88.5357 86.0209 87.1846 85.8464V85.628H92.241V85.8465C90.8898 85.977 90.8898 87.0671 90.8898 88.2443V92.6473L97.1237 87.1979C97.1675 86.6752 97.1675 85.9771 95.7726 85.8465V85.6281H100.785V85.8465C99.4342 86.0211 99.4342 87.1108 99.4342 88.2443V96.701C99.4342 97.8782 99.4342 99.0995 100.785 99.2734V99.4478H95.7726V99.2734C97.0799 99.1428 97.1237 98.0525 97.1237 96.8322V88.6364L90.8898 94.0859V96.7009C90.8898 97.8782 90.8898 99.1427 92.241 99.2733Z" fill="#13965F"/>
<path d="M92.241 99.2733V99.4477H87.1846V99.2733C88.5357 99.0556 88.5794 97.9657 88.5794 96.8321V88.3748C88.5794 87.2415 88.5357 86.0209 87.1846 85.8464V85.628H92.241V85.8465C90.8898 85.977 90.8898 87.0671 90.8898 88.2443V92.6473L97.1237 87.1979C97.1675 86.6752 97.1675 85.9771 95.7726 85.8465V85.6281H100.785V85.8465C99.4342 86.0211 99.4342 87.1108 99.4342 88.2443V96.701C99.4342 97.8782 99.4342 99.0995 100.785 99.2734V99.4478H95.7726V99.2734C97.0799 99.1428 97.1237 98.0525 97.1237 96.8322V88.6364L90.8898 94.0859V96.7009C90.8898 97.8782 90.8898 99.1427 92.241 99.2733Z" stroke="#13965F" stroke-width="0.22822" stroke-miterlimit="22.9256"/>
</g>
<defs>
<clipPath id="clip0">
<rect width="113.329" height="100" fill="white" transform="translate(0.0478516)"/>
</clipPath>
</defs>
</svg>
