<svg width="205" height="79" viewBox="0 0 205 79" fill="none" xmlns="http://www.w3.org/2000/svg">
<g clip-path="url(#clip0)">
<path fill-rule="evenodd" clip-rule="evenodd" d="M17.8631 52.3001C14.4846 49.7081 11.3988 46.753 8.66095 43.4876C5.16205 39.0879 2.44637 34.1153 0.63352 28.7888C-0.253087 26.173 -0.258096 26.2696 0.93106 22.9355C2.75094 18.025 5.30623 13.4215 8.50892 9.28347C10.9734 6.40571 13.6699 3.73637 16.571 1.30248L18.2664 0H64.2875L63.831 1.50123C63.5795 2.32769 63.1317 3.63801 62.8342 4.41369L62.2955 5.82476H19.8831L18.8301 6.71655C18.2509 7.20652 17.492 7.85877 17.1426 8.16501L16.5079 8.72202L38.6889 8.72986C50.8885 8.73337 60.8698 8.7734 60.8698 8.81833C60.138 10.2117 59.3355 11.5664 58.4653 12.8773L57.3861 14.5604L34.4191 14.6067L11.453 14.6529L10.5862 15.9272C10.2388 16.393 9.94538 16.8971 9.71158 17.4295C9.70509 17.6104 14.3285 17.6566 32.2432 17.6566H54.7833L53.3357 19.1252C52.54 19.9328 51.1457 21.2026 50.2375 21.9464L48.5863 23.299H6.65306L6.11208 24.8003L5.57185 26.301L6.11436 27.8423C8.51706 34.6342 12.5735 40.716 17.915 45.5351L19.3223 46.7808H38.0094C48.2873 46.7808 56.6973 46.7545 56.6973 46.721C56.2139 45.4127 55.6569 44.1329 55.029 42.8878C53.3277 39.4946 51.0914 36.3992 48.4065 33.7212L46.7332 32.0382L28.8987 31.9919L11.0641 31.9454L10.2476 30.2997C9.79899 29.3936 9.25077 28.1443 9.03009 27.5232L8.62964 26.3935H48.6935L51.3528 28.9813C56.1092 33.4268 59.824 38.8748 62.2301 44.9333C63.0288 47.115 63.6355 49.3627 64.0433 51.6506L64.1696 52.6065H41.241C20.0563 52.6065 18.2779 52.5829 17.8631 52.3V52.3001ZM186.921 68.6246C188.16 68.5622 189.336 68.062 190.242 67.2127C191.148 66.3633 191.726 65.2197 191.872 63.9843C192.233 62.6691 192.167 61.2723 191.682 59.9977C191.196 58.7231 190.318 57.6374 189.174 56.8989C187.209 56.1026 185.076 55.8155 182.971 56.0642H179.533V68.8064L182.572 68.8005C184.243 68.7979 186.201 68.7188 186.921 68.6248V68.6246ZM167.739 52.5151V26.2121H185.249C194.878 26.2121 202.758 26.2731 202.759 26.3489C202.759 26.4234 202.01 28.6758 201.095 31.3538L199.429 36.2233H179.533V46.004L184.749 46.1043C187.041 46.0955 189.332 46.2237 191.609 46.4883C194.089 46.7246 196.469 47.5841 198.531 48.9875C200.592 50.3908 202.268 52.2927 203.403 54.5174C204.679 56.9164 205.234 59.6357 205 62.3451C205.13 64.0321 204.972 65.7291 204.533 67.3628C202.796 73.8293 197.944 77.7039 190.424 78.6289C189.521 78.7403 184.519 78.8179 178.313 78.8179H167.739V52.5151ZM104.285 46.4035C104.976 46.0656 105.587 45.5818 106.075 44.9851C106.564 44.3885 106.918 43.6931 107.113 42.9465C107.309 42.2 107.341 41.4198 107.208 40.6595C107.076 39.8991 106.781 39.1765 106.344 38.5411C105.137 36.9543 103.761 36.5874 99.0033 36.5874H95.8887V46.826L99.7439 46.7312C101.264 46.7493 102.783 46.6396 104.285 46.4035ZM105.186 68.3819C106.261 67.885 107.114 67.0054 107.58 65.9135C108.366 64.4948 108.604 62.8359 108.25 61.2524C107.896 59.6688 106.974 58.2711 105.66 57.325C103.497 56.6624 101.225 56.4327 98.9734 56.6491L95.9788 56.7011L95.9312 62.6156C95.9044 65.8693 95.9264 68.6434 95.9788 68.7816C96.0576 68.9867 96.8025 69.0187 100.117 68.9595C104.096 68.8876 104.175 68.8783 105.186 68.3818L105.186 68.3819ZM84.276 52.595V26.3714L95.7516 26.4455C108.118 26.5246 107.998 26.5162 110.817 27.5431C112.682 28.2108 114.356 29.3253 115.694 30.7897C116.711 31.7034 117.528 32.819 118.094 34.0659C119.142 36.1034 119.602 38.3941 119.422 40.6799C119.38 42.6346 118.847 44.5472 117.874 46.2409C116.9 47.9347 115.517 49.355 113.851 50.3707L112.896 50.924L114.386 51.7018C116.396 52.833 118.125 54.4066 119.442 56.3043C121.454 59.8645 121.986 64.0769 120.923 68.028C120.615 69.1003 120.217 70.1442 119.732 71.1483C119.182 72.3589 118.391 73.4434 117.406 74.3343C115.985 75.8469 114.214 76.9848 112.25 77.6475C109.261 78.7658 108.521 78.8178 95.7652 78.8178H84.276L84.276 52.595ZM136.894 57.7028V36.4057H122.016V26.3935H164.82L163.149 31.3538L161.479 36.3145L154.993 36.3622L148.507 36.41V79H136.894L136.894 57.7028Z" fill="#33427E"/>
</g>
<defs>
<clipPath id="clip0">
<rect width="205" height="79" fill="white"/>
</clipPath>
</defs>
</svg>
