<?xml version="1.0" encoding="UTF-8"?>
<!DOCTYPE svg PUBLIC "-//W3C//DTD SVG 1.1//EN" "http://www.w3.org/Graphics/SVG/1.1/DTD/svg11.dtd">
<!-- Creator: CorelDRAW 2019 (64-Bit) -->
<svg xmlns="http://www.w3.org/2000/svg" xml:space="preserve" width="32.2841mm" height="7.5194mm" version="1.1" style="shape-rendering:geometricPrecision; text-rendering:geometricPrecision; image-rendering:optimizeQuality; fill-rule:evenodd; clip-rule:evenodd"
viewBox="0 0 5536.3 1289.48"
 xmlns:xlink="http://www.w3.org/1999/xlink"
 xmlns:xodm="http://www.corel.com/coreldraw/odm/2003">
 <defs>
  <style type="text/css">
   <![CDATA[
    .fil0 {fill:#E42129}
   ]]>
  </style>
 </defs>
 <g id="Layer_x0020_1">
  <metadata id="CorelCorpID_0Corel-Layer"/>
  <path class="fil0" d="M5213.63 784.84l-384.68 0 0 483.32 -317.04 0 0 -1221.67 317.04 0 0 457.96 384.68 0 0 -457.96 322.67 0 0 1221.67 -322.67 0 0 -483.32zm-810.22 -504.45l-249.39 162.02c-46.54,-46.49 -104.3,-135.25 -245.19,-135.25 -87.39,0 -249.41,77.49 -249.41,322.69 0,253.65 109.91,369.19 276.18,363.55 129.63,-5.66 156.43,-31 233.93,-125.41l228.25 171.9c-83.1,109.92 -187.42,255.05 -473.46,249.41 -305.76,-5.62 -576.32,-249.41 -576.32,-659.45 5.64,-338.19 239.55,-614.35 560.83,-614.35 202.9,5.61 369.18,94.37 494.59,264.9zm-2105.19 780.66l181.78 -187.42c73.29,73.26 212.8,140.91 311.4,140.91 104.28,0 171.93,-11.3 171.93,-104.28 0,-52.13 -21.16,-78.92 -73.29,-94.42 -98.64,-25.35 -222.61,-61.99 -336.75,-108.5 -135.29,-67.63 -218.41,-140.89 -218.41,-332.53 0,-322.7 357.91,-374.82 467.78,-369.19 114.18,0 286.07,46.49 415.72,187.4 -67.65,56.38 -78.92,77.49 -187.44,202.9 -73.26,-83.12 -150.75,-131.03 -243.77,-131.03 -78.9,0 -156.38,36.65 -150.75,115.53 4.22,56.38 19.7,87.37 71.85,98.64 57.76,15.5 114.12,35.24 286.04,77.49 166.27,40.88 264.9,166.29 260.68,332.58 -5.61,249.39 -183.18,384.66 -421.31,384.66 -214.19,0 -384.66,-52.11 -535.47,-212.75zm-1200.54 -431.2c0,-125.41 15.52,-233.93 62.01,-317.04 40.87,-88.78 88.78,-156.4 150.79,-198.67 61.99,-40.88 124,-71.87 181.78,-87.37 57.76,-15.5 114.12,-26.77 166.26,-26.77 52.13,0 108.5,11.27 171.9,26.77 56.38,15.5 119.8,40.85 181.78,87.37 62.01,42.27 114.16,109.89 150.79,198.67 40.87,83.12 61.98,191.64 61.98,317.04 0,135.27 -21.11,243.79 -61.98,326.91 -36.63,88.8 -88.78,156.4 -150.79,197.28 -61.98,42.27 -125.39,73.28 -187.4,88.76 -57.77,15.52 -114.14,25.36 -166.27,25.36 -46.49,0 -104.26,-9.84 -166.26,-25.36 -57.77,-15.49 -119.78,-46.49 -181.78,-88.76 -62.01,-40.88 -109.92,-108.48 -150.79,-197.28 -46.49,-83.12 -62.01,-191.64 -62.01,-326.91zm295.93 15.5c0,61.99 9.84,119.77 25.36,160.63 15.5,46.51 36.63,83.15 67.62,104.28 21.14,30.99 52.15,46.49 83.15,56.37 26.77,11.27 57.76,15.5 88.76,15.5 30.99,0 61.99,-4.24 93.01,-15.5 32.41,-9.88 57.76,-25.38 83.12,-56.37 26.79,-21.13 47.93,-57.77 67.63,-104.28 11.27,-40.87 21.16,-98.64 21.16,-160.63 0,-67.65 -9.89,-119.78 -21.16,-162.06 -19.7,-46.49 -40.85,-77.49 -67.63,-108.48 -25.36,-21.16 -50.71,-42.31 -83.12,-52.15 -31.02,-9.86 -62.03,-9.86 -93.01,-9.86 -31,0 -61.99,0 -88.76,9.86 -31,9.84 -62.01,30.99 -83.15,52.15 -30.99,30.99 -52.11,61.99 -67.62,108.48 -15.52,42.27 -25.36,94.4 -25.36,162.06zm-1393.6 587.58l0 -1211.83 577.74 0c181.78,0 379.02,125.43 379.02,322.7 0,123.98 -26.77,207.14 -145.13,270.52 129.64,56.37 202.92,87.37 197.3,321.3 0,229.67 -197.3,297.31 -504.46,297.31l-504.46 0zm307.18 -494.59l0 260.69 228.27 0c98.64,0 156.41,-47.91 156.41,-131.05 0,-83.15 -67.62,-129.64 -146.54,-129.64l-238.14 0zm-11.27 -467.83l0 239.55 214.19 0c71.85,0 139.47,-46.49 139.47,-119.77 0,-73.26 -56.35,-119.78 -139.47,-119.78l-214.19 0z"/>
 </g>
</svg>
