<svg width="138" height="29" viewBox="0 0 138 29" fill="none" xmlns="http://www.w3.org/2000/svg">
<g clip-path="url(#clip0_2415_15)">
<path fill-rule="evenodd" clip-rule="evenodd" d="M97.0268 5.22503C81.7924 8.73953 87.3212 32.1053 103.134 27.9185C117.36 24.1519 112.783 1.58943 97.0268 5.22503Z" fill="#E11B22"/>
<path fill-rule="evenodd" clip-rule="evenodd" d="M37.4682 8.87072L47.0132 8.99182L48.8495 15.3066C45.1917 13.9373 42.992 12.0639 38.0366 14.1524C35.271 15.3189 32.2335 18.611 33.5706 22.7804C35.1746 27.7877 44.3761 31.3887 51.0541 24.0261L52.1391 27.6444L60.52 27.6938C59.9911 24.9208 56.1405 10.062 55.1 8.24542C51.9265 2.70181 46.2519 5.35375 41.9663 6.96518C41.1532 7.27165 40.4859 7.50397 39.6555 7.77831C39.4948 7.83268 38.7014 8.10208 38.6273 8.13915L37.4682 8.87566V8.87072Z" fill="#E11B22"/>
<path fill-rule="evenodd" clip-rule="evenodd" d="M32.0234 20.8252C30.2736 22.1821 27.2114 26.8953 19.9154 25.311C15.437 24.3397 12.3724 21.2207 11.2503 17.0364C8.59588 7.12559 19.3099 -0.746201 28.4051 4.36984C27.5623 6.47311 23.9564 11.1245 22.8269 13.7764C24.9153 12.9584 26.4971 11.8709 28.368 10.7661C29.3418 10.1903 29.9671 9.84426 31.0101 9.24862C32.3373 8.48739 32.4584 8.67029 33.6027 7.59518C33.6447 7.55563 33.7288 7.46913 33.7881 7.4024C27.9429 -3.72685 0.701848 -2.81733 0.0147657 13.6553C-0.617943 28.8008 22.5352 32.7281 31.5217 23.2448C32.3546 22.365 32.2483 22.2661 32.0234 20.8252Z" fill="#E11B22"/>
<path fill-rule="evenodd" clip-rule="evenodd" d="M58.5206 8.97151L63.3474 8.97645L63.4883 27.6933L71.9286 27.6883C71.9286 24.285 71.9286 20.8743 71.9286 17.4637C71.9286 14.8117 70.8485 8.97645 73.9354 9.03083C77.1682 9.08767 76.0906 14.6016 76.0906 17.1176C76.0906 20.6 76.1351 24.112 76.0708 27.5895L84.5086 27.7007C84.4814 22.7675 85.0869 12.748 84.432 8.45249C83.2877 0.953903 74.279 7.45647 71.7358 8.22758C70.6804 1.79422 63.0731 6.59885 60.4533 7.72587C60.3149 7.78518 59.5734 8.11142 59.4672 8.18062C58.2734 8.93444 59.131 8.28196 58.5181 8.97398L58.5206 8.97151Z" fill="#E11B22"/>
<path fill-rule="evenodd" clip-rule="evenodd" d="M111.196 8.98458L116.055 8.98706L116.132 27.694L124.522 27.652C124.488 24.4093 124.152 12.032 124.802 10.0325C125.15 9.4863 128.759 6.74539 128.717 12.9415L128.707 27.6965L137.157 27.6915C137.157 22.7139 137.723 12.8921 137.088 8.48039C136.03 1.14245 127.172 7.28171 124.616 8.13685C123.9 7.02467 123.818 6.06819 122.506 5.34898C119.856 3.89573 117.229 5.87541 114.834 6.95299C113.084 7.73894 112.17 7.79084 111.194 8.98706L111.196 8.98458Z" fill="#E11B22"/>
<path fill-rule="evenodd" clip-rule="evenodd" d="M97.185 6.57438C93.4555 7.58029 96.6141 14.639 97.3852 17.3131C98.2231 20.2172 98.9472 27.523 102.528 26.5912C106.357 25.5952 103.154 18.6997 102.348 15.7585C101.52 12.7334 101.001 5.54623 97.1875 6.57438H97.185Z" fill="white"/>
<path fill-rule="evenodd" clip-rule="evenodd" d="M44.1166 17.0393C38.9041 19.6863 42.9253 26.7425 47.6459 24.4687C52.5518 22.1035 48.9533 14.5802 44.1166 17.0393Z" fill="white"/>
</g>
<defs>
<clipPath id="clip0_2415_15">
<rect width="137.394" height="28.42" fill="white"/>
</clipPath>
</defs>
</svg>
