<svg width="117" height="29" viewBox="0 0 117 29" fill="none" xmlns="http://www.w3.org/2000/svg">
<g clip-path="url(#clip0_2415_5)">
<path fill-rule="evenodd" clip-rule="evenodd" d="M78.1939 0.498539C70.0734 2.59806 67.9626 10.3889 69.073 17.337C70.2242 24.5416 75.8224 29.9018 84.2769 28.0516C99.4428 24.7333 96.0202 -4.11055 78.1939 0.498539Z" fill="#0164A8"/>
<path fill-rule="evenodd" clip-rule="evenodd" d="M22.8059 27.3228L28.2295 27.4143L28.3732 19.353C33.088 19.3516 36.7868 19.7363 40.5321 17.4649C43.1586 15.8726 45.1933 12.4049 44.1126 7.62527C42.3104 -0.347292 31.1787 0.407974 22.9017 0.847606L22.8059 27.3228Z" fill="#0164A8"/>
<path fill-rule="evenodd" clip-rule="evenodd" d="M96.0667 27.4078L101.547 27.3416L101.461 9.46181L111.662 27.4501L116.869 27.4092L116.976 0.773438L112.263 0.790346L112.075 19.0647C108.834 12.5914 105.221 6.89024 101.613 0.84671L96.2245 0.777665L96.0652 27.405L96.0667 27.4078Z" fill="#0164A8"/>
<path fill-rule="evenodd" clip-rule="evenodd" d="M50.1011 18.7182L45.206 18.7309C45.6696 31.0984 61.8979 29.7499 65.9899 24.7843C69.0786 21.0334 68.0133 15.6493 64.2117 13.4398C60.7383 11.4206 54.6497 11.4587 51.7329 8.98715C51.5398 5.71386 52.8827 4.61196 56.2969 4.72328C59.8703 4.84023 60.7059 5.89282 61.4189 8.84906L66.7677 8.8392C66.6846 2.35603 61.0962 -0.677712 54.3157 0.208598C48.2933 0.996272 43.4193 6.47899 47.2309 12.2872C49.9321 16.4031 60.6396 15.8071 61.9473 19.4665C63.7171 24.4236 54.6539 24.5462 52.1499 22.3692C51.0326 21.3969 51.7427 22.0916 51.1565 20.8248L50.1026 18.7211L50.1011 18.7182Z" fill="#0164A8"/>
<path fill-rule="evenodd" clip-rule="evenodd" d="M0 27.364L20.2808 27.3866L20.2865 23.2425L5.51654 23.0776L5.56585 16.2788L19.1409 16.2591L19.1254 11.2738L5.72367 11.3358L5.50667 5.73047L20.3006 5.68256L20.2893 0.976247L0.119772 0.783203L0 27.364Z" fill="#0164A8"/>
<path fill-rule="evenodd" clip-rule="evenodd" d="M79.3973 5.31238C76.9708 6.2931 76.2719 6.59324 75.2222 9.19157C72.4632 16.0256 76.1381 26.3006 83.9852 23.133C91.4857 20.1049 88.8916 1.47406 79.3973 5.31379V5.31238Z" fill="#FEFEFE"/>
<path fill-rule="evenodd" clip-rule="evenodd" d="M28.3323 8.38825L28.3915 15.025C32.4172 15.0123 37.3631 15.6239 38.5298 12.3027C41.0098 5.24742 32.3707 5.71664 28.3492 5.72932L28.3323 8.38825Z" fill="#FEFEFE"/>
</g>
<defs>
<clipPath id="clip0_2415_5">
<rect width="116.977" height="28.42" fill="white"/>
</clipPath>
</defs>
</svg>
