<svg width="57" height="57" viewBox="0 0 57 57" fill="none" xmlns="http://www.w3.org/2000/svg">
<g clip-path="url(#clip0_2415_59)">
<path fill-rule="evenodd" clip-rule="evenodd" d="M0.199303 30.9282C1.54126 40.7759 5.84616 47.7625 13.5259 52.5932C15.2133 53.6578 19.5315 55.8004 21.8434 56L36.4322 16.0901C38.279 15.8239 41.707 16.0368 43.7 16.0235C45.8392 16.0235 48.6958 15.6642 50.1573 16.8486C51.7916 18.1794 51.5524 19.9227 50.7951 22.0386C50.1839 23.7686 49.5196 25.5119 48.8685 27.3484C47.5797 30.9149 46.3573 34.4148 45.0287 37.9547C44.3112 39.8843 43.2615 40.8691 40.6706 40.8691C38.279 40.8691 35.8874 40.8558 33.4825 40.8691C32.7916 42.3862 27.8888 55.7737 27.7294 56.8384L30.5993 56.7984C38.8902 55.8004 44.2846 52.8327 48.5762 48.561C50.5559 46.5914 52.4294 43.9565 53.9972 40.8691C55.6447 37.6486 56.2958 34.5346 56.7874 30.5556C57.1727 20.9341 53.6783 13.3487 48.6294 8.49135C43.0489 3.11503 35.7147 -0.55791 27.158 0.0808611C26.3608 2.7291 25.1916 5.44388 24.2881 8.0655C23.7035 9.75559 21.6175 14.7327 21.5112 16.0235C24.886 16.1034 28.686 15.3049 30.0147 17.9931C30.9979 19.9759 29.0448 23.9283 28.3538 25.8446C26.9853 29.6507 24.2483 37.6353 22.893 40.8824L17.007 40.8558C17.3657 38.6866 24.328 21.2135 24.4608 19.7497L20.0364 19.7896L12.3566 40.8558L6.45734 40.8425C6.66993 39.6181 12.9944 22.6774 13.6056 20.9474C14.7748 17.6737 15.9972 14.3468 17.193 11.0331C17.8706 9.18335 20.5545 2.50287 20.6874 1.10556C14.0308 2.92872 8.96853 7.14727 5.83287 11.2727C1.99301 16.3296 -0.239158 22.7439 0.186017 30.9149L0.199303 30.9282Z" fill="#4887CE"/>
<path fill-rule="evenodd" clip-rule="evenodd" d="M0.199301 30.9287H0V56.9985H30.586V56.7989L27.7161 56.8388C27.8755 55.7875 32.7783 42.3999 33.4692 40.8696C35.8608 40.8562 38.2657 40.8696 40.6573 40.8696C43.2483 40.8696 44.2846 39.8848 45.0154 37.9552C46.3441 34.4153 47.5664 30.9154 48.8552 27.3489C49.5196 25.5257 50.1706 23.7691 50.7818 22.0391C51.5392 19.9099 51.765 18.1799 50.1441 16.8491C48.6825 15.6647 45.8392 16.024 43.6867 16.024C41.707 16.024 38.2657 15.8244 36.4189 16.0905L21.8301 56.0005C19.5049 55.8008 15.2 53.645 13.5126 52.5937C5.83287 47.7763 1.52797 40.7764 0.186014 30.9287H0.199301Z" fill="#FDFEFF"/>
<path fill-rule="evenodd" clip-rule="evenodd" d="M30.586 56.7982V56.9978H57V30.542H56.7874C56.2825 34.521 55.6315 37.635 53.9972 40.8555C52.4161 43.9562 50.5559 46.5778 48.5762 48.5474C44.2713 52.8191 38.8902 55.7868 30.5993 56.7848L30.586 56.7982Z" fill="#FDFEFF"/>
<path fill-rule="evenodd" clip-rule="evenodd" d="M34.8776 37.1033L39.2622 37.1432C40.3783 34.7744 41.521 31.1148 42.4378 28.5464C43.1818 26.4704 45.2811 21.5865 45.5468 19.75H41.2154C40.8832 20.2291 34.9573 36.3847 34.8643 37.1166L34.8776 37.1033Z" fill="#4887CE"/>
</g>
<defs>
<clipPath id="clip0_2415_59">
<rect width="57" height="57" fill="white"/>
</clipPath>
</defs>
</svg>
