<svg width="205" height="36" viewBox="0 0 205 36" fill="none" xmlns="http://www.w3.org/2000/svg">
<g clip-path="url(#clip0_2415_25)">
<path fill-rule="evenodd" clip-rule="evenodd" d="M0.0227375 7.23719C2.56613 9.98695 6.55882 13.7384 9.50574 16.772C10.3242 17.6119 10.3895 17.8872 11.2023 17.8645L16.397 12.7027C16.8318 12.2685 17.5195 11.2242 18.2584 11.1731C18.2527 11.1561 18.1817 10.8326 18.1248 10.7758L23.6805 5.40118C24.391 4.88471 24.4194 4.52999 25.036 3.98515C26.5308 2.66277 27.2128 1.83699 28.503 0.474878C28.898 0.0605689 28.6053 0.332991 29.1453 0.000976562L0.0710477 0.0180029L0.0227375 7.23719Z" fill="#00AF25"/>
<path fill-rule="evenodd" clip-rule="evenodd" d="M7.19538 36.0005C7.81204 35.1436 11.6001 31.5141 12.6459 30.4726L18.014 24.9618C16.9711 24.0565 15.5957 22.6575 14.5073 21.4884C13.9844 20.9265 13.4672 20.4725 12.7596 19.763C12.2395 19.2381 11.279 18.5911 11.2023 17.8646C10.3895 17.8873 10.3242 17.612 9.50574 16.7721C6.55882 13.7385 2.56328 9.98707 0.0227371 7.2373L2.86102e-06 35.958L7.19538 36.0034V36.0005Z" fill="#79CA00"/>
<path fill-rule="evenodd" clip-rule="evenodd" d="M24.8797 18.4093C24.5188 18.4887 21.9385 21.2158 21.4298 21.7209C20.6512 22.4928 18.7444 24.5757 18.014 24.9644L12.6459 30.4753C11.6001 31.5167 7.81204 35.1462 7.19538 36.0032L34.5247 35.8755C35.2266 35.6116 34.3144 35.884 34.8856 35.7024C35.2892 35.5747 35.4597 35.6173 35.9058 35.6173L35.8888 28.5513C35.0817 28.1994 28.4519 21.3577 27.7215 20.6142C27.0736 19.9558 25.3657 18.5653 25.3856 17.9297C25.2037 18.5114 25.4168 18.2248 24.8797 18.4093Z" fill="#004B06"/>
<path fill-rule="evenodd" clip-rule="evenodd" d="M18.2584 11.173C18.733 11.908 20.8274 13.7809 21.6174 14.5641C22.2397 15.1799 22.7172 15.6964 23.3395 16.315C23.888 16.8627 24.9167 17.4331 24.8797 18.4064C25.4168 18.222 25.2037 18.5086 25.3856 17.9268C25.3629 18.5625 27.0736 19.9501 27.7215 20.6113C28.4547 21.3548 35.0817 28.1966 35.8888 28.5485L35.9087 0.00372234L29.1453 -0.00195312C28.6053 0.330061 28.898 0.0548015 28.503 0.471948C27.2128 1.83406 26.5308 2.65984 25.036 3.98222C24.4194 4.52707 24.391 4.88178 23.6805 5.39825L18.1248 10.7729C18.1817 10.8297 18.2527 11.1532 18.2584 11.1702V11.173Z" fill="#008229"/>
<path fill-rule="evenodd" clip-rule="evenodd" d="M11.2023 17.8642C11.2819 18.5907 12.2395 19.2377 12.7596 19.7627C13.4672 20.4749 13.9844 20.929 14.5073 21.488C15.5957 22.6571 16.9711 24.0561 18.014 24.9614C18.7444 24.5726 20.6512 22.4897 21.4298 21.7179C21.9385 21.2127 24.5188 18.4857 24.8797 18.4062C24.9167 17.43 23.888 16.8597 23.3395 16.3148C22.72 15.6962 22.2397 15.1797 21.6174 14.5639C20.8245 13.7807 18.733 11.905 18.2584 11.1729C17.5195 11.2239 16.8318 12.2682 16.397 12.7024L11.2023 17.8642Z" fill="white"/>
<path fill-rule="evenodd" clip-rule="evenodd" d="M167.275 28.0379L167.565 28.7899C168.421 31.8688 167.105 26.375 167.781 29.5731C167.881 30.047 167.915 30.6855 167.977 31.1878L170.666 31.3098L170.708 10.0155L167.994 9.88495L167.642 13.3612C166.684 12.8901 162.524 7.17207 156.025 10.1971C152.564 11.8061 150.049 15.4157 149.978 20.5662C149.855 29.4568 158.244 34.7633 165.087 30.1151L167.278 28.0379H167.275Z" fill="#2E2D36"/>
<path fill-rule="evenodd" clip-rule="evenodd" d="M91.7666 29.5503L91.795 26.0854C88.976 27.1467 87.2738 29.4169 82.5081 28.4833C79.3509 27.8675 77.1769 25.5065 76.9638 21.9594L92.6873 21.9168C94.6482 7.45572 77.8448 5.56579 74.2726 16.0938C71.249 25.0071 77.4839 36.7212 91.7666 29.5475V29.5503Z" fill="#2E2D36"/>
<path fill-rule="evenodd" clip-rule="evenodd" d="M118.658 31.1476L121.941 31.3349C122.418 25.0692 119.801 13.3352 126.195 12.7648C133.535 12.1093 130.099 26.0482 130.821 31.3293L133.885 31.3803C134.854 25.7588 131.202 13.1564 138.386 12.7478C145.502 12.342 142.134 26.122 142.853 31.3463L146.013 31.3434C146.38 28.2787 146.437 15.77 145.556 13.3806C144.683 11.0111 142.836 9.4759 139.739 9.41914C135.959 9.3482 135.078 11.0452 133.407 12.762C131.688 11.3062 131.821 9.60643 128.002 9.44184C124.836 9.30563 123.032 10.6933 122.242 12.5492C122.151 12.4527 122.046 12.1462 122.014 12.2171C121.983 12.2881 121.844 11.9674 121.804 11.8851L121.483 11.2126C121.466 11.17 121.233 10.052 121.182 9.8675L118.732 9.89872L118.658 31.1448V31.1476Z" fill="#2E2D36"/>
<path fill-rule="evenodd" clip-rule="evenodd" d="M189.976 31.2922L193.019 31.3631L193.227 21.6722C195.705 22.7336 201.942 30.3529 205 31.6327C204.801 23.9907 202.232 27.0015 197.435 20.5684C200.493 15.5995 205.159 17.0666 204.94 9.61189C202.036 10.7243 195.923 18.3209 193.178 19.5212L193.212 0.919922L190.308 0.942624L189.978 31.295L189.976 31.2922Z" fill="#2E2D36"/>
<path fill-rule="evenodd" clip-rule="evenodd" d="M158.04 13.0911C150.037 16.0707 152.978 30.9858 162.388 28.2758C170.669 25.8921 168.034 9.37081 158.04 13.0911Z" fill="white"/>
<path fill-rule="evenodd" clip-rule="evenodd" d="M102.648 20.5682C98.7972 26.7658 95.5547 24.1012 96.1202 31.6581C97.5383 31.3091 103.483 24.5723 104.955 23.1591C107.757 24.7113 111.56 30.6819 114.268 31.7404C114.68 23.9224 111.969 26.973 107.627 20.5682C108.454 19.1976 110.716 17.1317 111.969 15.8434C114.177 13.5789 114.6 13.9592 114.248 9.44434C110.923 11.6209 107.786 16.8593 104.955 18.0228C103.461 16.6919 97.3933 9.87283 96.1629 9.5096C95.4354 16.2265 97.6349 14.1777 102.648 20.5682Z" fill="#2E2D36"/>
<path fill-rule="evenodd" clip-rule="evenodd" d="M54.7553 31.3181L71.7264 31.3096L71.7747 28.0547L58.2507 27.9412C58.2052 23.7414 58.7907 4.4221 57.9893 2.10367L54.7354 1.92773L54.7553 31.3181Z" fill="#2E2D36"/>
<path fill-rule="evenodd" clip-rule="evenodd" d="M175.929 31.2669L179.214 31.2925C179.373 27.1551 178.984 22.68 179.282 18.7355C179.495 15.9148 180.751 13.9085 183.351 13.2842L185.73 12.7876C185.875 12.7422 186.028 12.6684 186.148 12.6259C186.267 12.5833 186.438 12.5294 186.565 12.4499L186.483 9.66328C180.544 9.4618 181.064 11.6724 179.012 12.7621L178.569 9.83922L176.02 9.87611L175.929 31.2669Z" fill="#2E2D36"/>
<path fill-rule="evenodd" clip-rule="evenodd" d="M76.8927 18.9138L89.5756 18.9507C88.7259 10.0686 78.1858 10.4971 76.8927 18.9138Z" fill="white"/>
</g>
<defs>
<clipPath id="clip0_2415_25">
<rect width="205" height="36" fill="white"/>
</clipPath>
</defs>
</svg>
