<svg width="158" height="29" viewBox="0 0 158 29" fill="none" xmlns="http://www.w3.org/2000/svg">
<g clip-path="url(#clip0_2415_42)">
<path d="M61.2791 14.2116C61.2791 19.7521 65.3815 23.8375 72.2329 23.8375C75.1232 23.8375 77.8496 23.3798 80.6721 22.0632L83.2347 25.5666C79.6889 27.4398 76.2759 28.4202 71.0349 28.4202C60.1037 28.4202 52.0629 23.1566 52.0629 14.2144V14.2116C52.0629 5.27228 60.1037 0.00585938 71.0349 0.00585938C76.2788 0.00585938 79.2906 0.774349 82.9861 2.35653L80.3557 6.38263C77.5615 4.89368 75.126 4.58855 72.2357 4.58855C65.3843 4.58855 61.2819 8.66832 61.2819 14.206V14.2116H61.2791Z" fill="#CF142B"/>
<path d="M102.995 0C92.4086 0 84.7745 5.26924 84.7745 14.2114C84.7745 23.1536 92.4086 28.42 102.995 28.42C113.584 28.42 121.216 23.1536 121.216 14.2114C121.216 5.26924 113.584 0 102.995 0ZM102.995 23.9984C97.1721 23.9984 93.9569 19.6247 93.9569 14.2058C93.9569 8.78678 97.1721 4.41599 102.995 4.41599C108.818 4.41599 112.033 8.78678 112.033 14.2058C112.033 19.6247 108.818 23.9984 102.995 23.9984Z" fill="#CF142B"/>
<path d="M148.737 16.2655V27.6996H157.484V0.714844H148.737V11.0019H135.368V0.714844H126.637V27.6996H135.368V16.2655H148.737Z" fill="#CF142B"/>
<path d="M46.788 27.6996V0.714844H37.5746V27.6996H46.788Z" fill="#CF142B"/>
<path d="M11.1492 13.0671V15.6467C15.4833 18.9975 19.8965 23.4502 23.1371 27.6995H33.4496C29.8614 23.487 24.3605 18.4777 20.3061 15.9575C25.064 15.7597 30.37 13.8328 30.37 8.37145C30.37 1.35898 22.8772 0.0791016 15.3053 0.0791016C9.12065 0.0791016 3.41631 0.361635 0.00613403 0.644168V27.6995H8.60079V4.71547C10.1915 4.54595 11.9008 4.35665 15.3477 4.35665C19.7778 4.35665 22.0155 5.81735 22.0155 8.37427C22.0155 10.5498 21.0888 13.1632 11.1521 13.0671H11.1492Z" fill="#CF142B"/>
</g>
<defs>
<clipPath id="clip0_2415_42">
<rect width="157.488" height="28.42" fill="white"/>
</clipPath>
</defs>
</svg>
