<svg width="193" height="64" viewBox="0 0 193 64" fill="none" xmlns="http://www.w3.org/2000/svg">
<g clip-path="url(#clip0_2415_66)">
<path fill-rule="evenodd" clip-rule="evenodd" d="M0.000396729 45.5082V48.8373C1.3191 51.2984 1.70762 53.8842 6.85591 56.6525C14.2764 60.6427 22.742 62.0223 31.1769 62.9748C34.5503 63.3561 43.0706 63.4143 45.3045 63.9999H56.097L85.1183 61.5917C107.003 58.9387 143.256 51.3505 161.313 42.3032C157.329 42.1029 153.922 41.9994 152.904 38.2369C152.476 36.6536 152.466 27.9367 152.786 26.0812C153.87 19.8062 166.877 18.5541 166.792 28.2665L162.318 28.2775C161.477 27.1166 161.998 24.7427 159.368 25.0869C157.041 25.3913 157.628 27.8202 157.658 30.2579C157.721 35.3836 156.046 39.4725 161.417 38.2643L161.861 33.5809C159.077 33.5246 159.771 33.7619 159.714 30.6625H166.833C166.845 34.3331 166.954 37.4449 165.751 40.2982C171.239 38.6662 184.758 30.2627 188.375 26.1354C190.703 23.4768 191.227 21.8599 193 18.3614V14.9644C191.405 12.432 192.024 12.4526 189.783 10.1692C188.325 8.68391 187.626 8.10243 185.533 6.98744C172.37 -0.021285 151.748 1.06284 147.696 0H136.903C135.104 0.541715 125.183 0.717937 122.225 0.926415C109.483 1.82608 93.2816 4.32278 81.0903 6.84347C71.6835 8.78815 39.858 16.6327 32.9901 21.286C38.2294 21.4225 41.3224 21.9841 41.0953 27.7242C33.263 27.7242 37.592 27.4108 35.4956 25.3743C34.2144 24.1304 32.5038 24.67 32.6605 26.7567C32.7795 28.3448 32.7658 27.3498 33.064 27.7901C34.4443 29.8267 44.8476 32.1224 40.9995 39.6077C38.8915 43.7083 26.7051 45.1895 27.2946 35.3021L32.473 35.3446L33.0052 38.7684C35.2103 39.0653 37.7978 38.767 36.1289 35.7862C34.0961 32.1546 24.727 33.188 28.3445 23.1958C22.1408 25.1734 9.11649 32.9823 4.59744 37.8413C1.96618 40.6706 2.02773 41.9961 0.000396729 45.5083V45.5082Z" fill="#034EA2"/>
<path fill-rule="evenodd" clip-rule="evenodd" d="M56.0973 63.9999H193V18.3613C191.227 21.8599 190.703 23.4768 188.375 26.1353C184.759 30.2626 171.239 38.6661 165.752 40.2981C166.955 37.4448 166.845 34.333 166.834 30.6624H159.714C159.771 33.7618 159.077 33.5246 161.862 33.5808L161.417 38.2642C156.046 39.4725 157.721 35.3835 157.658 30.2578C157.628 27.8201 157.042 25.3913 159.369 25.0868C161.998 24.7426 161.477 27.1165 162.318 28.2774L166.793 28.2665C166.877 18.554 153.87 19.8061 152.787 26.0811C152.466 27.9367 152.476 36.6535 152.904 38.2368C153.922 41.9993 157.329 42.1028 161.313 42.3031C143.256 51.3505 107.003 58.9386 85.1186 61.5916L56.0973 63.9999V63.9999Z" fill="white"/>
<path fill-rule="evenodd" clip-rule="evenodd" d="M65.0492 41.9172L70.1251 41.8301L70.2762 24.8806C71.3166 27.8682 71.8508 32.3432 72.4465 35.4941C73.7126 42.1895 72.0703 41.9083 78.4381 41.9083C79.1276 40.5335 81.8273 26.4228 81.8882 24.581L82.3006 41.7726L87.3114 41.9453L86.8627 22.0815L78.7904 21.9307L76.4436 35.8082C74.5217 32.728 74.5901 25.949 73.6058 21.98L65.5752 21.9759L65.0492 41.9172Z" fill="white"/>
<path fill-rule="evenodd" clip-rule="evenodd" d="M130.683 41.6014L135.572 41.6405L135.364 27.0025C136.027 27.752 135.658 27.0149 136.336 28.52C136.517 28.9225 136.797 29.9497 136.935 30.4427C137.318 31.8169 137.66 32.9181 138.067 34.2491C138.747 36.4729 139.328 39.6025 140.544 41.5445L147.422 41.6322L147.429 21.9522L142.625 21.9453L142.724 36.056C142.093 35.3044 142.44 36.0395 141.776 34.4919C141.604 34.0921 141.347 33.0594 141.214 32.5554L138.038 21.9522L130.777 21.9542L130.683 41.6014L130.683 41.6014Z" fill="white"/>
<path fill-rule="evenodd" clip-rule="evenodd" d="M44.8424 41.9091C51.5427 41.9181 49.9511 43.657 51.5324 33.3912C51.9702 30.5489 52.0946 26.9173 53.2752 24.7374C53.6309 27.8602 54.0713 30.6627 54.5351 33.7093C55.9454 42.9851 54.1452 41.9181 61.117 41.9181L57.4051 21.915L48.62 21.948L44.8424 41.9092L44.8424 41.9091Z" fill="white"/>
<path fill-rule="evenodd" clip-rule="evenodd" d="M116.27 37.2795C115.021 34.3583 115.875 25.9535 115.925 22.1005L111.416 22.0504L111.336 37.9118C111.959 44.3026 122.127 42.9442 124.002 40.4695C125.824 38.0674 125.275 26.0667 125.034 21.999L120.086 22.0155C120.009 24.1577 120.456 36.8667 119.619 38.0414C118.421 39.7221 116.896 38.8231 116.27 37.2795V37.2795Z" fill="white"/>
<path fill-rule="evenodd" clip-rule="evenodd" d="M100.93 38.6294L98.0273 38.7837L97.2011 35.2598L92.1964 35.3311C91.9618 40.2655 93.7436 42.2466 98.5287 42.5126C103.053 42.7643 106.314 41.0946 106.42 36.7108C106.533 32.0479 103.252 31.1606 99.9192 29.316C94.9877 26.5862 98.5608 23.5553 100.38 25.3183C102.467 27.3405 98.1484 27.8246 105.919 27.8267C106.014 18.2678 93.8927 20.772 92.6014 24.9295C89.8497 33.7869 103.369 32.1721 100.93 38.6294L100.93 38.6294Z" fill="white"/>
<path fill-rule="evenodd" clip-rule="evenodd" d="M193 14.9644V0H147.697C151.748 1.06287 172.37 -0.0212486 185.533 6.98744C187.627 8.10243 188.325 8.68391 189.783 10.1692C192.024 12.4526 191.405 12.432 193 14.9644H193Z" fill="white"/>
<path fill-rule="evenodd" clip-rule="evenodd" d="M0.000717163 64.0005H45.3048C43.0709 63.4149 34.5506 63.3566 31.1772 62.9753C22.7423 62.0228 14.2767 60.6432 6.85623 56.653C1.70791 53.8848 1.31942 51.2989 0.000717163 48.8379V64.0005Z" fill="white"/>
<path fill-rule="evenodd" clip-rule="evenodd" d="M111.336 37.9118L111.416 22.0505L115.925 22.1005C115.875 25.9536 115.022 34.3584 116.27 37.2796L116.315 21.89L111.001 21.7988C110.719 25.883 110.098 34.9296 111.336 37.9118Z" fill="#A6BDDA"/>
</g>
<defs>
<clipPath id="clip0_2415_66">
<rect width="193" height="64" fill="white"/>
</clipPath>
</defs>
</svg>
