<svg width="112" height="29" viewBox="0 0 112 29" fill="none" xmlns="http://www.w3.org/2000/svg">
<g clip-path="url(#clip0_2415_51)">
<path d="M19.155 0.391602H16.4286L10.9663 10.1901L5.41105 0.391602H0.586236L8.09099 13.7448L0 28.0796H2.77764L9.55658 16.1362L16.2332 28.0796H21.1557L12.3342 12.5769L19.155 0.391602Z" fill="#E63B32"/>
<path d="M23.8356 28.0796H40.7015V26.0324H28.0277V14.5776H40.7015V12.7723H28.0277V2.43877H40.7015V0.391602H23.8356V28.0796Z" fill="#E63B32"/>
<path d="M58.0095 14.4799L59.1307 14.1868L60.2986 13.7959L61.2244 13.2097L61.9549 12.2838L62.5412 11.0648L62.8343 9.55736L62.932 7.65441L62.8808 6.48194L62.8343 5.55606L62.6389 4.72789L62.3923 4.0486L62.1503 3.26695L61.8107 2.77842L61.4199 2.24336L60.9825 1.80601L60.3963 1.46172L59.9077 1.21978L59.3727 0.926658L58.7399 0.731246L58.1537 0.63354L57.4232 0.535834L56.7905 0.391602H56.06H44.8936V28.0796H49.0856V2.43877H55.4226H55.4738H56.06L56.7905 2.63419L57.372 2.87613L57.814 3.56007L58.1537 4.1463L58.3491 5.021L58.4933 5.84918L58.6422 6.77506V7.65441V8.5803L58.4933 9.31076L58.3491 10.1901L58.1537 10.9671L57.814 11.6045L57.372 12.2838L56.7905 12.5304L56.06 12.7723H50.8909L59.4704 28.0796H64.2952L56.6927 14.5776L58.0095 14.4799Z" fill="#E63B32"/>
<path d="M103.001 12.5769L109.873 0.391602H107.095L101.633 10.1901L96.0776 0.391602H91.2528L98.711 13.7448L90.7177 28.0796H93.5419L100.172 16.1362L106.848 28.0796H111.776L103.001 12.5769Z" fill="#E63B32"/>
<path d="M89.7872 10.9203L89.6429 9.21274L89.401 7.79833L89.1079 6.43045L88.717 5.36033L88.2285 4.19251L87.5958 3.26663L87.0095 2.43846L86.1302 1.8057L85.1531 1.27064L83.9853 0.833288L82.8128 0.395937L81.4496 0.251704L79.7421 0.00976562H77.988H76.1828L74.7218 0.251704L73.2609 0.395937L71.9442 0.833288L70.9206 1.27064L69.9435 1.8057L69.0642 2.43846L68.3337 3.26663L67.7475 4.19251L67.3101 5.36033L66.8728 6.43045L66.6774 7.79833L66.3842 9.21274L66.24 10.9203V12.5301L66.1423 14.2376V14.4796L66.24 16.3825V18.0388L66.3842 19.6952L66.6774 21.0119L66.8728 22.3286L67.3101 23.4964L67.7475 24.4735L68.3337 25.3994L69.0642 26.1298L69.9435 26.7626L70.9206 27.2977L71.9442 27.735L73.2609 28.0747L74.7218 28.3166L76.1828 28.3678L77.988 28.4143L79.7421 28.3678L81.4496 28.3166L82.8128 28.0747L83.9853 27.735L85.1531 27.2977L86.1302 26.7626L87.0095 26.1298L87.5958 25.3994L88.2285 24.4735L88.717 23.4964L89.1079 22.3286L89.401 21.0119L89.6429 19.6952L89.7872 18.0388V16.3825L89.8383 14.4796V14.2376L89.7872 12.5301V10.9203ZM85.2555 14.4796V15.7963L85.2043 17.0618V18.3785L85.1066 19.4486L84.8646 20.5187L84.7669 21.5935L84.4273 22.3705L84.1854 23.2498L83.6968 23.9803L83.2595 24.6131L82.5755 25.1481L81.9428 25.6832L81.1146 26.0228L80.2352 26.2648L79.2628 26.4602L77.9973 26.5067L76.876 26.4602L75.8524 26.2648L74.9265 26.0228L74.1449 25.6832L73.3632 25.1481L72.8282 24.6131L72.3397 23.9803L71.9023 23.2498L71.5627 22.3705L71.3207 21.5935L71.0788 20.5187L70.9811 19.4486L70.9346 18.3785L70.8834 17.0618L70.7391 15.7963V15.7451V15.4054V15.2566V14.9169V14.4796V14.2376V13.9957V13.656V13.5118V13.2187V13.121L70.8834 11.8555L70.9346 10.5899L70.9811 9.3244L71.0788 8.30082L71.3207 7.32841L71.5627 6.356L71.9023 5.43012L72.3397 4.60195L72.8282 3.96918L73.3632 3.28524L74.1449 2.84789L74.9265 2.45707L75.8524 2.21513L76.876 1.97319L77.9973 1.92666L79.2628 1.97319L80.2352 2.21513L81.1146 2.45707L81.9428 2.84789L82.5755 3.28524L83.2595 3.96918L83.6968 4.60195L84.1854 5.43012L84.4273 6.356L84.7669 7.32841L84.8646 8.30082L85.1066 9.3244L85.2043 10.5899V11.8555L85.2555 13.121V14.2423V14.4842V14.4796Z" fill="#E63B32"/>
</g>
<defs>
<clipPath id="clip0_2415_51">
<rect width="111.776" height="28.42" fill="white"/>
</clipPath>
</defs>
</svg>
